<?xml version="1.0" encoding="UTF-8" standalone="no"?>
<svg
   version="1.1"
   width="34.761185mm"
   height="23.633081mm"
   viewBox="0 0 34.761185 23.633081"
   id="svg1806"
   sodipodi:docname="music-module-brd.svg"
   inkscape:version="1.1.2 (0a00cf5339, 2022-02-04)"
   xmlns:inkscape="http://www.inkscape.org/namespaces/inkscape"
   xmlns:sodipodi="http://sodipodi.sourceforge.net/DTD/sodipodi-0.dtd"
   xmlns="http://www.w3.org/2000/svg"
   xmlns:svg="http://www.w3.org/2000/svg"
   xmlns:rdf="http://www.w3.org/1999/02/22-rdf-syntax-ns#"
   xmlns:cc="http://creativecommons.org/ns#"
   xmlns:dc="http://purl.org/dc/elements/1.1/">
  <defs
     id="defs1810" />
  <sodipodi:namedview
     id="namedview1808"
     pagecolor="#505050"
     bordercolor="#eeeeee"
     borderopacity="1"
     inkscape:pageshadow="0"
     inkscape:pageopacity="0"
     inkscape:pagecheckerboard="0"
     inkscape:document-units="mm"
     showgrid="false"
     inkscape:zoom="5.6568543"
     inkscape:cx="57.629202"
     inkscape:cy="36.504387"
     inkscape:window-width="1846"
     inkscape:window-height="1016"
     inkscape:window-x="0"
     inkscape:window-y="0"
     inkscape:window-maximized="1"
     inkscape:current-layer="g278"
     fit-margin-top="1"
     fit-margin-left="1"
     fit-margin-right="1"
     fit-margin-bottom="1" />
  <title
     id="title2">SVG Image created as music-module-brd.svg date 2024/04/20 08:41:54 </title>
  <desc
     id="desc4">Image generated by PCBNEW </desc>
  <rect
     style="fill:none;stroke:#000000;stroke-width:0.202;stroke-miterlimit:4;stroke-dasharray:none;stroke-dashoffset:0;stroke-opacity:1"
     id="rect13711"
     width="9.921113"
     height="7.8142357"
     x="23.739073"
     y="4.8525276" />
  <g
     style="fill:#000000;fill-opacity:1;stroke:#000000;stroke-linecap:round;stroke-linejoin:round;stroke-opacity:1"
     id="g6"
     transform="translate(-128.92731,-98.939609)" />
  <g
     style="fill:#000000;fill-opacity:0;stroke:#000000;stroke-width:0;stroke-linecap:round;stroke-linejoin:round;stroke-opacity:1"
     id="g68"
     transform="translate(-128.92731,-98.939609)">
    <g
       id="g8" />
    <g
       id="g10" />
    <g
       id="g12" />
    <g
       id="g14" />
    <g
       id="g16" />
    <g
       id="g18" />
    <g
       id="g20" />
    <g
       id="g22" />
    <g
       id="g24" />
    <g
       id="g26" />
    <g
       id="g28" />
    <g
       id="g30" />
    <g
       id="g32" />
    <g
       id="g34" />
    <g
       id="g36" />
    <g
       id="g38" />
    <g
       id="g40" />
    <g
       id="g42" />
    <g
       id="g44" />
    <g
       id="g46" />
    <g
       id="g48" />
    <g
       id="g50" />
    <g
       id="g52" />
    <g
       id="g54" />
    <g
       id="g56" />
    <g
       id="g58" />
    <g
       id="g60" />
    <g
       id="g62" />
    <g
       id="g64" />
    <g
       id="g66" />
  </g>
  <g
     style="fill:#000000;fill-opacity:0;stroke:#000000;stroke-width:0;stroke-linecap:round;stroke-linejoin:round;stroke-opacity:1"
     id="g352"
     transform="translate(-128.92731,-98.939609)">
    <g
       id="g70" />
    <g
       style="fill:#000000;fill-opacity:0;stroke:#000000;stroke-width:0;stroke-linecap:round;stroke-linejoin:round;stroke-opacity:1"
       id="g72" />
    <g
       style="fill:#000000;fill-opacity:1;stroke:#000000;stroke-width:0;stroke-linecap:round;stroke-linejoin:round;stroke-opacity:1"
       id="g78">
      <path
         style="fill:#000000;fill-opacity:1;fill-rule:evenodd;stroke:#000000;stroke-width:0;stroke-linecap:round;stroke-linejoin:round;stroke-opacity:1"
         d="m 133.15,117.35 v 1.7 h -1.7 v -1.7 z"
         id="path74" />
      <circle
         cx="132.3"
         cy="115.66"
         r="0.85000002"
         id="circle76" />
    </g>
    <g
       id="g80" />
    <g
       id="g88" />
    <g
       style="fill:#000000;fill-opacity:1;stroke:#000000;stroke-width:0.0212;stroke-linecap:round;stroke-linejoin:round;stroke-opacity:1"
       id="g94" />
    <g
       style="fill:#000000;fill-opacity:1;stroke:#000000;stroke-width:0.0212;stroke-linecap:round;stroke-linejoin:round;stroke-opacity:1"
       id="g100" />
    <g
       style="fill:#000000;fill-opacity:1;stroke:#000000;stroke-width:0.0212;stroke-linecap:round;stroke-linejoin:round;stroke-opacity:1"
       id="g106" />
    <g
       style="fill:#000000;fill-opacity:1;stroke:#000000;stroke-width:0.0212;stroke-linecap:round;stroke-linejoin:round;stroke-opacity:1"
       id="g112" />
    <g
       style="fill:#000000;fill-opacity:1;stroke:#000000;stroke-width:0;stroke-linecap:round;stroke-linejoin:round;stroke-opacity:1"
       id="g116" />
    <g
       style="fill:#000000;fill-opacity:1;stroke:#000000;stroke-width:0.0212;stroke-linecap:round;stroke-linejoin:round;stroke-opacity:1"
       id="g118" />
    <g
       style="fill:#000000;fill-opacity:1;stroke:#000000;stroke-width:1.308;stroke-linecap:round;stroke-linejoin:round;stroke-opacity:1"
       id="g120" />
    <g
       id="g132" />
    <g
       style="fill:#000000;fill-opacity:0;stroke:#000000;stroke-width:1.308;stroke-linecap:round;stroke-linejoin:round;stroke-opacity:1"
       id="g134" />
    <g
       style="fill:#000000;fill-opacity:0;stroke:#000000;stroke-width:0;stroke-linecap:round;stroke-linejoin:round;stroke-opacity:1"
       id="g136" />
    <g
       id="g144" />
    <g
       id="g152" />
    <g
       id="g160" />
    <g
       id="g168" />
    <g
       id="g176" />
    <g
       style="fill:#000000;fill-opacity:1;stroke:#000000;stroke-width:0.0212;stroke-linecap:round;stroke-linejoin:round;stroke-opacity:1"
       id="g182" />
    <g
       style="fill:#000000;fill-opacity:1;stroke:#000000;stroke-width:0.0212;stroke-linecap:round;stroke-linejoin:round;stroke-opacity:1"
       id="g188" />
    <g
       style="fill:#000000;fill-opacity:1;stroke:#000000;stroke-width:0.0212;stroke-linecap:round;stroke-linejoin:round;stroke-opacity:1"
       id="g194" />
    <g
       id="g196" />
    <g
       style="fill:#000000;fill-opacity:1;stroke:#000000;stroke-width:0.0212;stroke-linecap:round;stroke-linejoin:round;stroke-opacity:1"
       id="g198" />
    <g
       id="g208" />
    <g
       id="g216" />
    <g
       id="g224" />
    <g
       style="fill:#000000;fill-opacity:1;stroke:#000000;stroke-width:0;stroke-linecap:round;stroke-linejoin:round;stroke-opacity:1"
       id="g228">
      <circle
         cx="143.60001"
         cy="103"
         r="1.25"
         id="circle226" />
    </g>
    <g
       style="fill:#000000;fill-opacity:1;stroke:#000000;stroke-width:0.0212;stroke-linecap:round;stroke-linejoin:round;stroke-opacity:1"
       id="g230" />
    <g
       id="g232" />
    <g
       style="fill:#000000;fill-opacity:1;stroke:#000000;stroke-width:0.0212;stroke-linecap:round;stroke-linejoin:round;stroke-opacity:1"
       id="g234" />
    <g
       id="g242" />
    <g
       id="g250" />
    <g
       id="g258" />
    <g
       style="fill:#000000;fill-opacity:1;stroke:#000000;stroke-width:0;stroke-linecap:round;stroke-linejoin:round;stroke-opacity:1"
       id="g262">
      <circle
         cx="158.5"
         cy="118.1"
         r="1.25"
         id="circle260" />
    </g>
    <g
       style="fill:#000000;fill-opacity:1;stroke:#000000;stroke-width:0.0212;stroke-linecap:round;stroke-linejoin:round;stroke-opacity:1"
       id="g264" />
    <g
       id="g266" />
    <g
       style="fill:#000000;fill-opacity:1;stroke:#000000;stroke-width:0.0212;stroke-linecap:round;stroke-linejoin:round;stroke-opacity:1"
       id="g268" />
    <g
       style="fill:#000000;fill-opacity:1;stroke:#000000;stroke-width:0;stroke-linecap:round;stroke-linejoin:round;stroke-opacity:1"
       id="g278">
      <path
         style="fill:#000000;fill-opacity:1;fill-rule:evenodd;stroke:#000000;stroke-width:0;stroke-linecap:round;stroke-linejoin:round;stroke-opacity:1"
         d="m 139.95,103.6 0.0957,0.019 0.0811,0.0542 0.0542,0.0811 0.019,0.0957 v 0.5 l -0.019,0.0957 -0.0542,0.0811 -0.0811,0.0542 -0.0957,0.019 h -3 l -0.0957,-0.019 -0.0811,-0.0542 -0.0542,-0.0811 -0.019,-0.0957 v -0.5 l 0.019,-0.0957 0.0542,-0.0811 0.0811,-0.0542 0.0957,-0.019 z"
         id="path270" />
      <path
         style="fill:#000000;fill-opacity:1;fill-rule:evenodd;stroke:#000000;stroke-width:0;stroke-linecap:round;stroke-linejoin:round;stroke-opacity:1"
         d="m 139.95,105.6 0.0957,0.019 0.0811,0.0542 0.0542,0.0811 0.019,0.0957 v 0.5 l -0.019,0.0957 -0.0542,0.0811 -0.0811,0.0542 -0.0957,0.019 h -3 l -0.0957,-0.019 -0.0811,-0.0542 -0.0542,-0.0811 -0.019,-0.0957 v -0.5 l 0.019,-0.0957 0.0542,-0.0811 0.0811,-0.0542 0.0957,-0.019 z"
         id="path272" />
      <path
         style="fill:#000000;fill-opacity:1;fill-rule:evenodd;stroke:#000000;stroke-width:0;stroke-linecap:round;stroke-linejoin:round;stroke-opacity:1"
         d="m 134.15,101 0.0957,0.019 0.0811,0.0542 0.0542,0.0811 0.019,0.0957 v 1 l -0.019,0.0957 -0.0542,0.0811 -0.0811,0.0542 -0.0957,0.019 h -2.9 l -0.0957,-0.019 -0.0811,-0.0542 -0.0542,-0.0811 L 131,102.25 v -1 l 0.019,-0.0957 0.0542,-0.0811 0.0811,-0.0542 L 131.25,101 Z"
         id="path274" />
      <path
         style="fill:#000000;fill-opacity:1;fill-rule:evenodd;stroke:#000000;stroke-width:0;stroke-linecap:round;stroke-linejoin:round;stroke-opacity:1"
         d="m 134.15,107.7 0.0957,0.019 0.0811,0.0542 0.0542,0.0811 0.019,0.0957 v 1 l -0.019,0.0957 -0.0542,0.0811 -0.0811,0.0542 -0.0957,0.019 h -2.9 l -0.0957,-0.019 -0.0811,-0.0542 -0.0542,-0.0811 L 131,108.95 v -1 l 0.019,-0.0957 0.0542,-0.0811 0.0811,-0.0542 0.0957,-0.019 z"
         id="path276" />
    </g>
    <g
       id="g280" />
    <g
       id="g288" />
    <g
       id="g332" />
    <g
       id="g334" />
    <g
       id="g336" />
    <g
       id="g338" />
    <g
       id="g340" />
    <g
       id="g342" />
    <g
       id="g344" />
    <g
       id="g346" />
    <g
       id="g348" />
    <g
       id="g350" />
  </g>
  <g
     style="fill:#000000;fill-opacity:1;stroke:#000000;stroke-width:0;stroke-linecap:round;stroke-linejoin:round;stroke-opacity:1"
     id="g354"
     transform="translate(-128.92731,-98.939609)" />
  <g
     style="fill:#000000;fill-opacity:1;stroke:#000000;stroke-width:1;stroke-linecap:round;stroke-linejoin:round;stroke-opacity:1"
     id="g356"
     transform="translate(-128.92731,-98.939609)" />
  <g
     style="fill:#000000;fill-opacity:0;stroke:#000000;stroke-width:1;stroke-linecap:round;stroke-linejoin:round;stroke-opacity:1"
     id="g374"
     transform="translate(-128.92731,-98.939609)">
    <path
       d="m 153.5,121.05 6.15,0.0123"
       id="path358" />
    <path
       d="m 161.5378,102.4746 a 1.7426,1.7426 0 0 0 -2.0001,-2"
       id="path360" />
    <path
       d="m 132.45,100.4623 a 1.7426,1.7426 0 0 0 -2,2"
       id="path362" />
    <path
       d="m 130.45,102.6123 v 16.25"
       id="path364" />
    <path
       d="m 132,100.4623 h 28"
       id="path366" />
    <path
       d="m 159.5377,121.05 a 1.7426,1.7426 0 0 0 2,-2"
       id="path368" />
    <path
       d="m 130.4623,119.05 a 1.7426,1.7426 0 0 0 2,2"
       id="path370" />
    <path
       d="m 161.5377,102.4745 v 16.25"
       id="path372" />
  </g>
  <g
     style="fill:#000000;fill-opacity:0;stroke:#000000;stroke-width:0.1875;stroke-linecap:round;stroke-linejoin:round;stroke-opacity:1"
     id="g414"
     transform="translate(-128.92731,-98.939609)">
    <text
       x="141.05"
       y="106.425"
       textLength="1.1625"
       font-size="1px"
       lengthAdjust="spacingAndGlyphs"
       text-anchor="middle"
       opacity="0"
       id="text376">G</text>
    <g
       class="stroked-text"
       id="g412">
      <desc
         id="desc378">G</desc>
      <path
         d="m 141.2464,105.6729 -0.0714,-0.0357"
         id="path380" />
      <path
         d="m 141.175,105.6372 h -0.1071"
         id="path382" />
      <path
         d="m 141.0679,105.6372 -0.1072,0.0357"
         id="path384" />
      <path
         d="m 140.9607,105.6729 -0.0714,0.0715"
         id="path386" />
      <path
         d="m 140.8893,105.7444 -0.0357,0.0714"
         id="path388" />
      <path
         d="m 140.8536,105.8158 -0.0357,0.1428"
         id="path390" />
      <path
         d="m 140.8179,105.9586 v 0.1072"
         id="path392" />
      <path
         d="m 140.8179,106.0658 0.0357,0.1428"
         id="path394" />
      <path
         d="m 140.8536,106.2086 0.0357,0.0715"
         id="path396" />
      <path
         d="m 140.8893,106.2801 0.0714,0.0714"
         id="path398" />
      <path
         d="m 140.9607,106.3515 0.1072,0.0357"
         id="path400" />
      <path
         d="m 141.0679,106.3872 h 0.0714"
         id="path402" />
      <path
         d="m 141.1393,106.3872 0.1071,-0.0357"
         id="path404" />
      <path
         d="m 141.2464,106.3515 0.0357,-0.0357"
         id="path406" />
      <path
         d="m 141.2821,106.3158 v -0.25"
         id="path408" />
      <path
         d="m 141.2821,106.0658 h -0.1428"
         id="path410" />
    </g>
  </g>
  <g
     style="fill:#000000;fill-opacity:0;stroke:#000000;stroke-width:0.15;stroke-linecap:round;stroke-linejoin:round;stroke-opacity:1"
     id="g1304"
     transform="translate(-128.92731,-98.939609)">
    <text
       x="141.05"
       y="104.55"
       textLength="1.4881001"
       font-size="1.3333px"
       lengthAdjust="spacingAndGlyphs"
       text-anchor="middle"
       opacity="0"
       id="text416">+</text>
    <g
       class="stroked-text"
       id="g424">
      <desc
         id="desc418">+</desc>
      <path
         d="m 140.669,104.1239 h 0.762"
         id="path420" />
      <path
         d="m 141.05,104.5048 v -0.7619"
         id="path422" />
    </g>
    <text
       x="132.45"
       y="113.5"
       textLength="2.9642999"
       font-size="1.3333px"
       lengthAdjust="spacingAndGlyphs"
       text-anchor="middle"
       opacity="0"
       id="text426">JP1</text>
    <g
       class="stroked-text"
       id="g470">
      <desc
         id="desc428">JP1</desc>
      <path
         d="m 131.6167,112.4548 v 0.7143"
         id="path430" />
      <path
         d="m 131.6167,113.1691 -0.0477,0.1429"
         id="path432" />
      <path
         d="m 131.569,113.312 -0.0952,0.0952"
         id="path434" />
      <path
         d="m 131.4738,113.4072 -0.1428,0.0476"
         id="path436" />
      <path
         d="m 131.331,113.4548 h -0.0953"
         id="path438" />
      <path
         d="m 132.0929,113.4548 v -1"
         id="path440" />
      <path
         d="m 132.0929,112.4548 h 0.3809"
         id="path442" />
      <path
         d="m 132.4738,112.4548 0.0952,0.0476"
         id="path444" />
      <path
         d="m 132.569,112.5024 0.0477,0.0477"
         id="path446" />
      <path
         d="m 132.6167,112.5501 0.0476,0.0952"
         id="path448" />
      <path
         d="m 132.6643,112.6453 v 0.1429"
         id="path450" />
      <path
         d="m 132.6643,112.7882 -0.0476,0.0952"
         id="path452" />
      <path
         d="m 132.6167,112.8834 -0.0477,0.0476"
         id="path454" />
      <path
         d="m 132.569,112.931 -0.0952,0.0476"
         id="path456" />
      <path
         d="m 132.4738,112.9786 h -0.3809"
         id="path458" />
      <path
         d="m 133.6167,113.4548 h -0.5715"
         id="path460" />
      <path
         d="m 133.331,113.4548 v -1"
         id="path462" />
      <path
         d="m 133.331,112.4548 -0.0953,0.1429"
         id="path464" />
      <path
         d="m 133.2357,112.5977 -0.0952,0.0952"
         id="path466" />
      <path
         d="m 133.1405,112.6929 -0.0953,0.0476"
         id="path468" />
    </g>
    <text
       x="142.5"
       y="121.25"
       textLength="2.2024"
       font-size="1.3333px"
       lengthAdjust="spacingAndGlyphs"
       text-anchor="middle"
       opacity="0"
       id="text472">D1</text>
    <g
       class="stroked-text"
       id="g510">
      <desc
         id="desc474">D1</desc>
      <path
         d="m 141.7619,121.2048 v -1"
         id="path476" />
      <path
         d="M 141.7619,120.2048 H 142"
         id="path478" />
      <path
         d="m 142,120.2048 0.1429,0.0476"
         id="path480" />
      <path
         d="m 142.1429,120.2524 0.0952,0.0953"
         id="path482" />
      <path
         d="m 142.2381,120.3477 0.0476,0.0952"
         id="path484" />
      <path
         d="m 142.2857,120.4429 0.0476,0.1905"
         id="path486" />
      <path
         d="m 142.3333,120.6334 v 0.1428"
         id="path488" />
      <path
         d="m 142.3333,120.7762 -0.0476,0.1905"
         id="path490" />
      <path
         d="m 142.2857,120.9667 -0.0476,0.0953"
         id="path492" />
      <path
         d="m 142.2381,121.062 -0.0952,0.0952"
         id="path494" />
      <path
         d="M 142.1429,121.1572 142,121.2048"
         id="path496" />
      <path
         d="m 142,121.2048 h -0.2381"
         id="path498" />
      <path
         d="m 143.2857,121.2048 h -0.5714"
         id="path500" />
      <path
         d="m 143,121.2048 v -1"
         id="path502" />
      <path
         d="m 143,120.2048 -0.0952,0.1429"
         id="path504" />
      <path
         d="m 142.9048,120.3477 -0.0953,0.0952"
         id="path506" />
      <path
         d="m 142.8095,120.4429 -0.0952,0.0476"
         id="path508" />
    </g>
    <text
       x="159.89999"
       y="113.9"
       textLength="1.9643"
       font-size="1.3333px"
       lengthAdjust="spacingAndGlyphs"
       text-anchor="middle"
       opacity="0"
       id="text512">J1</text>
    <g
       class="stroked-text"
       id="g536"
       transform="translate(0,-0.52916663)">
      <desc
         id="desc514">J1</desc>
      <path
         d="m 159.5667,112.8548 v 0.7143"
         id="path516" />
      <path
         d="m 159.5667,113.5691 -0.0477,0.1429"
         id="path518" />
      <path
         d="m 159.519,113.712 -0.0952,0.0952"
         id="path520" />
      <path
         d="m 159.4238,113.8072 -0.1428,0.0476"
         id="path522" />
      <path
         d="m 159.281,113.8548 h -0.0953"
         id="path524" />
      <path
         d="m 160.5667,113.8548 h -0.5715"
         id="path526" />
      <path
         d="m 160.281,113.8548 v -1"
         id="path528" />
      <path
         d="m 160.281,112.8548 -0.0953,0.1429"
         id="path530" />
      <path
         d="m 160.1857,112.9977 -0.0952,0.0952"
         id="path532" />
      <path
         d="m 160.0905,113.0929 -0.0953,0.0476"
         id="path534" />
    </g>
    <text
       x="146.8875"
       y="121.25"
       textLength="2.2024"
       font-size="1.3333px"
       lengthAdjust="spacingAndGlyphs"
       text-anchor="middle"
       opacity="0"
       id="text538">R3</text>
    <text
       x="159.10001"
       y="102.45"
       textLength="2.0595"
       font-size="1.3333px"
       lengthAdjust="spacingAndGlyphs"
       text-anchor="middle"
       opacity="0"
       id="text592">F1</text>
    <text
       x="135.25"
       y="120"
       textLength="2.2024"
       font-size="1.3333px"
       lengthAdjust="spacingAndGlyphs"
       text-anchor="middle"
       opacity="0"
       id="text614">C3</text>
    <text
       x="139.5"
       y="120"
       textLength="2.2024"
       font-size="1.3333px"
       lengthAdjust="spacingAndGlyphs"
       text-anchor="middle"
       opacity="0"
       id="text676">C8</text>
    <text
       x="132.75"
       y="111.5"
       textLength="2.0595"
       font-size="1.3333px"
       lengthAdjust="spacingAndGlyphs"
       text-anchor="middle"
       opacity="0"
       id="text774">Y1</text>
    <text
       x="154.75"
       y="116.3"
       textLength="1.9643"
       font-size="1.3333px"
       lengthAdjust="spacingAndGlyphs"
       text-anchor="middle"
       opacity="0"
       id="text796">J3</text>
    <text
       x="151.5"
       y="105.5"
       textLength="2.25"
       font-size="1.3333px"
       lengthAdjust="spacingAndGlyphs"
       text-anchor="middle"
       opacity="0"
       id="text838">U1</text>
    <text
       x="135.25"
       y="121.25"
       textLength="2.2024"
       font-size="1.3333px"
       lengthAdjust="spacingAndGlyphs"
       text-anchor="middle"
       opacity="0"
       id="text872">C4</text>
    <text
       x="145.60001"
       y="102.2"
       textLength="2.2024"
       font-size="1.3333px"
       lengthAdjust="spacingAndGlyphs"
       text-anchor="middle"
       opacity="0"
       id="text914">C2</text>
    <text
       x="151.5"
       y="121.25"
       textLength="2.2024"
       font-size="1.3333px"
       lengthAdjust="spacingAndGlyphs"
       text-anchor="middle"
       opacity="0"
       id="text970">C5</text>
    <text
       x="139.5"
       y="121.25"
       textLength="2.2024"
       font-size="1.3333px"
       lengthAdjust="spacingAndGlyphs"
       text-anchor="middle"
       opacity="0"
       id="text1036">C6</text>
    <g
       transform="rotate(-90,142.75,106.15)"
       id="g1116">
      <text
         x="142.75"
         y="106.65"
         textLength="3.2976"
         font-size="1.3333px"
         lengthAdjust="spacingAndGlyphs"
         text-anchor="middle"
         opacity="0"
         id="text1114">SW1</text>
    </g>
    <g
       class="stroked-text"
       id="g1176"
       transform="rotate(90,142.17195,110.88611)">
      <desc
         id="desc1118">SW1</desc>
      <path
         d="m 143.1572,107.4833 0.0476,-0.1428"
         id="path1120" />
      <path
         d="m 143.2048,107.3405 v -0.2381"
         id="path1122" />
      <path
         d="m 143.2048,107.1024 -0.0476,-0.0953"
         id="path1124" />
      <path
         d="m 143.1572,107.0071 -0.0476,-0.0476"
         id="path1126" />
      <path
         d="m 143.1096,106.9595 -0.0953,-0.0476"
         id="path1128" />
      <path
         d="m 143.0143,106.9119 h -0.0952"
         id="path1130" />
      <path
         d="m 142.9191,106.9119 -0.0952,0.0476"
         id="path1132" />
      <path
         d="m 142.8239,106.9595 -0.0477,0.0476"
         id="path1134" />
      <path
         d="m 142.7762,107.0071 -0.0476,0.0953"
         id="path1136" />
      <path
         d="m 142.7286,107.1024 -0.0476,0.1905"
         id="path1138" />
      <path
         d="m 142.681,107.2929 -0.0476,0.0952"
         id="path1140" />
      <path
         d="m 142.6334,107.3881 -0.0476,0.0476"
         id="path1142" />
      <path
         d="m 142.5858,107.4357 -0.0953,0.0476"
         id="path1144" />
      <path
         d="m 142.4905,107.4833 h -0.0952"
         id="path1146" />
      <path
         d="m 142.3953,107.4833 -0.0952,-0.0476"
         id="path1148" />
      <path
         d="m 142.3001,107.4357 -0.0477,-0.0476"
         id="path1150" />
      <path
         d="m 142.2524,107.3881 -0.0476,-0.0952"
         id="path1152" />
      <path
         d="m 142.2048,107.2929 v -0.2381"
         id="path1154" />
      <path
         d="m 142.2048,107.0548 0.0476,-0.1429"
         id="path1156" />
      <path
         d="m 142.2048,106.5786 1,-0.2381"
         id="path1158" />
      <path
         d="M 143.2048,106.3405 142.4905,106.15"
         id="path1160" />
      <path
         d="m 142.4905,106.15 0.7143,-0.1905"
         id="path1162" />
      <path
         d="m 143.2048,105.9595 -1,-0.2381"
         id="path1164" />
      <path
         d="m 143.2048,104.8167 v 0.5714"
         id="path1166" />
      <path
         d="m 143.2048,105.1024 h -1"
         id="path1168" />
      <path
         d="m 142.2048,105.1024 0.1429,0.0952"
         id="path1170" />
      <path
         d="m 142.3477,105.1976 0.0952,0.0953"
         id="path1172" />
      <path
         d="m 142.4429,105.2929 0.0476,0.0952"
         id="path1174" />
    </g>
    <text
       x="139.85001"
       y="102.6"
       textLength="1.9643"
       font-size="1.3333px"
       lengthAdjust="spacingAndGlyphs"
       text-anchor="middle"
       opacity="0"
       id="text1178">J2</text>
    <g
       class="stroked-text"
       id="g1212">
      <desc
         id="desc1180">J2</desc>
      <path
         d="m 139.5167,101.5548 v 0.7143"
         id="path1182" />
      <path
         d="m 139.5167,102.2691 -0.0477,0.1429"
         id="path1184" />
      <path
         d="m 139.469,102.412 -0.0952,0.0952"
         id="path1186" />
      <path
         d="m 139.3738,102.5072 -0.1428,0.0476"
         id="path1188" />
      <path
         d="m 139.231,102.5548 h -0.0953"
         id="path1190" />
      <path
         d="m 139.9452,101.6501 0.0477,-0.0477"
         id="path1192" />
      <path
         d="m 139.9929,101.6024 0.0952,-0.0476"
         id="path1194" />
      <path
         d="m 140.0881,101.5548 h 0.2381"
         id="path1196" />
      <path
         d="m 140.3262,101.5548 0.0952,0.0476"
         id="path1198" />
      <path
         d="m 140.4214,101.6024 0.0476,0.0477"
         id="path1200" />
      <path
         d="m 140.469,101.6501 0.0477,0.0952"
         id="path1202" />
      <path
         d="m 140.5167,101.7453 v 0.0952"
         id="path1204" />
      <path
         d="m 140.5167,101.8405 -0.0477,0.1429"
         id="path1206" />
      <path
         d="m 140.469,101.9834 -0.5714,0.5714"
         id="path1208" />
      <path
         d="m 139.8976,102.5548 h 0.6191"
         id="path1210" />
    </g>
    <text
       x="156.64999"
       y="102.45"
       textLength="2.2024"
       font-size="1.3333px"
       lengthAdjust="spacingAndGlyphs"
       text-anchor="middle"
       opacity="0"
       id="text1214">C1</text>
    <text
       x="152"
       y="117"
       textLength="2.25"
       font-size="1.3333px"
       lengthAdjust="spacingAndGlyphs"
       text-anchor="middle"
       opacity="0"
       id="text1260">U2</text>
  </g>
  <g
     style="fill:#000000;fill-opacity:0;stroke:#000000;stroke-width:0.12;stroke-linecap:round;stroke-linejoin:round;stroke-opacity:1"
     id="g1498"
     transform="translate(-128.92731,-98.939609)">
    <path
       d="m 150,110.5 v -1.2"
       id="path1394" />
    <path
       d="m 150,107.7 v -1.2"
       id="path1396" />
    <path
       d="m 150,106.5 h -6.4"
       id="path1398" />
    <path
       d="M 143.6,110.5 H 150"
       id="path1400" />
    <path
       d="m 143.6,109.3 v 1.2"
       id="path1402" />
    <path
       d="m 143.6,106.5 v 1.2"
       id="path1404" />
    <path
       d="m 138.91,101.04 v 1.02"
       id="path1406" />
    <path
       d="m 134.66,101.04 h 4.25"
       id="path1408" />
    <path
       d="m 138.91,102.06 h -1.6"
       id="path1410" />
    <path
       d="m 137.31,102.06 v 1.28"
       id="path1412" />
    <path
       d="m 131.09,102.76 v 4.68"
       id="path1414" />
    <path
       d="m 137.31,103.34 h 2.89"
       id="path1416" />
    <path
       d="m 137.31,106.86 h 2.89"
       id="path1416-3"
       style="fill:#000000;fill-opacity:0;stroke:#000000;stroke-width:0.12;stroke-linecap:round;stroke-linejoin:round;stroke-opacity:1" />
    <path
       d="m 138.91,108.14 h -1.6"
       id="path1418" />
    <path
       d="m 137.31,108.14 v -1.28"
       id="path1420" />
    <path
       d="m 138.91,109.16 v -1.02"
       id="path1422" />
    <path
       d="m 134.66,109.16 h 4.25"
       id="path1424" />
    <g
       id="g1438" />
    <g
       id="g1440" />
    <g
       id="g1442" />
    <g
       id="g1444" />
    <g
       id="g1446" />
    <g
       id="g1448" />
    <g
       id="g1450" />
    <g
       id="g1452" />
    <g
       id="g1454" />
    <g
       id="g1456" />
    <g
       id="g1458" />
    <g
       id="g1460" />
    <g
       id="g1462" />
    <g
       id="g1464" />
    <g
       id="g1466" />
    <g
       id="g1468" />
    <g
       id="g1470" />
    <g
       id="g1472" />
    <g
       id="g1474" />
    <g
       id="g1476" />
    <g
       id="g1478" />
    <g
       id="g1480" />
    <g
       id="g1482" />
    <g
       id="g1484" />
    <g
       id="g1486" />
    <g
       id="g1488" />
    <g
       id="g1490" />
    <g
       id="g1492" />
    <g
       id="g1494" />
    <g
       id="g1496" />
  </g>
  <g
     style="fill:#000000;fill-opacity:0;stroke:#000000;stroke-width:0.12;stroke-linecap:round;stroke-linejoin:round;stroke-opacity:1"
     id="g1500"
     transform="translate(-128.92731,-98.939609)" />
  <g
     style="fill:#000000;fill-opacity:0;stroke:#000000;stroke-width:0.05;stroke-linecap:round;stroke-linejoin:round;stroke-opacity:1"
     id="g1724"
     transform="translate(-128.92731,-98.939609)">
    <path
       d="m 134.1,120 v -6.15"
       id="path1502" />
    <path
       d="m 134.1,113.85 h -3.6"
       id="path1504" />
    <path
       d="m 130.5,120 h 3.6"
       id="path1506" />
    <path
       d="M 130.5,113.85 V 120"
       id="path1508" />
    <path
       d="m 140.85,118.47 h 3.3"
       id="path1510" />
    <path
       d="m 140.85,119.93 v -1.46"
       id="path1512" />
    <path
       d="m 144.15,118.47 v 1.46"
       id="path1514" />
    <path
       d="m 144.15,119.93 h -3.3"
       id="path1516" />
    <path
       d="m 134.0767,117.8058 v -3.3"
       id="path1580" />
    <path
       d="M 151.55,109.25 H 150.1"
       id="path1614" />
    <path
       d="m 151.55,107.75 v 1.5"
       id="path1616" />
    <path
       d="m 150.1,110.6 h -6.6"
       id="path1618" />
    <path
       d="m 150.1,109.25 v 1.35"
       id="path1620" />
    <path
       d="m 150.1,107.75 h 1.45"
       id="path1622" />
    <path
       d="m 150.1,106.4 v 1.35"
       id="path1624" />
    <path
       d="m 143.5,110.6 v -1.35"
       id="path1626" />
    <path
       d="m 143.5,109.25 h -1.45"
       id="path1628" />
    <path
       d="M 143.5,107.75 V 106.4"
       id="path1630" />
    <path
       d="m 143.5,106.4 h 6.6"
       id="path1632" />
    <path
       d="m 142.05,109.25 v -1.5"
       id="path1634" />
    <path
       d="m 142.05,107.75 h 1.45"
       id="path1636" />
    <path
       d="m 150.57,100.95 h 1.46"
       id="path1650" />
    <g
       id="g1664" />
    <g
       id="g1666" />
    <g
       id="g1668" />
    <g
       id="g1670" />
    <g
       id="g1672" />
    <g
       id="g1674" />
    <g
       id="g1676" />
    <g
       id="g1678" />
    <g
       id="g1680" />
    <g
       id="g1682" />
    <g
       id="g1684" />
    <g
       id="g1686" />
    <g
       id="g1688" />
    <g
       id="g1690" />
    <g
       id="g1692" />
    <g
       id="g1694" />
    <g
       id="g1696" />
    <g
       id="g1698" />
    <g
       id="g1700" />
    <g
       id="g1702" />
    <g
       id="g1704" />
    <g
       id="g1706" />
    <g
       id="g1708" />
    <g
       id="g1710" />
    <g
       id="g1712" />
    <g
       id="g1714" />
    <g
       id="g1716" />
    <g
       id="g1718" />
    <g
       id="g1720" />
    <g
       id="g1722" />
  </g>
  <g
     style="fill:#000000;fill-opacity:0;stroke:#000000;stroke-width:0.05;stroke-linecap:round;stroke-linejoin:round;stroke-opacity:1"
     id="g1726"
     transform="translate(-128.92731,-98.939609)" />
  <g
     style="fill:#000000;fill-opacity:0;stroke:#000000;stroke-width:0.1;stroke-linecap:round;stroke-linejoin:round;stroke-opacity:1"
     id="g1804"
     transform="translate(-128.92731,-98.939609)">
    <path
       d="m 130,119.5 a 2,2 0 0 0 2,2"
       id="path1728" />
    <path
       d="m 132,100 h 28"
       id="path1730" />
    <path
       d="m 160,121.5 a 2,2 0 0 0 2,-2"
       id="path1732" />
    <path
       d="m 132,100 a 2,2 0 0 0 -2,2"
       id="path1734" />
    <path
       d="M 130,119.5 V 102"
       id="path1736" />
    <path
       d="m 162,102 a 2,2 0 0 0 -2,-2"
       id="path1738" />
    <path
       d="m 162,102 v 17.5"
       id="path1740" />
    <path
       d="M 160,121.5 H 132"
       id="path1742" />
    <g
       id="g1744" />
    <g
       id="g1746" />
    <g
       id="g1748" />
    <g
       id="g1750" />
    <g
       id="g1752" />
    <g
       id="g1754" />
    <g
       id="g1756" />
    <g
       id="g1758" />
    <g
       id="g1760" />
    <g
       id="g1762" />
    <g
       id="g1764" />
    <g
       id="g1766" />
    <g
       id="g1768" />
    <g
       id="g1770" />
    <g
       id="g1772" />
    <g
       id="g1774" />
    <g
       id="g1776" />
    <g
       id="g1778" />
    <g
       id="g1780" />
    <g
       id="g1782" />
    <g
       id="g1784" />
    <g
       id="g1786" />
    <g
       id="g1788" />
    <g
       id="g1790" />
    <g
       id="g1792" />
    <g
       id="g1794" />
    <g
       id="g1796" />
    <g
       id="g1798" />
    <g
       id="g1800" />
    <g
       id="g1802" />
  </g>
  <metadata
     id="metadata2627">
    <rdf:RDF>
      <cc:Work
         rdf:about="">
        <dc:title>SVG Image created as music-module-brd.svg date 2024/04/20 08:41:54 </dc:title>
      </cc:Work>
    </rdf:RDF>
  </metadata>
</svg>
