<?xml version="1.0" encoding="UTF-8" standalone="no"?>
<!-- Created with Inkscape (http://www.inkscape.org/) -->

<svg
   width="56.147999mm"
   height="33.238655mm"
   viewBox="0 0 56.147999 33.238655"
   version="1.1"
   id="svg1"
   inkscape:version="1.3.2 (1:1.3.2+202404261509+091e20ef0f)"
   sodipodi:docname="electronic-limit-sw-wiring.svg"
   inkscape:export-filename="electronic-limit-sw-wiring.png"
   inkscape:export-xdpi="229.25116"
   inkscape:export-ydpi="229.25116"
   xmlns:inkscape="http://www.inkscape.org/namespaces/inkscape"
   xmlns:sodipodi="http://sodipodi.sourceforge.net/DTD/sodipodi-0.dtd"
   xmlns="http://www.w3.org/2000/svg"
   xmlns:svg="http://www.w3.org/2000/svg">
  <sodipodi:namedview
     id="namedview1"
     pagecolor="#ffffff"
     bordercolor="#000000"
     borderopacity="0.25"
     inkscape:showpageshadow="2"
     inkscape:pageopacity="0.0"
     inkscape:pagecheckerboard="0"
     inkscape:deskcolor="#d1d1d1"
     inkscape:document-units="mm"
     inkscape:zoom="2.8792368"
     inkscape:cx="71.894051"
     inkscape:cy="50.360567"
     inkscape:window-width="1846"
     inkscape:window-height="1011"
     inkscape:window-x="0"
     inkscape:window-y="0"
     inkscape:window-maximized="1"
     inkscape:current-layer="layer1" />
  <defs
     id="defs1">
    <rect
       x="12.277495"
       y="18.023259"
       width="17.373451"
       height="18.379445"
       id="rect1" />
  </defs>
  <g
     inkscape:label="Layer 1"
     inkscape:groupmode="layer"
     id="layer1"
     transform="translate(-40.427717,-33.893846)">
    <g
       id="g1"
       transform="translate(7.564926)">
      <path
         style="fill:none;stroke:#1e53ac;stroke-width:0.513465;stroke-dasharray:none;stroke-opacity:1"
         d="m 61.427327,48.0825 h 8.229789"
         id="path1" />
      <path
         style="fill:none;stroke:#a05a2c;stroke-width:0.5;stroke-dasharray:none;stroke-opacity:1"
         d="M 41.171249,63.402015 H 69.657116"
         id="path4" />
      <path
         style="fill:none;stroke:#1e53ac;stroke-width:0.5;stroke-dasharray:none;stroke-opacity:1"
         d="M 41.171249,40.534347 H 69.793333"
         id="path3" />
      <path
         style="fill:none;stroke:#a05a2c;stroke-width:0.513465;stroke-dasharray:none;stroke-opacity:1"
         d="m 61.427327,55.7025 h 8.229789"
         id="path2" />
      <path
         style="fill:#000000;fill-opacity:1;fill-rule:evenodd;stroke:none;stroke-width:1.8;stroke-linecap:round;stroke-linejoin:round;stroke-opacity:1"
         d="m 68.893333,65.1225 -0.1408,-0.0111 -0.1817,-0.0487 -0.1677,-0.0854 -0.1462,-0.1184 -0.1184,-0.1462 -0.0854,-0.1677 -0.0487,-0.1817 -0.0111,-0.1408 v -1.8 l 0.0111,-0.1408 0.0487,-0.1817 0.0854,-0.1677 0.1184,-0.1462 0.1462,-0.1184 0.1677,-0.0854 0.1817,-0.0487 0.1408,-0.0111 h 1.8 l 0.1408,0.0111 0.1817,0.0487 0.1677,0.0854 0.1462,0.1184 0.1184,0.1462 0.0854,0.1677 0.0487,0.1817 0.0111,0.1408 v 1.8 l -0.0111,0.1408 -0.0487,0.1817 -0.0854,0.1677 -0.1184,0.1462 -0.1462,0.1184 -0.1677,0.0854 -0.1817,0.0487 -0.1408,0.0111 z"
         id="path53" />
      <path
         style="fill:#000000;fill-opacity:1;fill-rule:evenodd;stroke:none;stroke-width:1.8;stroke-linecap:round;stroke-linejoin:round;stroke-opacity:1"
         d="m 68.893333,57.5025 -0.1408,-0.0111 -0.1817,-0.0487 -0.1677,-0.0854 -0.1462,-0.1184 -0.1184,-0.1462 -0.0854,-0.1677 -0.0487,-0.1817 -0.0111,-0.1408 v -1.8 l 0.0111,-0.1408 0.0487,-0.1817 0.0854,-0.1677 0.1184,-0.1462 0.1462,-0.1184 0.1677,-0.0854 0.1817,-0.0487 0.1408,-0.0111 h 1.8 l 0.1408,0.0111 0.1817,0.0487 0.1677,0.0854 0.1462,0.1184 0.1184,0.1462 0.0854,0.1677 0.0487,0.1817 0.0111,0.1408 v 1.8 l -0.0111,0.1408 -0.0487,0.1817 -0.0854,0.1677 -0.1184,0.1462 -0.1462,0.1184 -0.1677,0.0854 -0.1817,0.0487 -0.1408,0.0111 z"
         id="path54" />
      <path
         style="fill:#000000;fill-opacity:1;fill-rule:evenodd;stroke:none;stroke-width:1.8;stroke-linecap:round;stroke-linejoin:round;stroke-opacity:1"
         d="m 68.893333,49.8825 -0.1408,-0.0111 -0.1817,-0.0487 -0.1677,-0.0854 -0.1462,-0.1184 -0.1184,-0.1462 -0.0854,-0.1677 -0.0487,-0.1817 -0.0111,-0.1408 v -1.8 l 0.0111,-0.1408 0.0487,-0.1817 0.0854,-0.1677 0.1184,-0.1462 0.1462,-0.1184 0.1677,-0.0854 0.1817,-0.0487 0.1408,-0.0111 h 1.8 l 0.1408,0.0111 0.1817,0.0487 0.1677,0.0854 0.1462,0.1184 0.1184,0.1462 0.0854,0.1677 0.0487,0.1817 0.0111,0.1408 v 1.8 l -0.0111,0.1408 -0.0487,0.1817 -0.0854,0.1677 -0.1184,0.1462 -0.1462,0.1184 -0.1677,0.0854 -0.1817,0.0487 -0.1408,0.0111 z"
         id="path55" />
      <path
         style="fill:#000000;fill-opacity:1;fill-rule:evenodd;stroke:none;stroke-width:1.8;stroke-linecap:round;stroke-linejoin:round;stroke-opacity:1"
         d="m 68.893333,42.2625 -0.1408,-0.0111 -0.1817,-0.0487 -0.1677,-0.0854 -0.1462,-0.1184 -0.1184,-0.1462 -0.0854,-0.1677 -0.0487,-0.1817 -0.0111,-0.1408 v -1.8 l 0.0111,-0.1408 0.0487,-0.1817 0.0854,-0.1677 0.1184,-0.1462 0.1462,-0.1184 0.1677,-0.0854 0.1817,-0.0487 0.1408,-0.0111 h 1.8 l 0.1408,0.0111 0.1817,0.0487 0.1677,0.0854 0.1462,0.1184 0.1184,0.1462 0.0854,0.1677 0.0487,0.1817 0.0111,0.1408 v 1.8 l -0.0111,0.1408 -0.0487,0.1817 -0.0854,0.1677 -0.1184,0.1462 -0.1462,0.1184 -0.1677,0.0854 -0.1817,0.0487 -0.1408,0.0111 z"
         id="path56" />
      <path
         d="m 71.793333,44.3225 h 4.5"
         id="path999"
         style="fill:none;stroke:#000000;stroke-width:0.12;stroke-linecap:round;stroke-linejoin:round;stroke-opacity:1" />
      <path
         d="m 71.793333,51.8225 h 4.5"
         id="path1000"
         style="fill:none;stroke:#000000;stroke-width:0.12;stroke-linecap:round;stroke-linejoin:round;stroke-opacity:1" />
      <path
         d="m 71.793333,59.8225 h 4.5"
         id="path1001"
         style="fill:none;stroke:#000000;stroke-width:0.12;stroke-linecap:round;stroke-linejoin:round;stroke-opacity:1" />
      <path
         style="fill:none;stroke:#000000;stroke-width:0.12;stroke-linecap:round;stroke-linejoin:round;stroke-opacity:1"
         d="m 67.793333,67.0725 h 12 v -30.5 h -12 z"
         id="path1002" />
      <g
         id="g1181"
         transform="translate(-23.106667,-45.5175)">
        <circle
           style="fill:#ffffff;stroke:#000000;stroke-width:0.450001"
           id="path1179"
           cx="98.371536"
           cy="85.980003"
           r="2.1969669" />
        <path
           style="fill:#ffffff;stroke:#000000;stroke-width:0.450001"
           d="m 96.905636,87.496231 3.165994,-3.032456"
           id="path1180" />
      </g>
      <g
         id="g1182"
         transform="translate(-23.106667,-37.907503)">
        <circle
           style="fill:#ffffff;stroke:#000000;stroke-width:0.450001"
           id="circle1181"
           cx="98.371536"
           cy="85.980003"
           r="2.1969669" />
        <path
           style="fill:#ffffff;stroke:#000000;stroke-width:0.450001"
           d="m 96.905636,87.496231 3.165994,-3.032456"
           id="path1181" />
      </g>
      <g
         id="g1183"
         transform="translate(-23.357436,-30.297507)">
        <circle
           style="fill:#ffffff;stroke:#000000;stroke-width:0.450001"
           id="circle1182"
           cx="98.371536"
           cy="85.980003"
           r="2.1969669" />
        <path
           style="fill:#ffffff;stroke:#000000;stroke-width:0.450001"
           d="m 96.905636,87.496231 3.165994,-3.032456"
           id="path1182" />
      </g>
      <g
         id="g1184"
         transform="translate(-23.240339,-22.687511)">
        <circle
           style="fill:#ffffff;stroke:#000000;stroke-width:0.450001"
           id="circle1183"
           cx="98.371536"
           cy="85.980003"
           r="2.1969669" />
        <path
           style="fill:#ffffff;stroke:#000000;stroke-width:0.450001"
           d="m 96.905636,87.496231 3.165994,-3.032456"
           id="path1183" />
      </g>
      <g
         id="g66"
         transform="matrix(0.02787158,0,0,0.02941596,38.059652,39.945019)">
        <path
           class="st5"
           d="m 97.36677,442.62828 c -10.4,-14.1 -12.5,-31.4 -12.4,-43.5 v -1.4 c 0.1,-11.2 0.2,-28 13.9,-41.7 0.4,-0.4 0.9,-0.8 1.4,-1.1 4.1,-2.5 13.3,-3.1 74,-3.1 h 13.1 c 0.1,-12 0.2,-23.6 0.4,-35.4 0.2,-13.5 0.3,-27.5 0.4,-42.5 0.3,-36.2 14.3,-55.2 22.6,-63.4 17.1,-16.7 49.3,-17.2 66.6,-17.5 75.4,-1.2 152.1,-0.8 226.3,-0.4 63.9,0.3 129.6,0.7 194.8,0 h 0.1 0.1 v 0 c 10.4,-0.1 20.7,-0.2 31.1,-0.4 26.4,-0.4 62.6,-1 89.1,18.9 35.3,26.6 38.8,75 37.4,123.3 -0.9,28.7 -0.7,52.2 -0.5,75 0.2,22.9 0.4,46.5 -0.5,75.5 -1.2,41.2 -5.4,87.3 -38.6,113.3 -24.4,19 -58.1,18.9 -87.9,18.7 h -6 c -189.16057,2.061 -133.5,1.3 -397.5,0.5 -15.4,-0.6 -31,-1.3 -46.9,-2.2 -13.5,-0.7 -28.8,-1.6 -42.5,-8.4 -21.9,-10.9 -35.2,-27.8 -41.8,-53.1 -5.7,-21.9 -5.9,-47.5 -6.1,-77 0,-6.2 -0.1,-12.6 -0.2,-19 -0.1,-3.8 -0.1,-7.5 -0.1,-11.1 -7.7,-0.1 -15.5,-0.1 -23.7,-0.1 -20.4,-0.1 -41.4,-0.2 -60.8,-0.8 -2.3,-0.2 -4.4,-1.3 -5.8,-3.1 z m 643.3,159.3 c 24.8,-0.1 49.2,-1.9 66.6,-15.6 28.2,-22 31.7,-64.1 32.9,-101.9 0.9,-28.7 0.7,-52.2 0.5,-75 -0.2,-22.9 -0.4,-46.5 0.5,-75.5 1.3,-44.3 -1.5,-88.3 -31.4,-110.8 -18.8,-14.2 -43.4,-16.2 -71.3,-16 -3.7,131 -2.9,263.8 2.2,394.8 z m -37.5,0 c 4.8,0 9.6,-0.1 14.4,-0.1 h 8.1 c -5.1,-130.9 -5.9,-263.6 -2.3,-394.6 -5.8,0.1 -11.6,0.2 -17.4,0.2 l -0.1,7.9 c -0.9,128.9 -1.8,257.8 -2.7,386.6 z m -9.8,15.1 c -36.4,0.3 -70.7,0.8 -104.1,1.2 -47.3,0.7 -91.8,1.3 -136,1.3 -33,0 -65.8,-0.3 -99.4,-1.3 z m -490.8,-177.9 c 0,0 0,0.1 0,0 0,0.1 0,0.1 0,0 0.1,5.9 0.1,11.9 0.2,18.2 0.1,6.5 0.1,13 0.2,19.2 0.3,56.5 0.6,97.3 39.5,116.8 10.9,5.4 24,6.2 36.6,6.8 108.1,5.9 201.6,4.6 310,3.1 31.8,-0.4 64.5,-0.9 99.1,-1.2 0.9,-128.9 1.8,-257.9 2.7,-386.8 l 0.1,-7.6 c -62.8,0.6 -125.9,0.2 -187.4,-0.1 -74.1,-0.4 -150.7,-0.8 -225.9,0.4 -15.2,0.2 -43.5,0.7 -56.3,13.2 -11.3,11.1 -17.9,30.3 -18.1,52.8 -0.1,15 -0.3,29 -0.4,42.5 -0.2,14.2 -0.3,28.1 -0.4,42.7 v 0.1 0.1 c -0.3,23.5 -0.3,48.8 0.1,79.8 z m -102.6,-39.9 c -0.1,8.9 1.2,21.3 7.5,31.5 18.1,0.5 37.6,0.6 56.5,0.7 7.8,0 15.7,0.1 23.5,0.1 -0.2,-24.5 -0.2,-45.3 -0.1,-64.7 h -13 c -23.3,0 -57.8,-0.1 -66.1,1.2 -8.1,9.1 -8.2,20.1 -8.2,29.8 z"
           id="path19"
           sodipodi:nodetypes="cccscscccccccccscccccccccccccccccccccccccccscccccccscccccccccccccccccccccccccccsccc"
           style="fill:#222222" />
        <rect
           style="fill:#000000;stroke-width:1.91246"
           id="rect61"
           width="417.35825"
           height="14.018811"
           x="245.26651"
           y="273.94641" />
        <rect
           style="fill:#000000;stroke-width:1.91246"
           id="rect62"
           width="417.35825"
           height="14.018811"
           x="245.26651"
           y="326.74628" />
        <rect
           style="fill:#000000;stroke-width:1.91246"
           id="rect63"
           width="417.35825"
           height="14.018811"
           x="245.26651"
           y="377.14615" />
        <rect
           style="fill:#000000;stroke-width:1.91246"
           id="rect64"
           width="417.35825"
           height="14.018811"
           x="245.26651"
           y="429.94601" />
        <rect
           style="fill:#000000;stroke-width:1.91246"
           id="rect65"
           width="417.35825"
           height="14.018811"
           x="245.26651"
           y="477.94589" />
        <rect
           style="fill:#000000;stroke-width:1.91246"
           id="rect66"
           width="417.35825"
           height="14.018811"
           x="245.26651"
           y="530.74597" />
      </g>
      <text
         xml:space="preserve"
         style="font-size:2.11667px;font-family:'OCR B';-inkscape-font-specification:'OCR B';fill:none;stroke:#a05a2c;stroke-width:0.499999;stroke-dasharray:none;stroke-opacity:1"
         x="72.554092"
         y="35.523682"
         id="text4"><tspan
           sodipodi:role="line"
           id="tspan4"
           style="font-size:2.11667px;fill:#000000;fill-opacity:1;stroke:none;stroke-width:0.5"
           x="72.554092"
           y="35.523682">J4</tspan></text>
      <text
         xml:space="preserve"
         style="font-size:2.11667px;font-family:'OCR B';-inkscape-font-specification:'OCR B';fill:none;stroke:#a05a2c;stroke-width:0.499999;stroke-dasharray:none;stroke-opacity:1"
         x="81.157242"
         y="41.036026"
         id="text4-5"><tspan
           sodipodi:role="line"
           id="tspan4-9"
           style="font-size:2.11667px;fill:#000000;fill-opacity:1;stroke:none;stroke-width:0.5"
           x="81.157242"
           y="41.036026">N</tspan></text>
      <text
         xml:space="preserve"
         style="font-size:2.11667px;font-family:'OCR B';-inkscape-font-specification:'OCR B';fill:none;stroke:#a05a2c;stroke-width:0.499999;stroke-dasharray:none;stroke-opacity:1"
         x="81.157242"
         y="48.847233"
         id="text5"><tspan
           sodipodi:role="line"
           id="tspan5"
           style="font-size:2.11667px;fill:#000000;fill-opacity:1;stroke:none;stroke-width:0.5"
           x="81.157242"
           y="48.847233">N</tspan></text>
      <text
         xml:space="preserve"
         style="font-size:2.11667px;font-family:'OCR B';-inkscape-font-specification:'OCR B';fill:none;stroke:#a05a2c;stroke-width:0.499999;stroke-dasharray:none;stroke-opacity:1"
         x="81.157242"
         y="56.255573"
         id="text6"><tspan
           sodipodi:role="line"
           id="tspan6"
           style="font-size:2.11667px;fill:#000000;fill-opacity:1;stroke:none;stroke-width:0.5"
           x="81.157242"
           y="56.255573">CNT-L</tspan></text>
      <text
         xml:space="preserve"
         style="font-size:2.11667px;font-family:'OCR B';-inkscape-font-specification:'OCR B';fill:none;stroke:#a05a2c;stroke-width:0.499999;stroke-dasharray:none;stroke-opacity:1"
         x="81.157242"
         y="64.193077"
         id="text7"><tspan
           sodipodi:role="line"
           id="tspan7"
           style="font-size:2.11667px;fill:#000000;fill-opacity:1;stroke:none;stroke-width:0.5"
           x="81.157242"
           y="64.193077">L</tspan></text>
    </g>
    <text
       xml:space="preserve"
       transform="matrix(0.26458333,0,0,0.26458333,40.427717,33.893846)"
       id="text1"
       style="font-weight:bold;font-size:13.3333px;font-family:Tuffy;-inkscape-font-specification:'Tuffy Bold';text-align:end;white-space:pre;shape-inside:url(#rect1);display:inline;fill:#ffffff;stroke:#ffffff;stroke-width:0.944882;stroke-dasharray:0.944882, 1.88976" />
    <ellipse
       style="fill:#000000;stroke:#000000;stroke-width:0.274775;stroke-dasharray:none"
       id="path6"
       cx="44.223583"
       cy="40.768013"
       rx="2.6126125"
       ry="2.6125419" />
    <ellipse
       style="fill:#000000;stroke:#000000;stroke-width:0.274775;stroke-dasharray:none"
       id="path6-3"
       cx="44.223583"
       cy="51.975792"
       rx="2.6126125"
       ry="2.6125419" />
    <ellipse
       style="fill:#000000;stroke:#000000;stroke-width:0.274775;stroke-dasharray:none"
       id="path6-3-1"
       cx="44.223583"
       cy="63.183567"
       rx="2.6126125"
       ry="2.6125419" />
    <text
       xml:space="preserve"
       style="font-weight:bold;font-size:3.52777px;font-family:Tuffy;-inkscape-font-specification:'Tuffy Bold';text-align:end;text-anchor:end;fill:#ffffff;stroke:none;stroke-width:0.25;stroke-dasharray:none"
       x="45.410168"
       y="41.925869"
       id="text8"><tspan
         sodipodi:role="line"
         id="tspan8"
         style="fill:#ffffff;stroke:none;stroke-width:0.25"
         x="45.410168"
         y="41.925869">A</tspan></text>
    <text
       xml:space="preserve"
       style="font-weight:bold;font-size:3.52777px;font-family:Tuffy;-inkscape-font-specification:'Tuffy Bold';text-align:end;text-anchor:end;fill:#ffffff;stroke:none;stroke-width:0.25;stroke-dasharray:none"
       x="45.388168"
       y="64.433868"
       id="text8-3"><tspan
         sodipodi:role="line"
         id="tspan8-6"
         style="fill:#ffffff;stroke:none;stroke-width:0.25"
         x="45.388168"
         y="64.433868">B</tspan></text>
    <text
       xml:space="preserve"
       style="font-weight:bold;font-size:3.52777px;font-family:Tuffy;-inkscape-font-specification:'Tuffy Bold';text-align:end;text-anchor:end;fill:#ffffff;stroke:none;stroke-width:0.25;stroke-dasharray:none"
       x="45.431694"
       y="53.229805"
       id="text8-3-1"><tspan
         sodipodi:role="line"
         id="tspan8-6-8"
         style="fill:#ffffff;stroke:none;stroke-width:0.25"
         x="45.431694"
         y="53.229805">C</tspan></text>
  </g>
</svg>
