%TF.GenerationSoftware,KiCad,Pcbnew,7.0.7-7.0.7~ubuntu22.04.1*%
%TF.CreationDate,2024-01-12T18:41:48+05:30*%
%TF.ProjectId,electronic-limit-sw,656c6563-7472-46f6-9e69-632d6c696d69,1.0.0*%
%TF.SameCoordinates,Original*%
%TF.FileFunction,Copper,L2,Bot*%
%TF.FilePolarity,Positive*%
%FSLAX46Y46*%
G04 Gerber Fmt 4.6, Leading zero omitted, Abs format (unit mm)*
G04 Created by KiCad (PCBNEW 7.0.7-7.0.7~ubuntu22.04.1) date 2024-01-12 18:41:48*
%MOMM*%
%LPD*%
G01*
G04 APERTURE LIST*
G04 Aperture macros list*
%AMRoundRect*
0 Rectangle with rounded corners*
0 $1 Rounding radius*
0 $2 $3 $4 $5 $6 $7 $8 $9 X,Y pos of 4 corners*
0 Add a 4 corners polygon primitive as box body*
4,1,4,$2,$3,$4,$5,$6,$7,$8,$9,$2,$3,0*
0 Add four circle primitives for the rounded corners*
1,1,$1+$1,$2,$3*
1,1,$1+$1,$4,$5*
1,1,$1+$1,$6,$7*
1,1,$1+$1,$8,$9*
0 Add four rect primitives between the rounded corners*
20,1,$1+$1,$2,$3,$4,$5,0*
20,1,$1+$1,$4,$5,$6,$7,0*
20,1,$1+$1,$6,$7,$8,$9,0*
20,1,$1+$1,$8,$9,$2,$3,0*%
G04 Aperture macros list end*
%TA.AperFunction,ComponentPad*%
%ADD10C,2.000000*%
%TD*%
%TA.AperFunction,ComponentPad*%
%ADD11C,2.400000*%
%TD*%
%TA.AperFunction,ComponentPad*%
%ADD12O,2.400000X2.400000*%
%TD*%
%TA.AperFunction,ComponentPad*%
%ADD13R,2.500000X2.500000*%
%TD*%
%TA.AperFunction,ComponentPad*%
%ADD14O,2.500000X2.500000*%
%TD*%
%TA.AperFunction,ComponentPad*%
%ADD15RoundRect,0.500000X-0.500000X-0.500000X0.500000X-0.500000X0.500000X0.500000X-0.500000X0.500000X0*%
%TD*%
%TA.AperFunction,ComponentPad*%
%ADD16C,1.600000*%
%TD*%
%TA.AperFunction,ComponentPad*%
%ADD17C,1.800000*%
%TD*%
%TA.AperFunction,ComponentPad*%
%ADD18RoundRect,0.250000X-1.550000X0.650000X-1.550000X-0.650000X1.550000X-0.650000X1.550000X0.650000X0*%
%TD*%
%TA.AperFunction,ComponentPad*%
%ADD19O,3.600000X1.800000*%
%TD*%
%TA.AperFunction,ComponentPad*%
%ADD20RoundRect,0.550000X-0.550000X-0.550000X0.550000X-0.550000X0.550000X0.550000X-0.550000X0.550000X0*%
%TD*%
%TA.AperFunction,ComponentPad*%
%ADD21RoundRect,0.900000X0.900000X-0.900000X0.900000X0.900000X-0.900000X0.900000X-0.900000X-0.900000X0*%
%TD*%
%TA.AperFunction,ViaPad*%
%ADD22C,0.800000*%
%TD*%
%TA.AperFunction,Conductor*%
%ADD23C,1.500000*%
%TD*%
%TA.AperFunction,Conductor*%
%ADD24C,0.250000*%
%TD*%
%TA.AperFunction,Conductor*%
%ADD25C,0.500000*%
%TD*%
G04 APERTURE END LIST*
D10*
%TO.P,F1,1*%
%TO.N,/AC-L*%
X107300000Y-94800000D03*
%TO.P,F1,2*%
%TO.N,Net-(C1-Pad1)*%
X112380000Y-94800000D03*
%TD*%
D11*
%TO.P,R3,1*%
%TO.N,/AC-L-CNT*%
X105290000Y-102650000D03*
D12*
%TO.P,R3,2*%
%TO.N,Net-(C2-Pad1)*%
X125610000Y-102650000D03*
%TD*%
D13*
%TO.P,RL1,1*%
%TO.N,+5V*%
X154300000Y-102200000D03*
D14*
%TO.P,RL1,2*%
%TO.N,unconnected-(RL1-Pad2)*%
X139300000Y-102200000D03*
%TO.P,RL1,3*%
%TO.N,/AC-L*%
X134300000Y-102200000D03*
%TO.P,RL1,4*%
%TO.N,/AC-L-CNT*%
X129300000Y-102200000D03*
%TO.P,RL1,5*%
X129300000Y-109700000D03*
%TO.P,RL1,6*%
%TO.N,/AC-L*%
X134300000Y-109700000D03*
%TO.P,RL1,7*%
%TO.N,unconnected-(RL1-Pad7)*%
X139300000Y-109700000D03*
%TO.P,RL1,8*%
%TO.N,Net-(D5-A)*%
X154300000Y-109700000D03*
%TD*%
D15*
%TO.P,FL1,1,1*%
%TO.N,/AC-N*%
X124440000Y-86500000D03*
%TO.P,FL1,2,2*%
%TO.N,Net-(PS1-AC{slash}N)*%
X131440000Y-86500000D03*
%TO.P,FL1,3,3*%
%TO.N,Net-(C1-Pad1)*%
X124440000Y-94500000D03*
%TO.P,FL1,4,4*%
%TO.N,Net-(PS1-AC{slash}L)*%
X131440000Y-94500000D03*
%TD*%
D16*
%TO.P,C1,1*%
%TO.N,Net-(C1-Pad1)*%
X119300000Y-97500000D03*
%TO.P,C1,2*%
%TO.N,/AC-N*%
X119300000Y-87500000D03*
%TD*%
%TO.P,C2,1*%
%TO.N,Net-(C2-Pad1)*%
X116000000Y-109950000D03*
%TO.P,C2,2*%
%TO.N,/AC-L*%
X106000000Y-109950000D03*
%TD*%
D17*
%TO.P,TH1,1*%
%TO.N,Net-(C1-Pad1)*%
X113900000Y-88600000D03*
%TO.P,TH1,2*%
%TO.N,/AC-N*%
X106400000Y-86966670D03*
%TD*%
D18*
%TO.P,J1,1,Pin_1*%
%TO.N,Net-(J1-Pin_1)*%
X181500000Y-106100000D03*
D19*
%TO.P,J1,2,Pin_2*%
%TO.N,GND*%
X181500000Y-109600000D03*
%TD*%
D20*
%TO.P,PS1,1,AC/L*%
%TO.N,Net-(PS1-AC{slash}L)*%
X137957500Y-90457500D03*
%TO.P,PS1,2,AC/N*%
%TO.N,Net-(PS1-AC{slash}N)*%
X142957500Y-90457500D03*
D15*
%TO.P,PS1,3,-Vout*%
%TO.N,GND*%
X159457500Y-90457500D03*
%TO.P,PS1,4,+Vout*%
%TO.N,+5V*%
X161957500Y-90457500D03*
%TD*%
D21*
%TO.P,J4,1,Pin_1*%
%TO.N,/AC-L*%
X92900000Y-108840000D03*
%TO.P,J4,2,Pin_2*%
%TO.N,/AC-L-CNT*%
X92900000Y-101220000D03*
%TO.P,J4,3,Pin_3*%
%TO.N,/AC-N*%
X92900000Y-93600000D03*
%TO.P,J4,4,Pin_4*%
X92900000Y-85980000D03*
%TD*%
D18*
%TO.P,J2,1,Pin_1*%
%TO.N,Net-(J2-Pin_1)*%
X181500000Y-88800000D03*
D19*
%TO.P,J2,2,Pin_2*%
%TO.N,GND*%
X181500000Y-92300000D03*
%TD*%
D22*
%TO.N,GND*%
X173600000Y-95100000D03*
%TO.N,/ICSPCLK*%
X170850000Y-101500000D03*
X170700000Y-95050000D03*
%TO.N,/ICSPDAT*%
X170850000Y-100350000D03*
X164450000Y-99550000D03*
%TO.N,/~{MCLR}*%
X169950000Y-98600000D03*
X170800000Y-97100000D03*
%TO.N,/OUTPUT*%
X170026368Y-102066247D03*
X164050000Y-109150000D03*
%TD*%
D23*
%TO.N,Net-(C1-Pad1)*%
X124440000Y-94500000D02*
X124440000Y-96460000D01*
X113900000Y-88600000D02*
X113900000Y-91000000D01*
X119300000Y-97500000D02*
X119300000Y-96150000D01*
X123400000Y-97500000D02*
X119300000Y-97500000D01*
X113900000Y-91000000D02*
X112380000Y-92520000D01*
X112380000Y-94800000D02*
X117950000Y-94800000D01*
X124440000Y-96460000D02*
X123400000Y-97500000D01*
X119300000Y-96150000D02*
X117950000Y-94800000D01*
X112380000Y-92520000D02*
X112380000Y-94800000D01*
%TO.N,/AC-N*%
X92900000Y-85980000D02*
X100180000Y-85980000D01*
X123440000Y-87500000D02*
X124440000Y-86500000D01*
X116750000Y-87500000D02*
X119300000Y-87500000D01*
X106400000Y-86966670D02*
X108283330Y-86966670D01*
X115000000Y-85750000D02*
X116750000Y-87500000D01*
X119300000Y-87500000D02*
X123440000Y-87500000D01*
X100180000Y-85980000D02*
X101166670Y-86966670D01*
X109500000Y-85750000D02*
X115000000Y-85750000D01*
X92900000Y-93600000D02*
X92900000Y-85980000D01*
X101166670Y-86966670D02*
X106400000Y-86966670D01*
X108283330Y-86966670D02*
X109500000Y-85750000D01*
%TO.N,Net-(C2-Pad1)*%
X116000000Y-104900000D02*
X118250000Y-102650000D01*
X116000000Y-109950000D02*
X116000000Y-104900000D01*
X118250000Y-102650000D02*
X125610000Y-102650000D01*
%TO.N,/AC-L*%
X106000000Y-109950000D02*
X101350000Y-109950000D01*
X108300000Y-109950000D02*
X109950000Y-108300000D01*
X101350000Y-109950000D02*
X100240000Y-108840000D01*
X109950000Y-100250000D02*
X107300000Y-97600000D01*
X109950000Y-108300000D02*
X109950000Y-100250000D01*
X106000000Y-109950000D02*
X108300000Y-109950000D01*
X107300000Y-97600000D02*
X107300000Y-94800000D01*
X134300000Y-109700000D02*
X134300000Y-102200000D01*
X100240000Y-108840000D02*
X92900000Y-108840000D01*
D24*
%TO.N,GND*%
X173600000Y-95100000D02*
X180700000Y-95100000D01*
X180700000Y-95100000D02*
X181500000Y-94300000D01*
X181500000Y-94300000D02*
X181500000Y-92300000D01*
%TO.N,/ICSPCLK*%
X171650000Y-101500000D02*
X172200000Y-100950000D01*
X170700000Y-95050000D02*
X172200000Y-96550000D01*
X172200000Y-100950000D02*
X172200000Y-98500000D01*
X172200000Y-96550000D02*
X172200000Y-98500000D01*
X171650000Y-101500000D02*
X170850000Y-101500000D01*
D25*
%TO.N,/ICSPDAT*%
X165250000Y-100350000D02*
X164450000Y-99550000D01*
X170850000Y-100350000D02*
X165250000Y-100350000D01*
D23*
%TO.N,Net-(PS1-AC{slash}N)*%
X141500000Y-86500000D02*
X143000000Y-88000000D01*
X143000000Y-90415000D02*
X142957500Y-90457500D01*
X131440000Y-86500000D02*
X141500000Y-86500000D01*
X143000000Y-88000000D02*
X143000000Y-90415000D01*
%TO.N,Net-(PS1-AC{slash}L)*%
X131440000Y-94500000D02*
X136500000Y-94500000D01*
X136500000Y-94500000D02*
X137957500Y-93042500D01*
X137957500Y-93042500D02*
X137957500Y-90457500D01*
D24*
%TO.N,/~{MCLR}*%
X169950000Y-97950000D02*
X170800000Y-97100000D01*
X169950000Y-98600000D02*
X169950000Y-97950000D01*
D23*
%TO.N,/AC-L-CNT*%
X99820000Y-101220000D02*
X101250000Y-102650000D01*
X92900000Y-101220000D02*
X99820000Y-101220000D01*
X129300000Y-109700000D02*
X129300000Y-102200000D01*
X101250000Y-102650000D02*
X105290000Y-102650000D01*
D25*
%TO.N,/OUTPUT*%
X164050000Y-109150000D02*
X169200000Y-109150000D01*
D24*
X170026368Y-102066247D02*
X170050000Y-102089879D01*
D25*
X169200000Y-109150000D02*
X170026368Y-108323632D01*
X170026368Y-108323632D02*
X170026368Y-102066247D01*
%TD*%
M02*
