%TF.GenerationSoftware,KiCad,Pcbnew,7.0.7-7.0.7~ubuntu22.04.1*%
%TF.CreationDate,2024-01-12T18:41:48+05:30*%
%TF.ProjectId,electronic-limit-sw,656c6563-7472-46f6-9e69-632d6c696d69,1.0.0*%
%TF.SameCoordinates,Original*%
%TF.FileFunction,Legend,Bot*%
%TF.FilePolarity,Positive*%
%FSLAX46Y46*%
G04 Gerber Fmt 4.6, Leading zero omitted, Abs format (unit mm)*
G04 Created by KiCad (PCBNEW 7.0.7-7.0.7~ubuntu22.04.1) date 2024-01-12 18:41:48*
%MOMM*%
%LPD*%
G01*
G04 APERTURE LIST*
%ADD10C,0.150000*%
%ADD11C,1.000000*%
%ADD12C,0.250000*%
%ADD13C,0.500000*%
G04 APERTURE END LIST*
D10*
X151590000Y-86270000D02*
X151590000Y-81670000D01*
D11*
X89470000Y-111180000D02*
X89470000Y-79790000D01*
X186558320Y-79832905D02*
G75*
G03*
X184858346Y-77832906I-1930820J81305D01*
G01*
X186500000Y-111200000D02*
X186558346Y-79832906D01*
X91350000Y-113030000D02*
X184310000Y-113030000D01*
D10*
X166490000Y-81670000D02*
X166490000Y-86270000D01*
X166490000Y-84270000D02*
X156390000Y-84270000D01*
X151590000Y-81670000D02*
X155290000Y-81670000D01*
X156390000Y-81670000D02*
X156390000Y-86270000D01*
X155290000Y-81670000D02*
X166490000Y-81670000D01*
X166490000Y-86270000D02*
X151590000Y-86270000D01*
D11*
X184467095Y-113058320D02*
G75*
G03*
X186467094Y-111358346I81305J1930820D01*
G01*
X91358346Y-77832906D02*
X184858346Y-77832906D01*
X91329999Y-77850034D02*
G75*
G03*
X89465865Y-79637704I-67899J-1794966D01*
G01*
X89518163Y-111079124D02*
G75*
G03*
X91268099Y-113019121I1845137J-94876D01*
G01*
D10*
X165247142Y-85924819D02*
X165580475Y-85448628D01*
X165818570Y-85924819D02*
X165818570Y-84924819D01*
X165818570Y-84924819D02*
X165437618Y-84924819D01*
X165437618Y-84924819D02*
X165342380Y-84972438D01*
X165342380Y-84972438D02*
X165294761Y-85020057D01*
X165294761Y-85020057D02*
X165247142Y-85115295D01*
X165247142Y-85115295D02*
X165247142Y-85258152D01*
X165247142Y-85258152D02*
X165294761Y-85353390D01*
X165294761Y-85353390D02*
X165342380Y-85401009D01*
X165342380Y-85401009D02*
X165437618Y-85448628D01*
X165437618Y-85448628D02*
X165818570Y-85448628D01*
X164818570Y-85401009D02*
X164485237Y-85401009D01*
X164342380Y-85924819D02*
X164818570Y-85924819D01*
X164818570Y-85924819D02*
X164818570Y-84924819D01*
X164818570Y-84924819D02*
X164342380Y-84924819D01*
X164056665Y-84924819D02*
X163723332Y-85924819D01*
X163723332Y-85924819D02*
X163389999Y-84924819D01*
X161770951Y-85924819D02*
X162342379Y-85924819D01*
X162056665Y-85924819D02*
X162056665Y-84924819D01*
X162056665Y-84924819D02*
X162151903Y-85067676D01*
X162151903Y-85067676D02*
X162247141Y-85162914D01*
X162247141Y-85162914D02*
X162342379Y-85210533D01*
X161342379Y-85829580D02*
X161294760Y-85877200D01*
X161294760Y-85877200D02*
X161342379Y-85924819D01*
X161342379Y-85924819D02*
X161389998Y-85877200D01*
X161389998Y-85877200D02*
X161342379Y-85829580D01*
X161342379Y-85829580D02*
X161342379Y-85924819D01*
X160675713Y-84924819D02*
X160580475Y-84924819D01*
X160580475Y-84924819D02*
X160485237Y-84972438D01*
X160485237Y-84972438D02*
X160437618Y-85020057D01*
X160437618Y-85020057D02*
X160389999Y-85115295D01*
X160389999Y-85115295D02*
X160342380Y-85305771D01*
X160342380Y-85305771D02*
X160342380Y-85543866D01*
X160342380Y-85543866D02*
X160389999Y-85734342D01*
X160389999Y-85734342D02*
X160437618Y-85829580D01*
X160437618Y-85829580D02*
X160485237Y-85877200D01*
X160485237Y-85877200D02*
X160580475Y-85924819D01*
X160580475Y-85924819D02*
X160675713Y-85924819D01*
X160675713Y-85924819D02*
X160770951Y-85877200D01*
X160770951Y-85877200D02*
X160818570Y-85829580D01*
X160818570Y-85829580D02*
X160866189Y-85734342D01*
X160866189Y-85734342D02*
X160913808Y-85543866D01*
X160913808Y-85543866D02*
X160913808Y-85305771D01*
X160913808Y-85305771D02*
X160866189Y-85115295D01*
X160866189Y-85115295D02*
X160818570Y-85020057D01*
X160818570Y-85020057D02*
X160770951Y-84972438D01*
X160770951Y-84972438D02*
X160675713Y-84924819D01*
X159913808Y-85829580D02*
X159866189Y-85877200D01*
X159866189Y-85877200D02*
X159913808Y-85924819D01*
X159913808Y-85924819D02*
X159961427Y-85877200D01*
X159961427Y-85877200D02*
X159913808Y-85829580D01*
X159913808Y-85829580D02*
X159913808Y-85924819D01*
X159247142Y-84924819D02*
X159151904Y-84924819D01*
X159151904Y-84924819D02*
X159056666Y-84972438D01*
X159056666Y-84972438D02*
X159009047Y-85020057D01*
X159009047Y-85020057D02*
X158961428Y-85115295D01*
X158961428Y-85115295D02*
X158913809Y-85305771D01*
X158913809Y-85305771D02*
X158913809Y-85543866D01*
X158913809Y-85543866D02*
X158961428Y-85734342D01*
X158961428Y-85734342D02*
X159009047Y-85829580D01*
X159009047Y-85829580D02*
X159056666Y-85877200D01*
X159056666Y-85877200D02*
X159151904Y-85924819D01*
X159151904Y-85924819D02*
X159247142Y-85924819D01*
X159247142Y-85924819D02*
X159342380Y-85877200D01*
X159342380Y-85877200D02*
X159389999Y-85829580D01*
X159389999Y-85829580D02*
X159437618Y-85734342D01*
X159437618Y-85734342D02*
X159485237Y-85543866D01*
X159485237Y-85543866D02*
X159485237Y-85305771D01*
X159485237Y-85305771D02*
X159437618Y-85115295D01*
X159437618Y-85115295D02*
X159389999Y-85020057D01*
X159389999Y-85020057D02*
X159342380Y-84972438D01*
X159342380Y-84972438D02*
X159247142Y-84924819D01*
D12*
X147344714Y-79579273D02*
X147047095Y-80829273D01*
X147047095Y-80829273D02*
X146809000Y-79936416D01*
X146809000Y-79936416D02*
X146570905Y-80829273D01*
X146570905Y-80829273D02*
X146273286Y-79579273D01*
X145856619Y-80472130D02*
X145261381Y-80472130D01*
X145975667Y-80829273D02*
X145559000Y-79579273D01*
X145559000Y-79579273D02*
X145142334Y-80829273D01*
X144011381Y-80829273D02*
X144428047Y-80234035D01*
X144725666Y-80829273D02*
X144725666Y-79579273D01*
X144725666Y-79579273D02*
X144249476Y-79579273D01*
X144249476Y-79579273D02*
X144130428Y-79638797D01*
X144130428Y-79638797D02*
X144070905Y-79698321D01*
X144070905Y-79698321D02*
X144011381Y-79817369D01*
X144011381Y-79817369D02*
X144011381Y-79995940D01*
X144011381Y-79995940D02*
X144070905Y-80114988D01*
X144070905Y-80114988D02*
X144130428Y-80174511D01*
X144130428Y-80174511D02*
X144249476Y-80234035D01*
X144249476Y-80234035D02*
X144725666Y-80234035D01*
X143475666Y-80829273D02*
X143475666Y-79579273D01*
X143475666Y-79579273D02*
X142761381Y-80829273D01*
X142761381Y-80829273D02*
X142761381Y-79579273D01*
X142166142Y-80829273D02*
X142166142Y-79579273D01*
X141570904Y-80829273D02*
X141570904Y-79579273D01*
X141570904Y-79579273D02*
X140856619Y-80829273D01*
X140856619Y-80829273D02*
X140856619Y-79579273D01*
X139606619Y-79638797D02*
X139725666Y-79579273D01*
X139725666Y-79579273D02*
X139904238Y-79579273D01*
X139904238Y-79579273D02*
X140082809Y-79638797D01*
X140082809Y-79638797D02*
X140201857Y-79757845D01*
X140201857Y-79757845D02*
X140261380Y-79876892D01*
X140261380Y-79876892D02*
X140320904Y-80114988D01*
X140320904Y-80114988D02*
X140320904Y-80293559D01*
X140320904Y-80293559D02*
X140261380Y-80531654D01*
X140261380Y-80531654D02*
X140201857Y-80650702D01*
X140201857Y-80650702D02*
X140082809Y-80769750D01*
X140082809Y-80769750D02*
X139904238Y-80829273D01*
X139904238Y-80829273D02*
X139785190Y-80829273D01*
X139785190Y-80829273D02*
X139606619Y-80769750D01*
X139606619Y-80769750D02*
X139547095Y-80710226D01*
X139547095Y-80710226D02*
X139547095Y-80293559D01*
X139547095Y-80293559D02*
X139785190Y-80293559D01*
X139011380Y-80710226D02*
X138951857Y-80769750D01*
X138951857Y-80769750D02*
X139011380Y-80829273D01*
X139011380Y-80829273D02*
X139070904Y-80769750D01*
X139070904Y-80769750D02*
X139011380Y-80710226D01*
X139011380Y-80710226D02*
X139011380Y-80829273D01*
X139011380Y-80055464D02*
X138951857Y-80114988D01*
X138951857Y-80114988D02*
X139011380Y-80174511D01*
X139011380Y-80174511D02*
X139070904Y-80114988D01*
X139070904Y-80114988D02*
X139011380Y-80055464D01*
X139011380Y-80055464D02*
X139011380Y-80174511D01*
X137523285Y-80472130D02*
X136928047Y-80472130D01*
X137642333Y-80829273D02*
X137225666Y-79579273D01*
X137225666Y-79579273D02*
X136809000Y-80829273D01*
X135678047Y-80710226D02*
X135737571Y-80769750D01*
X135737571Y-80769750D02*
X135916142Y-80829273D01*
X135916142Y-80829273D02*
X136035190Y-80829273D01*
X136035190Y-80829273D02*
X136213761Y-80769750D01*
X136213761Y-80769750D02*
X136332809Y-80650702D01*
X136332809Y-80650702D02*
X136392332Y-80531654D01*
X136392332Y-80531654D02*
X136451856Y-80293559D01*
X136451856Y-80293559D02*
X136451856Y-80114988D01*
X136451856Y-80114988D02*
X136392332Y-79876892D01*
X136392332Y-79876892D02*
X136332809Y-79757845D01*
X136332809Y-79757845D02*
X136213761Y-79638797D01*
X136213761Y-79638797D02*
X136035190Y-79579273D01*
X136035190Y-79579273D02*
X135916142Y-79579273D01*
X135916142Y-79579273D02*
X135737571Y-79638797D01*
X135737571Y-79638797D02*
X135678047Y-79698321D01*
X134249475Y-79698321D02*
X134189951Y-79638797D01*
X134189951Y-79638797D02*
X134070904Y-79579273D01*
X134070904Y-79579273D02*
X133773285Y-79579273D01*
X133773285Y-79579273D02*
X133654237Y-79638797D01*
X133654237Y-79638797D02*
X133594713Y-79698321D01*
X133594713Y-79698321D02*
X133535190Y-79817369D01*
X133535190Y-79817369D02*
X133535190Y-79936416D01*
X133535190Y-79936416D02*
X133594713Y-80114988D01*
X133594713Y-80114988D02*
X134308999Y-80829273D01*
X134308999Y-80829273D02*
X133535190Y-80829273D01*
X133118523Y-79579273D02*
X132344714Y-79579273D01*
X132344714Y-79579273D02*
X132761380Y-80055464D01*
X132761380Y-80055464D02*
X132582809Y-80055464D01*
X132582809Y-80055464D02*
X132463761Y-80114988D01*
X132463761Y-80114988D02*
X132404237Y-80174511D01*
X132404237Y-80174511D02*
X132344714Y-80293559D01*
X132344714Y-80293559D02*
X132344714Y-80591178D01*
X132344714Y-80591178D02*
X132404237Y-80710226D01*
X132404237Y-80710226D02*
X132463761Y-80769750D01*
X132463761Y-80769750D02*
X132582809Y-80829273D01*
X132582809Y-80829273D02*
X132939952Y-80829273D01*
X132939952Y-80829273D02*
X133058999Y-80769750D01*
X133058999Y-80769750D02*
X133118523Y-80710226D01*
X131570904Y-79579273D02*
X131451857Y-79579273D01*
X131451857Y-79579273D02*
X131332809Y-79638797D01*
X131332809Y-79638797D02*
X131273285Y-79698321D01*
X131273285Y-79698321D02*
X131213761Y-79817369D01*
X131213761Y-79817369D02*
X131154238Y-80055464D01*
X131154238Y-80055464D02*
X131154238Y-80353083D01*
X131154238Y-80353083D02*
X131213761Y-80591178D01*
X131213761Y-80591178D02*
X131273285Y-80710226D01*
X131273285Y-80710226D02*
X131332809Y-80769750D01*
X131332809Y-80769750D02*
X131451857Y-80829273D01*
X131451857Y-80829273D02*
X131570904Y-80829273D01*
X131570904Y-80829273D02*
X131689952Y-80769750D01*
X131689952Y-80769750D02*
X131749476Y-80710226D01*
X131749476Y-80710226D02*
X131808999Y-80591178D01*
X131808999Y-80591178D02*
X131868523Y-80353083D01*
X131868523Y-80353083D02*
X131868523Y-80055464D01*
X131868523Y-80055464D02*
X131808999Y-79817369D01*
X131808999Y-79817369D02*
X131749476Y-79698321D01*
X131749476Y-79698321D02*
X131689952Y-79638797D01*
X131689952Y-79638797D02*
X131570904Y-79579273D01*
X130797095Y-79579273D02*
X130380428Y-80829273D01*
X130380428Y-80829273D02*
X129963762Y-79579273D01*
D13*
X154889999Y-85431857D02*
X154889999Y-82431857D01*
X154889999Y-82431857D02*
X153889999Y-84574714D01*
X153889999Y-84574714D02*
X152889999Y-82431857D01*
X152889999Y-82431857D02*
X152889999Y-85431857D01*
D12*
X165675713Y-82965214D02*
X165175713Y-82965214D01*
X164961427Y-83750928D02*
X165675713Y-83750928D01*
X165675713Y-83750928D02*
X165675713Y-82250928D01*
X165675713Y-82250928D02*
X164961427Y-82250928D01*
X163604284Y-83750928D02*
X164318570Y-83750928D01*
X164318570Y-83750928D02*
X164318570Y-82250928D01*
X162818569Y-82250928D02*
X162675712Y-82250928D01*
X162675712Y-82250928D02*
X162532855Y-82322357D01*
X162532855Y-82322357D02*
X162461427Y-82393785D01*
X162461427Y-82393785D02*
X162389998Y-82536642D01*
X162389998Y-82536642D02*
X162318569Y-82822357D01*
X162318569Y-82822357D02*
X162318569Y-83179500D01*
X162318569Y-83179500D02*
X162389998Y-83465214D01*
X162389998Y-83465214D02*
X162461427Y-83608071D01*
X162461427Y-83608071D02*
X162532855Y-83679500D01*
X162532855Y-83679500D02*
X162675712Y-83750928D01*
X162675712Y-83750928D02*
X162818569Y-83750928D01*
X162818569Y-83750928D02*
X162961427Y-83679500D01*
X162961427Y-83679500D02*
X163032855Y-83608071D01*
X163032855Y-83608071D02*
X163104284Y-83465214D01*
X163104284Y-83465214D02*
X163175712Y-83179500D01*
X163175712Y-83179500D02*
X163175712Y-82822357D01*
X163175712Y-82822357D02*
X163104284Y-82536642D01*
X163104284Y-82536642D02*
X163032855Y-82393785D01*
X163032855Y-82393785D02*
X162961427Y-82322357D01*
X162961427Y-82322357D02*
X162818569Y-82250928D01*
X161389998Y-82250928D02*
X161247141Y-82250928D01*
X161247141Y-82250928D02*
X161104284Y-82322357D01*
X161104284Y-82322357D02*
X161032856Y-82393785D01*
X161032856Y-82393785D02*
X160961427Y-82536642D01*
X160961427Y-82536642D02*
X160889998Y-82822357D01*
X160889998Y-82822357D02*
X160889998Y-83179500D01*
X160889998Y-83179500D02*
X160961427Y-83465214D01*
X160961427Y-83465214D02*
X161032856Y-83608071D01*
X161032856Y-83608071D02*
X161104284Y-83679500D01*
X161104284Y-83679500D02*
X161247141Y-83750928D01*
X161247141Y-83750928D02*
X161389998Y-83750928D01*
X161389998Y-83750928D02*
X161532856Y-83679500D01*
X161532856Y-83679500D02*
X161604284Y-83608071D01*
X161604284Y-83608071D02*
X161675713Y-83465214D01*
X161675713Y-83465214D02*
X161747141Y-83179500D01*
X161747141Y-83179500D02*
X161747141Y-82822357D01*
X161747141Y-82822357D02*
X161675713Y-82536642D01*
X161675713Y-82536642D02*
X161604284Y-82393785D01*
X161604284Y-82393785D02*
X161532856Y-82322357D01*
X161532856Y-82322357D02*
X161389998Y-82250928D01*
X159961427Y-82250928D02*
X159818570Y-82250928D01*
X159818570Y-82250928D02*
X159675713Y-82322357D01*
X159675713Y-82322357D02*
X159604285Y-82393785D01*
X159604285Y-82393785D02*
X159532856Y-82536642D01*
X159532856Y-82536642D02*
X159461427Y-82822357D01*
X159461427Y-82822357D02*
X159461427Y-83179500D01*
X159461427Y-83179500D02*
X159532856Y-83465214D01*
X159532856Y-83465214D02*
X159604285Y-83608071D01*
X159604285Y-83608071D02*
X159675713Y-83679500D01*
X159675713Y-83679500D02*
X159818570Y-83750928D01*
X159818570Y-83750928D02*
X159961427Y-83750928D01*
X159961427Y-83750928D02*
X160104285Y-83679500D01*
X160104285Y-83679500D02*
X160175713Y-83608071D01*
X160175713Y-83608071D02*
X160247142Y-83465214D01*
X160247142Y-83465214D02*
X160318570Y-83179500D01*
X160318570Y-83179500D02*
X160318570Y-82822357D01*
X160318570Y-82822357D02*
X160247142Y-82536642D01*
X160247142Y-82536642D02*
X160175713Y-82393785D01*
X160175713Y-82393785D02*
X160104285Y-82322357D01*
X160104285Y-82322357D02*
X159961427Y-82250928D01*
X158175714Y-82250928D02*
X158461428Y-82250928D01*
X158461428Y-82250928D02*
X158604285Y-82322357D01*
X158604285Y-82322357D02*
X158675714Y-82393785D01*
X158675714Y-82393785D02*
X158818571Y-82608071D01*
X158818571Y-82608071D02*
X158889999Y-82893785D01*
X158889999Y-82893785D02*
X158889999Y-83465214D01*
X158889999Y-83465214D02*
X158818571Y-83608071D01*
X158818571Y-83608071D02*
X158747142Y-83679500D01*
X158747142Y-83679500D02*
X158604285Y-83750928D01*
X158604285Y-83750928D02*
X158318571Y-83750928D01*
X158318571Y-83750928D02*
X158175714Y-83679500D01*
X158175714Y-83679500D02*
X158104285Y-83608071D01*
X158104285Y-83608071D02*
X158032856Y-83465214D01*
X158032856Y-83465214D02*
X158032856Y-83108071D01*
X158032856Y-83108071D02*
X158104285Y-82965214D01*
X158104285Y-82965214D02*
X158175714Y-82893785D01*
X158175714Y-82893785D02*
X158318571Y-82822357D01*
X158318571Y-82822357D02*
X158604285Y-82822357D01*
X158604285Y-82822357D02*
X158747142Y-82893785D01*
X158747142Y-82893785D02*
X158818571Y-82965214D01*
X158818571Y-82965214D02*
X158889999Y-83108071D01*
%TO.C,LG1*%
G36*
X163104415Y-107130716D02*
G01*
X163194819Y-107217457D01*
X163230019Y-107340062D01*
X163226531Y-107401421D01*
X163185561Y-107509809D01*
X163081261Y-107591581D01*
X163006593Y-107618198D01*
X162873870Y-107600470D01*
X162750421Y-107506435D01*
X162702485Y-107437315D01*
X162681669Y-107316044D01*
X162742169Y-107182860D01*
X162754342Y-107166985D01*
X162858941Y-107097348D01*
X162984045Y-107087969D01*
X163104415Y-107130716D01*
G37*
G36*
X160886635Y-104049334D02*
G01*
X160998002Y-104120777D01*
X161074068Y-104230277D01*
X161104161Y-104360013D01*
X161077608Y-104492167D01*
X160983739Y-104608919D01*
X160879765Y-104676730D01*
X160779132Y-104691693D01*
X160652877Y-104649168D01*
X160538869Y-104557217D01*
X160481853Y-104427132D01*
X160482414Y-104284362D01*
X160540429Y-104154034D01*
X160655774Y-104061277D01*
X160750637Y-104033766D01*
X160886635Y-104049334D01*
G37*
G36*
X161951989Y-104040878D02*
G01*
X162081351Y-104139153D01*
X162206135Y-104263937D01*
X162206135Y-105914034D01*
X162206135Y-107564131D01*
X162081351Y-107688914D01*
X162043982Y-107724069D01*
X161918583Y-107800000D01*
X161797351Y-107795255D01*
X161664230Y-107710671D01*
X161544454Y-107607645D01*
X161544454Y-105914034D01*
X161544454Y-104220423D01*
X161664230Y-104117396D01*
X161702963Y-104086211D01*
X161831212Y-104023510D01*
X161951989Y-104040878D01*
G37*
G36*
X160983739Y-105084695D02*
G01*
X161096219Y-105173172D01*
X161096219Y-106401440D01*
X161096172Y-106546694D01*
X161095425Y-106875589D01*
X161093333Y-107132330D01*
X161089343Y-107326512D01*
X161082899Y-107467727D01*
X161073448Y-107565569D01*
X161060437Y-107629631D01*
X161043309Y-107669507D01*
X161021513Y-107694788D01*
X160966526Y-107736729D01*
X160882773Y-107783412D01*
X160818399Y-107803823D01*
X160748985Y-107803199D01*
X160654700Y-107766301D01*
X160605419Y-107740137D01*
X160559454Y-107700535D01*
X160523955Y-107641831D01*
X160497585Y-107554558D01*
X160479007Y-107429250D01*
X160466885Y-107256439D01*
X160459881Y-107026659D01*
X160456660Y-106730441D01*
X160455883Y-106358320D01*
X160455883Y-105205783D01*
X160560665Y-105101001D01*
X160689289Y-105015446D01*
X160833661Y-105007697D01*
X160983739Y-105084695D01*
G37*
G36*
X172946305Y-104996280D02*
G01*
X173053783Y-105028201D01*
X173157823Y-105101001D01*
X173262605Y-105205783D01*
X173262605Y-106384480D01*
X173262426Y-106517701D01*
X173259620Y-106888792D01*
X173253534Y-107191661D01*
X173244320Y-107422031D01*
X173232132Y-107575622D01*
X173217126Y-107648156D01*
X173173542Y-107704257D01*
X173078386Y-107770711D01*
X173014177Y-107794259D01*
X172950990Y-107810992D01*
X172900428Y-107801577D01*
X172800010Y-107752834D01*
X172703377Y-107684130D01*
X172648787Y-107619684D01*
X172648433Y-107618658D01*
X172641487Y-107555199D01*
X172635239Y-107418721D01*
X172629942Y-107221001D01*
X172625847Y-106973818D01*
X172623206Y-106688952D01*
X172622269Y-106378182D01*
X172622269Y-105205783D01*
X172727052Y-105101001D01*
X172730723Y-105097395D01*
X172835997Y-105025815D01*
X172942437Y-104996219D01*
X172946305Y-104996280D01*
G37*
G36*
X158671072Y-104953615D02*
G01*
X158994481Y-104977898D01*
X159265172Y-105051032D01*
X159504468Y-105181331D01*
X159733690Y-105377112D01*
X159846624Y-105498044D01*
X159970322Y-105669621D01*
X160049779Y-105848321D01*
X160088371Y-105994963D01*
X160122557Y-106290400D01*
X160111262Y-106592763D01*
X160054310Y-106862573D01*
X159985270Y-107023655D01*
X159812110Y-107273536D01*
X159580388Y-107487976D01*
X159306200Y-107653267D01*
X159005639Y-107755703D01*
X158952899Y-107766921D01*
X158786754Y-107797390D01*
X158655021Y-107807140D01*
X158519326Y-107796831D01*
X158341296Y-107767122D01*
X158295518Y-107758208D01*
X158028435Y-107680393D01*
X157812930Y-107561473D01*
X157622914Y-107387667D01*
X157550644Y-107303595D01*
X157446146Y-107148769D01*
X157406223Y-107017435D01*
X157425158Y-106895358D01*
X157484172Y-106798554D01*
X157597367Y-106726222D01*
X157731166Y-106716588D01*
X157863995Y-106769990D01*
X157974281Y-106886765D01*
X157998923Y-106923615D01*
X158163469Y-107081733D01*
X158381024Y-107181384D01*
X158638438Y-107216051D01*
X158689704Y-107214945D01*
X158957489Y-107166969D01*
X159175280Y-107052129D01*
X159337611Y-106876010D01*
X159439017Y-106644195D01*
X159474034Y-106362269D01*
X159472991Y-106310940D01*
X159426214Y-106037407D01*
X159314029Y-105814640D01*
X159142051Y-105648393D01*
X158915895Y-105544423D01*
X158641178Y-105508488D01*
X158635761Y-105508495D01*
X158448513Y-105522383D01*
X158295346Y-105571343D01*
X158150130Y-105668014D01*
X157986741Y-105825031D01*
X157937929Y-105874421D01*
X157802788Y-105983363D01*
X157698590Y-106020756D01*
X157668841Y-106018894D01*
X157544432Y-105965114D01*
X157457597Y-105851544D01*
X157424958Y-105697804D01*
X157429657Y-105632017D01*
X157459397Y-105545641D01*
X157528218Y-105449461D01*
X157649438Y-105321128D01*
X157709675Y-105263256D01*
X157901323Y-105115394D01*
X158106614Y-105019977D01*
X158347917Y-104968769D01*
X158647600Y-104953530D01*
X158671072Y-104953615D01*
G37*
G36*
X165202603Y-105865076D02*
G01*
X165235789Y-105990105D01*
X165251857Y-106138699D01*
X165256648Y-106341678D01*
X165256476Y-106453699D01*
X165249588Y-106616466D01*
X165228561Y-106742642D01*
X165186808Y-106864050D01*
X165117737Y-107012511D01*
X165112962Y-107022147D01*
X164942761Y-107292359D01*
X164728912Y-107499373D01*
X164460634Y-107651285D01*
X164127143Y-107756190D01*
X164024145Y-107776602D01*
X163801197Y-107791576D01*
X163642357Y-107752077D01*
X163548439Y-107658434D01*
X163520255Y-107510975D01*
X163535980Y-107402276D01*
X163592538Y-107315484D01*
X163704522Y-107257693D01*
X163886832Y-107216949D01*
X164125945Y-107155303D01*
X164350730Y-107032529D01*
X164509193Y-106856675D01*
X164558541Y-106776084D01*
X164592770Y-106708382D01*
X164599362Y-106657947D01*
X164570070Y-106622239D01*
X164496643Y-106598718D01*
X164370834Y-106584844D01*
X164184394Y-106578079D01*
X163929075Y-106575882D01*
X163596628Y-106575714D01*
X162596533Y-106575714D01*
X162505769Y-106460326D01*
X162470659Y-106410595D01*
X162434283Y-106307974D01*
X162441575Y-106172175D01*
X162454775Y-106095483D01*
X162535516Y-105822058D01*
X163226787Y-105822058D01*
X163236980Y-105959019D01*
X163315444Y-106071538D01*
X163323691Y-106077985D01*
X163388250Y-106113252D01*
X163479992Y-106134441D01*
X163618255Y-106144389D01*
X163822377Y-106145934D01*
X164016966Y-106141082D01*
X164208364Y-106122507D01*
X164336723Y-106086504D01*
X164414376Y-106029178D01*
X164453657Y-105946637D01*
X164462556Y-105855214D01*
X164418995Y-105722379D01*
X164316290Y-105613791D01*
X164169476Y-105533030D01*
X163993590Y-105483675D01*
X163803668Y-105469309D01*
X163614746Y-105493510D01*
X163441858Y-105559859D01*
X163300042Y-105671937D01*
X163285954Y-105688902D01*
X163226787Y-105822058D01*
X162535516Y-105822058D01*
X162556944Y-105749493D01*
X162720335Y-105462663D01*
X162945697Y-105233946D01*
X163233776Y-105062295D01*
X163339514Y-105016800D01*
X163452616Y-104978753D01*
X163566329Y-104959727D01*
X163708827Y-104955533D01*
X163908284Y-104961981D01*
X164049238Y-104969830D01*
X164238428Y-104990422D01*
X164381342Y-105024016D01*
X164502596Y-105075306D01*
X164710779Y-105205757D01*
X164957625Y-105437995D01*
X165137943Y-105715044D01*
X165146462Y-105732793D01*
X165198418Y-105855214D01*
X165202603Y-105865076D01*
G37*
G36*
X167031819Y-104088285D02*
G01*
X167108929Y-104167306D01*
X167147526Y-104291906D01*
X167158068Y-104481067D01*
X167163725Y-104649870D01*
X167193256Y-104802651D01*
X167257705Y-104895451D01*
X167367736Y-104941716D01*
X167534018Y-104954887D01*
X167635885Y-104959705D01*
X167766155Y-104979180D01*
X167844792Y-105008249D01*
X167925461Y-105093723D01*
X167986482Y-105225229D01*
X167987820Y-105350016D01*
X167955629Y-105434497D01*
X167879999Y-105530607D01*
X167760594Y-105579944D01*
X167578342Y-105593866D01*
X167470017Y-105594707D01*
X167366741Y-105603371D01*
X167289218Y-105629540D01*
X167233755Y-105682912D01*
X167196658Y-105773182D01*
X167174235Y-105910047D01*
X167162791Y-106103202D01*
X167158633Y-106362342D01*
X167158068Y-106697165D01*
X167158050Y-106786790D01*
X167157088Y-107085325D01*
X167153084Y-107312250D01*
X167143884Y-107478520D01*
X167127336Y-107595089D01*
X167101288Y-107672909D01*
X167063588Y-107722934D01*
X167012084Y-107756117D01*
X166944622Y-107783412D01*
X166880248Y-107803823D01*
X166810834Y-107803199D01*
X166716548Y-107766301D01*
X166674967Y-107744639D01*
X166622150Y-107701044D01*
X166582536Y-107636168D01*
X166554272Y-107539331D01*
X166535510Y-107399856D01*
X166524400Y-107207064D01*
X166519090Y-106950277D01*
X166517731Y-106618815D01*
X166517732Y-106611594D01*
X166518231Y-106291348D01*
X166515238Y-106046222D01*
X166502207Y-105866219D01*
X166472589Y-105741340D01*
X166419838Y-105661587D01*
X166337406Y-105616961D01*
X166218746Y-105597465D01*
X166057311Y-105593099D01*
X165846552Y-105593866D01*
X165843183Y-105593865D01*
X165629940Y-105592174D01*
X165484393Y-105585413D01*
X165389124Y-105570961D01*
X165326714Y-105546194D01*
X165279748Y-105508488D01*
X165234290Y-105449239D01*
X165192705Y-105307039D01*
X165217489Y-105161014D01*
X165306850Y-105042006D01*
X165311503Y-105038381D01*
X165370218Y-105000862D01*
X165442114Y-104976232D01*
X165545234Y-104961876D01*
X165697617Y-104955180D01*
X165917304Y-104953530D01*
X165995056Y-104953187D01*
X166235554Y-104945789D01*
X166393005Y-104928800D01*
X166466505Y-104902303D01*
X166491135Y-104845219D01*
X166511129Y-104719242D01*
X166519089Y-104550118D01*
X166526308Y-104393028D01*
X166545415Y-104258197D01*
X166572450Y-104181427D01*
X166657924Y-104100758D01*
X166789431Y-104039737D01*
X166914218Y-104038399D01*
X167031819Y-104088285D01*
G37*
G36*
X171496864Y-104997409D02*
G01*
X171753921Y-105105002D01*
X171971199Y-105279152D01*
X172140536Y-105518760D01*
X172172744Y-105581484D01*
X172204152Y-105652379D01*
X172227205Y-105727521D01*
X172243501Y-105820433D01*
X172254636Y-105944633D01*
X172262210Y-106113642D01*
X172267819Y-106340981D01*
X172273061Y-106640168D01*
X172276229Y-106839683D01*
X172279203Y-107091040D01*
X172278908Y-107277026D01*
X172274413Y-107409860D01*
X172264787Y-107501760D01*
X172249099Y-107564944D01*
X172226419Y-107611629D01*
X172195816Y-107654034D01*
X172172488Y-107680283D01*
X172041747Y-107757876D01*
X171889025Y-107769221D01*
X171744630Y-107710524D01*
X171718498Y-107686621D01*
X171695794Y-107646583D01*
X171678779Y-107581073D01*
X171666027Y-107478110D01*
X171656109Y-107325717D01*
X171647599Y-107111915D01*
X171639068Y-106824725D01*
X171638316Y-106797797D01*
X171626478Y-106468888D01*
X171610199Y-106213259D01*
X171586957Y-106019643D01*
X171554231Y-105876776D01*
X171509500Y-105773390D01*
X171450242Y-105698219D01*
X171373937Y-105639999D01*
X171286412Y-105595435D01*
X171083567Y-105545284D01*
X170871080Y-105548445D01*
X170675925Y-105602812D01*
X170525077Y-105706278D01*
X170497649Y-105737099D01*
X170470685Y-105778098D01*
X170450551Y-105832943D01*
X170435820Y-105913553D01*
X170425068Y-106031847D01*
X170416871Y-106199744D01*
X170409802Y-106429163D01*
X170402437Y-106732024D01*
X170399695Y-106847816D01*
X170392266Y-107124956D01*
X170384487Y-107331977D01*
X170375153Y-107480171D01*
X170363063Y-107580830D01*
X170347014Y-107645247D01*
X170325803Y-107684713D01*
X170298228Y-107710522D01*
X170265582Y-107731335D01*
X170118119Y-107772283D01*
X169969291Y-107746795D01*
X169850578Y-107658529D01*
X169844396Y-107650553D01*
X169815627Y-107606575D01*
X169794455Y-107552743D01*
X169779725Y-107476469D01*
X169770280Y-107365166D01*
X169764966Y-107206248D01*
X169762625Y-106987127D01*
X169762101Y-106695218D01*
X169760505Y-106444277D01*
X169754811Y-106185370D01*
X169745498Y-105977849D01*
X169733098Y-105833037D01*
X169718147Y-105762257D01*
X169667599Y-105699504D01*
X169534128Y-105617333D01*
X169359255Y-105563208D01*
X169168562Y-105541493D01*
X168987630Y-105556554D01*
X168842041Y-105612756D01*
X168789859Y-105648655D01*
X168720746Y-105708519D01*
X168668965Y-105780586D01*
X168631567Y-105877051D01*
X168605601Y-106010112D01*
X168588119Y-106191962D01*
X168576171Y-106434798D01*
X168566807Y-106750816D01*
X168560689Y-106976505D01*
X168552413Y-107213220D01*
X168542810Y-107385926D01*
X168530531Y-107506856D01*
X168514226Y-107588242D01*
X168492546Y-107642317D01*
X168464140Y-107681314D01*
X168416335Y-107721533D01*
X168281603Y-107767935D01*
X168135069Y-107756079D01*
X168011849Y-107685630D01*
X167998190Y-107671198D01*
X167973119Y-107635081D01*
X167954698Y-107583981D01*
X167941928Y-107506166D01*
X167933813Y-107389903D01*
X167929353Y-107223461D01*
X167927551Y-106995107D01*
X167927408Y-106693109D01*
X167927443Y-106663250D01*
X167928560Y-106363372D01*
X167931729Y-106134525D01*
X167938007Y-105963511D01*
X167948448Y-105837134D01*
X167964107Y-105742199D01*
X167986041Y-105665508D01*
X168015303Y-105593866D01*
X168078395Y-105471908D01*
X168260979Y-105240792D01*
X168502773Y-105068976D01*
X168554992Y-105043677D01*
X168675966Y-105004298D01*
X168827354Y-104983585D01*
X169036387Y-104976835D01*
X169079960Y-104976803D01*
X169320122Y-104988666D01*
X169513007Y-105028119D01*
X169690147Y-105104480D01*
X169883072Y-105227068D01*
X170068075Y-105357340D01*
X170224584Y-105260484D01*
X170234111Y-105254618D01*
X170568653Y-105084977D01*
X170896067Y-104986296D01*
X171208192Y-104957473D01*
X171496864Y-104997409D01*
G37*
G36*
X176275182Y-104349550D02*
G01*
X176469782Y-104549853D01*
X176597673Y-104786505D01*
X176653106Y-105052566D01*
X176630333Y-105341097D01*
X176605731Y-105435352D01*
X176529865Y-105606514D01*
X176412528Y-105753094D01*
X176244974Y-105881066D01*
X176018452Y-105996405D01*
X175724214Y-106105087D01*
X175353511Y-106213086D01*
X175218287Y-106249835D01*
X174957370Y-106328195D01*
X174766292Y-106401082D01*
X174635063Y-106474990D01*
X174553696Y-106556418D01*
X174512201Y-106651860D01*
X174500589Y-106767815D01*
X174523320Y-106909625D01*
X174609870Y-107033972D01*
X174770840Y-107133364D01*
X174831832Y-107158052D01*
X174919282Y-107182030D01*
X175030548Y-107198312D01*
X175181015Y-107208311D01*
X175386066Y-107213441D01*
X175661087Y-107215113D01*
X175826222Y-107216431D01*
X176059033Y-107222151D01*
X176257554Y-107231573D01*
X176404758Y-107243810D01*
X176483617Y-107257974D01*
X176581528Y-107325754D01*
X176641679Y-107440540D01*
X176648090Y-107570474D01*
X176600069Y-107688972D01*
X176496924Y-107769449D01*
X176482792Y-107774018D01*
X176376740Y-107790068D01*
X176208445Y-107801313D01*
X175996457Y-107807762D01*
X175759322Y-107809428D01*
X175515589Y-107806322D01*
X175283805Y-107798456D01*
X175082519Y-107785840D01*
X174930279Y-107768486D01*
X174897048Y-107762883D01*
X174559759Y-107675867D01*
X174289503Y-107543316D01*
X174079604Y-107362040D01*
X174038889Y-107313048D01*
X173896449Y-107072461D01*
X173826242Y-106815913D01*
X173828589Y-106558248D01*
X173903814Y-106314307D01*
X174052236Y-106098932D01*
X174066390Y-106084321D01*
X174185355Y-105985523D01*
X174342001Y-105895024D01*
X174548045Y-105807764D01*
X174815199Y-105718687D01*
X175155179Y-105622734D01*
X175182354Y-105615445D01*
X175396050Y-105553630D01*
X175586174Y-105491255D01*
X175732927Y-105435216D01*
X175816508Y-105392409D01*
X175883169Y-105331905D01*
X175965317Y-105185908D01*
X175972668Y-105025233D01*
X175906368Y-104865563D01*
X175767562Y-104722579D01*
X175760384Y-104717328D01*
X175718477Y-104690946D01*
X175667735Y-104670503D01*
X175597221Y-104655072D01*
X175496003Y-104643727D01*
X175353146Y-104635540D01*
X175157715Y-104629584D01*
X174898776Y-104624933D01*
X174565395Y-104620658D01*
X173483648Y-104607955D01*
X173323319Y-104748725D01*
X173293336Y-104774544D01*
X173188517Y-104848350D01*
X173081904Y-104881696D01*
X172932039Y-104889496D01*
X172842430Y-104887982D01*
X172732867Y-104871619D01*
X172649510Y-104824244D01*
X172554955Y-104730039D01*
X172544203Y-104718227D01*
X172457421Y-104606992D01*
X172418080Y-104501024D01*
X172411711Y-104401160D01*
X172625654Y-104401160D01*
X172676376Y-104532616D01*
X172791524Y-104632585D01*
X172835512Y-104654955D01*
X172924729Y-104688986D01*
X172998945Y-104680953D01*
X173101979Y-104630573D01*
X173178704Y-104572006D01*
X173248958Y-104447983D01*
X173256142Y-104307488D01*
X173201025Y-104174886D01*
X173084379Y-104074541D01*
X172990564Y-104033065D01*
X172912120Y-104031085D01*
X172808639Y-104072539D01*
X172714590Y-104138567D01*
X172638634Y-104261912D01*
X172625654Y-104401160D01*
X172411711Y-104401160D01*
X172408824Y-104355882D01*
X172408878Y-104340026D01*
X172420135Y-104200240D01*
X172463042Y-104095621D01*
X172554955Y-103981726D01*
X172610089Y-103923690D01*
X172694598Y-103856589D01*
X172788444Y-103828160D01*
X172929528Y-103822269D01*
X173023870Y-103825348D01*
X173166726Y-103853296D01*
X173280078Y-103918319D01*
X173317334Y-103945875D01*
X173362835Y-103970482D01*
X173422339Y-103988372D01*
X173507742Y-104000619D01*
X173630941Y-104008300D01*
X173803829Y-104012489D01*
X174038304Y-104014261D01*
X174346262Y-104014692D01*
X174429820Y-104014885D01*
X174723763Y-104018040D01*
X175001934Y-104024575D01*
X175246934Y-104033870D01*
X175441361Y-104045306D01*
X175567815Y-104058260D01*
X175708845Y-104085754D01*
X176019620Y-104192537D01*
X176206720Y-104307488D01*
X176275182Y-104349550D01*
G37*
%TD*%
M02*
