%TF.GenerationSoftware,KiCad,Pcbnew,7.0.7-7.0.7~ubuntu22.04.1*%
%TF.CreationDate,2024-01-12T18:41:48+05:30*%
%TF.ProjectId,electronic-limit-sw,656c6563-7472-46f6-9e69-632d6c696d69,1.0.0*%
%TF.SameCoordinates,Original*%
%TF.FileFunction,Copper,L1,Top*%
%TF.FilePolarity,Positive*%
%FSLAX46Y46*%
G04 Gerber Fmt 4.6, Leading zero omitted, Abs format (unit mm)*
G04 Created by KiCad (PCBNEW 7.0.7-7.0.7~ubuntu22.04.1) date 2024-01-12 18:41:48*
%MOMM*%
%LPD*%
G01*
G04 APERTURE LIST*
G04 Aperture macros list*
%AMRoundRect*
0 Rectangle with rounded corners*
0 $1 Rounding radius*
0 $2 $3 $4 $5 $6 $7 $8 $9 X,Y pos of 4 corners*
0 Add a 4 corners polygon primitive as box body*
4,1,4,$2,$3,$4,$5,$6,$7,$8,$9,$2,$3,0*
0 Add four circle primitives for the rounded corners*
1,1,$1+$1,$2,$3*
1,1,$1+$1,$4,$5*
1,1,$1+$1,$6,$7*
1,1,$1+$1,$8,$9*
0 Add four rect primitives between the rounded corners*
20,1,$1+$1,$2,$3,$4,$5,0*
20,1,$1+$1,$4,$5,$6,$7,0*
20,1,$1+$1,$6,$7,$8,$9,0*
20,1,$1+$1,$8,$9,$2,$3,0*%
G04 Aperture macros list end*
%TA.AperFunction,SMDPad,CuDef*%
%ADD10R,1.700000X3.300000*%
%TD*%
%TA.AperFunction,SMDPad,CuDef*%
%ADD11RoundRect,0.237500X0.250000X0.237500X-0.250000X0.237500X-0.250000X-0.237500X0.250000X-0.237500X0*%
%TD*%
%TA.AperFunction,ComponentPad*%
%ADD12C,2.000000*%
%TD*%
%TA.AperFunction,ComponentPad*%
%ADD13C,2.400000*%
%TD*%
%TA.AperFunction,ComponentPad*%
%ADD14O,2.400000X2.400000*%
%TD*%
%TA.AperFunction,SMDPad,CuDef*%
%ADD15RoundRect,0.150000X-0.512500X-0.150000X0.512500X-0.150000X0.512500X0.150000X-0.512500X0.150000X0*%
%TD*%
%TA.AperFunction,ComponentPad*%
%ADD16R,2.500000X2.500000*%
%TD*%
%TA.AperFunction,ComponentPad*%
%ADD17O,2.500000X2.500000*%
%TD*%
%TA.AperFunction,SMDPad,CuDef*%
%ADD18R,1.800000X3.500000*%
%TD*%
%TA.AperFunction,ComponentPad*%
%ADD19RoundRect,0.500000X-0.500000X-0.500000X0.500000X-0.500000X0.500000X0.500000X-0.500000X0.500000X0*%
%TD*%
%TA.AperFunction,SMDPad,CuDef*%
%ADD20RoundRect,0.237500X-0.250000X-0.237500X0.250000X-0.237500X0.250000X0.237500X-0.250000X0.237500X0*%
%TD*%
%TA.AperFunction,SMDPad,CuDef*%
%ADD21R,2.300000X3.500000*%
%TD*%
%TA.AperFunction,ComponentPad*%
%ADD22C,1.600000*%
%TD*%
%TA.AperFunction,ComponentPad*%
%ADD23C,1.800000*%
%TD*%
%TA.AperFunction,SMDPad,CuDef*%
%ADD24RoundRect,0.250000X0.550000X-1.500000X0.550000X1.500000X-0.550000X1.500000X-0.550000X-1.500000X0*%
%TD*%
%TA.AperFunction,SMDPad,CuDef*%
%ADD25R,1.540000X1.540000*%
%TD*%
%TA.AperFunction,SMDPad,CuDef*%
%ADD26C,1.540000*%
%TD*%
%TA.AperFunction,ComponentPad*%
%ADD27RoundRect,0.250000X-1.550000X0.650000X-1.550000X-0.650000X1.550000X-0.650000X1.550000X0.650000X0*%
%TD*%
%TA.AperFunction,ComponentPad*%
%ADD28O,3.600000X1.800000*%
%TD*%
%TA.AperFunction,ComponentPad*%
%ADD29RoundRect,0.550000X-0.550000X-0.550000X0.550000X-0.550000X0.550000X0.550000X-0.550000X0.550000X0*%
%TD*%
%TA.AperFunction,ComponentPad*%
%ADD30RoundRect,0.900000X0.900000X-0.900000X0.900000X0.900000X-0.900000X0.900000X-0.900000X-0.900000X0*%
%TD*%
%TA.AperFunction,SMDPad,CuDef*%
%ADD31RoundRect,0.250000X-0.325000X-0.450000X0.325000X-0.450000X0.325000X0.450000X-0.325000X0.450000X0*%
%TD*%
%TA.AperFunction,SMDPad,CuDef*%
%ADD32RoundRect,0.150000X0.512500X0.150000X-0.512500X0.150000X-0.512500X-0.150000X0.512500X-0.150000X0*%
%TD*%
%TA.AperFunction,SMDPad,CuDef*%
%ADD33RoundRect,0.250000X-0.337500X-0.475000X0.337500X-0.475000X0.337500X0.475000X-0.337500X0.475000X0*%
%TD*%
%TA.AperFunction,SMDPad,CuDef*%
%ADD34RoundRect,0.237500X0.300000X0.237500X-0.300000X0.237500X-0.300000X-0.237500X0.300000X-0.237500X0*%
%TD*%
%TA.AperFunction,ViaPad*%
%ADD35C,0.800000*%
%TD*%
%TA.AperFunction,Conductor*%
%ADD36C,1.500000*%
%TD*%
%TA.AperFunction,Conductor*%
%ADD37C,0.300000*%
%TD*%
%TA.AperFunction,Conductor*%
%ADD38C,0.500000*%
%TD*%
%TA.AperFunction,Conductor*%
%ADD39C,0.250000*%
%TD*%
G04 APERTURE END LIST*
D10*
%TO.P,D1,1,K*%
%TO.N,+5V*%
X170850000Y-110350000D03*
%TO.P,D1,2,A*%
%TO.N,/ICSPCLK*%
X170850000Y-104850000D03*
%TD*%
D11*
%TO.P,R4,1*%
%TO.N,/OUTPUT*%
X164062500Y-107600000D03*
%TO.P,R4,2*%
%TO.N,Net-(Q1-B)*%
X162237500Y-107600000D03*
%TD*%
D12*
%TO.P,F1,1*%
%TO.N,/AC-L*%
X107300000Y-94800000D03*
%TO.P,F1,2*%
%TO.N,Net-(C1-Pad1)*%
X112380000Y-94800000D03*
%TD*%
D13*
%TO.P,R3,1*%
%TO.N,/AC-L-CNT*%
X105290000Y-102650000D03*
D14*
%TO.P,R3,2*%
%TO.N,Net-(C2-Pad1)*%
X125610000Y-102650000D03*
%TD*%
D15*
%TO.P,U1,1,GP0*%
%TO.N,/ICSPDAT*%
X166562500Y-99550000D03*
%TO.P,U1,2,VSS*%
%TO.N,GND*%
X166562500Y-100500000D03*
%TO.P,U1,3,GP1*%
%TO.N,/ICSPCLK*%
X166562500Y-101450000D03*
%TO.P,U1,4,GP2*%
%TO.N,/OUTPUT*%
X168837500Y-101450000D03*
%TO.P,U1,5,VDD*%
%TO.N,+5V*%
X168837500Y-100500000D03*
%TO.P,U1,6,GP3*%
%TO.N,/~{MCLR}*%
X168837500Y-99550000D03*
%TD*%
D16*
%TO.P,RL1,1*%
%TO.N,+5V*%
X154300000Y-102200000D03*
D17*
%TO.P,RL1,2*%
%TO.N,unconnected-(RL1-Pad2)*%
X139300000Y-102200000D03*
%TO.P,RL1,3*%
%TO.N,/AC-L*%
X134300000Y-102200000D03*
%TO.P,RL1,4*%
%TO.N,/AC-L-CNT*%
X129300000Y-102200000D03*
%TO.P,RL1,5*%
X129300000Y-109700000D03*
%TO.P,RL1,6*%
%TO.N,/AC-L*%
X134300000Y-109700000D03*
%TO.P,RL1,7*%
%TO.N,unconnected-(RL1-Pad7)*%
X139300000Y-109700000D03*
%TO.P,RL1,8*%
%TO.N,Net-(D5-A)*%
X154300000Y-109700000D03*
%TD*%
D18*
%TO.P,D5,1,K*%
%TO.N,+5V*%
X159000000Y-103300000D03*
%TO.P,D5,2,A*%
%TO.N,Net-(D5-A)*%
X159000000Y-108300000D03*
%TD*%
D10*
%TO.P,D2,1,K*%
%TO.N,+5V*%
X173250000Y-110350000D03*
%TO.P,D2,2,A*%
%TO.N,/ICSPDAT*%
X173250000Y-104850000D03*
%TD*%
D19*
%TO.P,FL1,1,1*%
%TO.N,/AC-N*%
X124440000Y-86500000D03*
%TO.P,FL1,2,2*%
%TO.N,Net-(PS1-AC{slash}N)*%
X131440000Y-86500000D03*
%TO.P,FL1,3,3*%
%TO.N,Net-(C1-Pad1)*%
X124440000Y-94500000D03*
%TO.P,FL1,4,4*%
%TO.N,Net-(PS1-AC{slash}L)*%
X131440000Y-94500000D03*
%TD*%
D20*
%TO.P,R6,1*%
%TO.N,/~{MCLR}*%
X172387500Y-98100000D03*
%TO.P,R6,2*%
%TO.N,+5V*%
X174212500Y-98100000D03*
%TD*%
%TO.P,R2,1*%
%TO.N,/ICSPDAT*%
X172400000Y-99800000D03*
%TO.P,R2,2*%
%TO.N,Net-(J2-Pin_1)*%
X174225000Y-99800000D03*
%TD*%
D21*
%TO.P,D6,1,A1*%
%TO.N,GND*%
X175450000Y-87350000D03*
%TO.P,D6,2,A2*%
%TO.N,+5V*%
X175450000Y-92750000D03*
%TD*%
D10*
%TO.P,D4,1,K*%
%TO.N,/ICSPDAT*%
X175650000Y-104850000D03*
%TO.P,D4,2,A*%
%TO.N,GND*%
X175650000Y-110350000D03*
%TD*%
D22*
%TO.P,C1,1*%
%TO.N,Net-(C1-Pad1)*%
X119300000Y-97500000D03*
%TO.P,C1,2*%
%TO.N,/AC-N*%
X119300000Y-87500000D03*
%TD*%
D20*
%TO.P,R1,1*%
%TO.N,/ICSPCLK*%
X172387500Y-101500000D03*
%TO.P,R1,2*%
%TO.N,Net-(J1-Pin_1)*%
X174212500Y-101500000D03*
%TD*%
D10*
%TO.P,D3,1,K*%
%TO.N,/ICSPCLK*%
X168450000Y-104850000D03*
%TO.P,D3,2,A*%
%TO.N,GND*%
X168450000Y-110350000D03*
%TD*%
D22*
%TO.P,C2,1*%
%TO.N,Net-(C2-Pad1)*%
X116000000Y-109950000D03*
%TO.P,C2,2*%
%TO.N,/AC-L*%
X106000000Y-109950000D03*
%TD*%
D23*
%TO.P,TH1,1*%
%TO.N,Net-(C1-Pad1)*%
X113900000Y-88600000D03*
%TO.P,TH1,2*%
%TO.N,/AC-N*%
X106400000Y-86966670D03*
%TD*%
D24*
%TO.P,C5,1*%
%TO.N,+5V*%
X169400000Y-92650000D03*
%TO.P,C5,2*%
%TO.N,GND*%
X169400000Y-87250000D03*
%TD*%
D25*
%TO.P,J3,1,Pin_1*%
%TO.N,/ICSPDAT*%
X166970000Y-95900000D03*
D26*
%TO.P,J3,2,Pin_2*%
%TO.N,/ICSPCLK*%
X169510000Y-95900000D03*
%TO.P,J3,3,Pin_3*%
%TO.N,/~{MCLR}*%
X172050000Y-95900000D03*
%TO.P,J3,4,Pin_4*%
%TO.N,GND*%
X174590000Y-95900000D03*
%TD*%
D27*
%TO.P,J1,1,Pin_1*%
%TO.N,Net-(J1-Pin_1)*%
X181500000Y-106100000D03*
D28*
%TO.P,J1,2,Pin_2*%
%TO.N,GND*%
X181500000Y-109600000D03*
%TD*%
D29*
%TO.P,PS1,1,AC/L*%
%TO.N,Net-(PS1-AC{slash}L)*%
X137957500Y-90457500D03*
%TO.P,PS1,2,AC/N*%
%TO.N,Net-(PS1-AC{slash}N)*%
X142957500Y-90457500D03*
D19*
%TO.P,PS1,3,-Vout*%
%TO.N,GND*%
X159457500Y-90457500D03*
%TO.P,PS1,4,+Vout*%
%TO.N,+5V*%
X161957500Y-90457500D03*
%TD*%
D30*
%TO.P,J4,1,Pin_1*%
%TO.N,/AC-L*%
X92900000Y-108840000D03*
%TO.P,J4,2,Pin_2*%
%TO.N,/AC-L-CNT*%
X92900000Y-101220000D03*
%TO.P,J4,3,Pin_3*%
%TO.N,/AC-N*%
X92900000Y-93600000D03*
%TO.P,J4,4,Pin_4*%
X92900000Y-85980000D03*
%TD*%
D27*
%TO.P,J2,1,Pin_1*%
%TO.N,Net-(J2-Pin_1)*%
X181500000Y-88800000D03*
D28*
%TO.P,J2,2,Pin_2*%
%TO.N,GND*%
X181500000Y-92300000D03*
%TD*%
D31*
%TO.P,D7,1,K*%
%TO.N,GND*%
X180550000Y-82500000D03*
%TO.P,D7,2,A*%
%TO.N,Net-(D7-A)*%
X182600000Y-82500000D03*
%TD*%
D32*
%TO.P,Q1,1,B*%
%TO.N,Net-(Q1-B)*%
X164287500Y-105750000D03*
%TO.P,Q1,2,E*%
%TO.N,GND*%
X164287500Y-103850000D03*
%TO.P,Q1,3,C*%
%TO.N,Net-(D5-A)*%
X162012500Y-104800000D03*
%TD*%
D33*
%TO.P,C4,1*%
%TO.N,+5V*%
X162162500Y-101400000D03*
%TO.P,C4,2*%
%TO.N,GND*%
X164237500Y-101400000D03*
%TD*%
D11*
%TO.P,R5,1*%
%TO.N,Net-(D7-A)*%
X182512500Y-84700000D03*
%TO.P,R5,2*%
%TO.N,+5V*%
X180687500Y-84700000D03*
%TD*%
D34*
%TO.P,C3,1*%
%TO.N,+5V*%
X168562500Y-97800000D03*
%TO.P,C3,2*%
%TO.N,GND*%
X166837500Y-97800000D03*
%TD*%
D35*
%TO.N,GND*%
X173600000Y-95100000D03*
%TO.N,/ICSPCLK*%
X170850000Y-101500000D03*
X170700000Y-95050000D03*
%TO.N,/ICSPDAT*%
X170850000Y-100350000D03*
X164450000Y-99550000D03*
%TO.N,/~{MCLR}*%
X169950000Y-98600000D03*
X170800000Y-97100000D03*
%TO.N,/OUTPUT*%
X170026368Y-102066247D03*
X164050000Y-109150000D03*
%TD*%
D36*
%TO.N,/AC-L*%
X106000000Y-109950000D02*
X111450000Y-109950000D01*
X134300000Y-104250000D02*
X134300000Y-102200000D01*
X123650000Y-104350000D02*
X124800000Y-105500000D01*
X111450000Y-109950000D02*
X117050000Y-104350000D01*
X133050000Y-105500000D02*
X134300000Y-104250000D01*
X124800000Y-105500000D02*
X133050000Y-105500000D01*
X117050000Y-104350000D02*
X123650000Y-104350000D01*
D37*
%TO.N,+5V*%
X174212500Y-98187500D02*
X173450000Y-98950000D01*
X170100000Y-100250000D02*
X170100000Y-99950000D01*
D38*
X169500000Y-92750000D02*
X175450000Y-92750000D01*
D37*
X168562500Y-97800000D02*
X170250000Y-97800000D01*
D38*
X152050000Y-111200000D02*
X152750000Y-111900000D01*
X176300000Y-93600000D02*
X175450000Y-92750000D01*
X175350000Y-98100000D02*
X176300000Y-97150000D01*
D37*
X170450000Y-99600000D02*
X170750000Y-99600000D01*
D38*
X166250000Y-107950000D02*
X165450000Y-108750000D01*
X180000000Y-86700000D02*
X180687500Y-86012500D01*
X169400000Y-92650000D02*
X169500000Y-92750000D01*
X180687500Y-86012500D02*
X180687500Y-84700000D01*
X177450000Y-88000000D02*
X178750000Y-86700000D01*
X170850000Y-110350000D02*
X170850000Y-108700000D01*
X177450000Y-92100000D02*
X177450000Y-88000000D01*
X152050000Y-107500000D02*
X152050000Y-111200000D01*
D37*
X169850000Y-100500000D02*
X170100000Y-100250000D01*
D38*
X165450000Y-110250000D02*
X163800000Y-111900000D01*
D37*
X169850000Y-100500000D02*
X168837500Y-100500000D01*
D38*
X176300000Y-97150000D02*
X176300000Y-93600000D01*
X162162500Y-101400000D02*
X162162500Y-93287500D01*
D37*
X170750000Y-99600000D02*
X171400000Y-98950000D01*
D38*
X161700000Y-103300000D02*
X162162500Y-102837500D01*
X161957500Y-90457500D02*
X161957500Y-91807500D01*
X162800000Y-92650000D02*
X169400000Y-92650000D01*
X157700000Y-103300000D02*
X156600000Y-102200000D01*
X162162500Y-93287500D02*
X162800000Y-92650000D01*
X156600000Y-102200000D02*
X154300000Y-102200000D01*
X159000000Y-103300000D02*
X161700000Y-103300000D01*
D37*
X170250000Y-97800000D02*
X171400000Y-98950000D01*
D38*
X174212500Y-98100000D02*
X175350000Y-98100000D01*
X165450000Y-108750000D02*
X165450000Y-110250000D01*
X170850000Y-110350000D02*
X173250000Y-110350000D01*
X163800000Y-111900000D02*
X152750000Y-111900000D01*
X162162500Y-102837500D02*
X162162500Y-101400000D01*
X154300000Y-102200000D02*
X154300000Y-105250000D01*
X161957500Y-91807500D02*
X162800000Y-92650000D01*
D39*
X169850000Y-100500000D02*
X170125000Y-100225000D01*
D38*
X154300000Y-105250000D02*
X152050000Y-107500000D01*
D37*
X170100000Y-99950000D02*
X170450000Y-99600000D01*
D38*
X170850000Y-108700000D02*
X170100000Y-107950000D01*
D37*
X173450000Y-98950000D02*
X171400000Y-98950000D01*
D38*
X178750000Y-86700000D02*
X180000000Y-86700000D01*
X176800000Y-92750000D02*
X177450000Y-92100000D01*
X159000000Y-103300000D02*
X157700000Y-103300000D01*
X170100000Y-107950000D02*
X166250000Y-107950000D01*
D37*
X174212500Y-98100000D02*
X174212500Y-98187500D01*
D38*
X175450000Y-92750000D02*
X176800000Y-92750000D01*
%TO.N,GND*%
X166550000Y-107250000D02*
X174950000Y-107250000D01*
X164237500Y-103800000D02*
X164287500Y-103850000D01*
D39*
X176400000Y-109600000D02*
X175650000Y-110350000D01*
X169400000Y-87250000D02*
X169500000Y-87350000D01*
X167350000Y-100500000D02*
X167700000Y-100150000D01*
X166562500Y-100500000D02*
X167350000Y-100500000D01*
X175650000Y-112100000D02*
X175650000Y-110350000D01*
D38*
X165137500Y-100500000D02*
X164237500Y-101400000D01*
X175650000Y-110350000D02*
X175650000Y-107950000D01*
X166562500Y-100500000D02*
X165137500Y-100500000D01*
D39*
X169000000Y-112750000D02*
X175000000Y-112750000D01*
X175000000Y-107300000D02*
X166600000Y-107300000D01*
D36*
X160500000Y-88000000D02*
X162500000Y-88000000D01*
X159457500Y-89042500D02*
X160500000Y-88000000D01*
D39*
X167700000Y-98500000D02*
X167000000Y-97800000D01*
X168450000Y-110350000D02*
X168450000Y-112200000D01*
X167700000Y-100150000D02*
X167700000Y-98500000D01*
D38*
X166000000Y-106700000D02*
X166550000Y-107250000D01*
X174950000Y-107250000D02*
X175000000Y-107300000D01*
D39*
X174590000Y-95900000D02*
X174400000Y-95900000D01*
D36*
X159457500Y-90457500D02*
X159457500Y-89042500D01*
D39*
X168450000Y-112200000D02*
X169000000Y-112750000D01*
X175000000Y-112750000D02*
X175650000Y-112100000D01*
X167000000Y-97800000D02*
X166837500Y-97800000D01*
D38*
X175650000Y-107950000D02*
X175000000Y-107300000D01*
D39*
%TO.N,/ICSPCLK*%
X168450000Y-103100000D02*
X168100000Y-102750000D01*
X172337500Y-101450000D02*
X172387500Y-101500000D01*
X166562500Y-102262500D02*
X166562500Y-101450000D01*
D38*
X171100000Y-102700000D02*
X171100000Y-101750000D01*
D39*
X172387500Y-101500000D02*
X170950000Y-101500000D01*
X168450000Y-104850000D02*
X168450000Y-103100000D01*
X167050000Y-102750000D02*
X166562500Y-102262500D01*
X169850000Y-95900000D02*
X170700000Y-95050000D01*
D38*
X170850000Y-102950000D02*
X171100000Y-102700000D01*
D39*
X169510000Y-95900000D02*
X169850000Y-95900000D01*
X169510000Y-95900000D02*
X169510000Y-96360000D01*
D38*
X171100000Y-101750000D02*
X170850000Y-101500000D01*
D39*
X166562500Y-101450000D02*
X166700000Y-101587500D01*
X168100000Y-102750000D02*
X167050000Y-102750000D01*
D38*
X168450000Y-104850000D02*
X170850000Y-104850000D01*
X170850000Y-104850000D02*
X170850000Y-102950000D01*
X172387500Y-101500000D02*
X170850000Y-101500000D01*
D37*
%TO.N,/ICSPDAT*%
X173250000Y-102550000D02*
X173250000Y-104850000D01*
D39*
X164400000Y-96400000D02*
X164400000Y-99500000D01*
X171750000Y-99800000D02*
X171400000Y-99800000D01*
X172400000Y-99800000D02*
X171750000Y-99800000D01*
X164450000Y-99550000D02*
X166562500Y-99550000D01*
D38*
X172400000Y-99800000D02*
X171400000Y-99800000D01*
X171400000Y-99800000D02*
X170850000Y-100350000D01*
D37*
X173300000Y-100700000D02*
X172400000Y-99800000D01*
D39*
X164400000Y-99500000D02*
X164450000Y-99550000D01*
X166970000Y-95900000D02*
X164900000Y-95900000D01*
D37*
X173300000Y-102500000D02*
X173250000Y-102550000D01*
D39*
X164900000Y-95900000D02*
X164400000Y-96400000D01*
D38*
X173250000Y-104850000D02*
X175650000Y-104850000D01*
D37*
X173300000Y-102500000D02*
X173300000Y-100700000D01*
D38*
%TO.N,Net-(D5-A)*%
X157500000Y-108300000D02*
X159000000Y-108300000D01*
X160800000Y-107550000D02*
X160800000Y-105200000D01*
X159000000Y-108300000D02*
X160050000Y-108300000D01*
X161200000Y-104800000D02*
X162012500Y-104800000D01*
X160050000Y-108300000D02*
X160800000Y-107550000D01*
X156100000Y-109700000D02*
X157500000Y-108300000D01*
X160800000Y-105200000D02*
X161200000Y-104800000D01*
X154300000Y-109700000D02*
X156100000Y-109700000D01*
D39*
%TO.N,Net-(D7-A)*%
X182600000Y-82500000D02*
X182600000Y-84612500D01*
X182600000Y-84612500D02*
X182512500Y-84700000D01*
D37*
%TO.N,/~{MCLR}*%
X170850000Y-97100000D02*
X172050000Y-95900000D01*
X172387500Y-98100000D02*
X172387500Y-96237500D01*
X170800000Y-97100000D02*
X170850000Y-97100000D01*
D39*
X169000000Y-99550000D02*
X169950000Y-98600000D01*
X171500000Y-95900000D02*
X172050000Y-95900000D01*
D37*
X172387500Y-96237500D02*
X172050000Y-95900000D01*
D39*
X168837500Y-99550000D02*
X169000000Y-99550000D01*
D36*
%TO.N,/AC-L-CNT*%
X116050000Y-99950000D02*
X127050000Y-99950000D01*
X127050000Y-99950000D02*
X129300000Y-102200000D01*
X113350000Y-102650000D02*
X116050000Y-99950000D01*
X105290000Y-102650000D02*
X113350000Y-102650000D01*
D38*
%TO.N,Net-(J1-Pin_1)*%
X174212500Y-101500000D02*
X177300000Y-101500000D01*
X177300000Y-101500000D02*
X178100000Y-102300000D01*
X178750000Y-106100000D02*
X181500000Y-106100000D01*
X178100000Y-102300000D02*
X178100000Y-105450000D01*
X178100000Y-105450000D02*
X178750000Y-106100000D01*
%TO.N,/OUTPUT*%
X169410121Y-101450000D02*
X170026368Y-102066247D01*
X164062500Y-107600000D02*
X164062500Y-109137500D01*
X168837500Y-101450000D02*
X169410121Y-101450000D01*
X164062500Y-109137500D02*
X164050000Y-109150000D01*
%TO.N,Net-(J2-Pin_1)*%
X181500000Y-88800000D02*
X179450000Y-88800000D01*
X174225000Y-99800000D02*
X176800000Y-99800000D01*
X178100000Y-98500000D02*
X178100000Y-93800000D01*
X178550000Y-93350000D02*
X178550000Y-89700000D01*
X178550000Y-89700000D02*
X179450000Y-88800000D01*
X176800000Y-99800000D02*
X178100000Y-98500000D01*
X178100000Y-93800000D02*
X178550000Y-93350000D01*
%TO.N,Net-(Q1-B)*%
X162237500Y-106162500D02*
X162650000Y-105750000D01*
X162237500Y-107600000D02*
X162237500Y-106162500D01*
X162650000Y-105750000D02*
X164287500Y-105750000D01*
%TD*%
%TA.AperFunction,Conductor*%
%TO.N,GND*%
G36*
X184751899Y-77300614D02*
G01*
X184849023Y-77306489D01*
X185024922Y-77318019D01*
X185032116Y-77318911D01*
X185157537Y-77341895D01*
X185303258Y-77370881D01*
X185309682Y-77372516D01*
X185436922Y-77412166D01*
X185572712Y-77458261D01*
X185578309Y-77460464D01*
X185686072Y-77508964D01*
X185702106Y-77516181D01*
X185829071Y-77578793D01*
X185833774Y-77581367D01*
X185949935Y-77651589D01*
X185952310Y-77653100D01*
X186068281Y-77730589D01*
X186072091Y-77733349D01*
X186179338Y-77817372D01*
X186181997Y-77819577D01*
X186227175Y-77859197D01*
X186286525Y-77911246D01*
X186289519Y-77914050D01*
X186385947Y-78010478D01*
X186388752Y-78013473D01*
X186480413Y-78117991D01*
X186482633Y-78120669D01*
X186566640Y-78227895D01*
X186569416Y-78231727D01*
X186642156Y-78340590D01*
X186646886Y-78347669D01*
X186648418Y-78350078D01*
X186718623Y-78466211D01*
X186721212Y-78470941D01*
X186783818Y-78597893D01*
X186839529Y-78721677D01*
X186841737Y-78727285D01*
X186887842Y-78863105D01*
X186927476Y-78990296D01*
X186929119Y-78996752D01*
X186944473Y-79073939D01*
X186946894Y-79098324D01*
X186997310Y-111284179D01*
X186997195Y-111288082D01*
X186993524Y-111348781D01*
X186981982Y-111524896D01*
X186981084Y-111532138D01*
X186958110Y-111657505D01*
X186929121Y-111803240D01*
X186927478Y-111809697D01*
X186887842Y-111936895D01*
X186841737Y-112072713D01*
X186839529Y-112078321D01*
X186783818Y-112202106D01*
X186721212Y-112329057D01*
X186718623Y-112333787D01*
X186648418Y-112449920D01*
X186646886Y-112452329D01*
X186569432Y-112568249D01*
X186566640Y-112572103D01*
X186482640Y-112679321D01*
X186480413Y-112682007D01*
X186388752Y-112786525D01*
X186385933Y-112789535D01*
X186289535Y-112885933D01*
X186286525Y-112888752D01*
X186195329Y-112968731D01*
X186130925Y-112998608D01*
X186112250Y-113000000D01*
X153052190Y-113000000D01*
X152984069Y-112979998D01*
X152963095Y-112963095D01*
X152873595Y-112873595D01*
X152839569Y-112811283D01*
X152844634Y-112740468D01*
X152887181Y-112683632D01*
X152953701Y-112658821D01*
X152962690Y-112658500D01*
X163735559Y-112658500D01*
X163753819Y-112659830D01*
X163758715Y-112660547D01*
X163777789Y-112663341D01*
X163811146Y-112660422D01*
X163830385Y-112658740D01*
X163835878Y-112658500D01*
X163844176Y-112658500D01*
X163844180Y-112658500D01*
X163870512Y-112655421D01*
X163877096Y-112654652D01*
X163883860Y-112654060D01*
X163954426Y-112647887D01*
X163954432Y-112647884D01*
X163961618Y-112646402D01*
X163961631Y-112646468D01*
X163968987Y-112644836D01*
X163968972Y-112644771D01*
X163976104Y-112643079D01*
X163976113Y-112643079D01*
X164049065Y-112616526D01*
X164122738Y-112592114D01*
X164122740Y-112592112D01*
X164129389Y-112589012D01*
X164129418Y-112589074D01*
X164136203Y-112585789D01*
X164136173Y-112585729D01*
X164142728Y-112582436D01*
X164142732Y-112582435D01*
X164207605Y-112539766D01*
X164273651Y-112499030D01*
X164273660Y-112499020D01*
X164279408Y-112494477D01*
X164279450Y-112494531D01*
X164285289Y-112489775D01*
X164285246Y-112489723D01*
X164290865Y-112485006D01*
X164290874Y-112485001D01*
X164344163Y-112428517D01*
X165940784Y-110831895D01*
X165954617Y-110819941D01*
X165974058Y-110805469D01*
X166008001Y-110765015D01*
X166011700Y-110760979D01*
X166017580Y-110755101D01*
X166038136Y-110729103D01*
X166068115Y-110693376D01*
X166088035Y-110669637D01*
X166092066Y-110663508D01*
X166092122Y-110663545D01*
X166096171Y-110657190D01*
X166096113Y-110657154D01*
X166099964Y-110650910D01*
X166099964Y-110650909D01*
X166099967Y-110650906D01*
X166121839Y-110604000D01*
X167092000Y-110604000D01*
X167092000Y-112048597D01*
X167098505Y-112109093D01*
X167149555Y-112245964D01*
X167149555Y-112245965D01*
X167237095Y-112362904D01*
X167354034Y-112450444D01*
X167490906Y-112501494D01*
X167551402Y-112507999D01*
X167551415Y-112508000D01*
X168196000Y-112508000D01*
X168196000Y-110604000D01*
X167092000Y-110604000D01*
X166121839Y-110604000D01*
X166132775Y-110580546D01*
X166167609Y-110511188D01*
X166167609Y-110511185D01*
X166170120Y-110504289D01*
X166170183Y-110504312D01*
X166172657Y-110497196D01*
X166172593Y-110497175D01*
X166174902Y-110490206D01*
X166178557Y-110472507D01*
X166190600Y-110414177D01*
X166208500Y-110338656D01*
X166208500Y-110338655D01*
X166209352Y-110331368D01*
X166209418Y-110331375D01*
X166210184Y-110323877D01*
X166210118Y-110323872D01*
X166210756Y-110316565D01*
X166210758Y-110316558D01*
X166208500Y-110238954D01*
X166208500Y-109116371D01*
X166228502Y-109048250D01*
X166245405Y-109027275D01*
X166527277Y-108745404D01*
X166589589Y-108711379D01*
X166616372Y-108708500D01*
X166966000Y-108708500D01*
X167034121Y-108728502D01*
X167080614Y-108782158D01*
X167092000Y-108834500D01*
X167092000Y-110096000D01*
X168578000Y-110096000D01*
X168646121Y-110116002D01*
X168692614Y-110169658D01*
X168704000Y-110222000D01*
X168704000Y-112508000D01*
X169348585Y-112508000D01*
X169348597Y-112507999D01*
X169409093Y-112501494D01*
X169545960Y-112450446D01*
X169574073Y-112429401D01*
X169640594Y-112404590D01*
X169709968Y-112419681D01*
X169725088Y-112429398D01*
X169753796Y-112450889D01*
X169753797Y-112450889D01*
X169753798Y-112450890D01*
X169890795Y-112501988D01*
X169890803Y-112501990D01*
X169951350Y-112508499D01*
X169951355Y-112508499D01*
X169951362Y-112508500D01*
X169951368Y-112508500D01*
X171748632Y-112508500D01*
X171748638Y-112508500D01*
X171748645Y-112508499D01*
X171748649Y-112508499D01*
X171809196Y-112501990D01*
X171809199Y-112501989D01*
X171809201Y-112501989D01*
X171946204Y-112450889D01*
X171974489Y-112429714D01*
X172041008Y-112404902D01*
X172110383Y-112419992D01*
X172125511Y-112429715D01*
X172153791Y-112450886D01*
X172153793Y-112450887D01*
X172153796Y-112450889D01*
X172198546Y-112467580D01*
X172290795Y-112501988D01*
X172290803Y-112501990D01*
X172351350Y-112508499D01*
X172351355Y-112508499D01*
X172351362Y-112508500D01*
X172351368Y-112508500D01*
X174148632Y-112508500D01*
X174148638Y-112508500D01*
X174148645Y-112508499D01*
X174148649Y-112508499D01*
X174209196Y-112501990D01*
X174209197Y-112501989D01*
X174209201Y-112501989D01*
X174346204Y-112450889D01*
X174374907Y-112429401D01*
X174441424Y-112404590D01*
X174510798Y-112419680D01*
X174525926Y-112429402D01*
X174554033Y-112450443D01*
X174554035Y-112450444D01*
X174690906Y-112501494D01*
X174751402Y-112507999D01*
X174751415Y-112508000D01*
X175396000Y-112508000D01*
X175396000Y-110604000D01*
X175904000Y-110604000D01*
X175904000Y-112508000D01*
X176548585Y-112508000D01*
X176548597Y-112507999D01*
X176609093Y-112501494D01*
X176745964Y-112450444D01*
X176745965Y-112450444D01*
X176862904Y-112362904D01*
X176950444Y-112245965D01*
X176950444Y-112245964D01*
X177001494Y-112109093D01*
X177007999Y-112048597D01*
X177008000Y-112048585D01*
X177008000Y-110604000D01*
X175904000Y-110604000D01*
X175396000Y-110604000D01*
X175396000Y-108192000D01*
X175904000Y-108192000D01*
X175904000Y-110096000D01*
X177008000Y-110096000D01*
X177008000Y-109346000D01*
X179213028Y-109346000D01*
X180784587Y-109346000D01*
X180852708Y-109366002D01*
X180899201Y-109419658D01*
X180909509Y-109488446D01*
X180894823Y-109599998D01*
X180894823Y-109600001D01*
X180909509Y-109711554D01*
X180898570Y-109781703D01*
X180851441Y-109834801D01*
X180784587Y-109854000D01*
X179214413Y-109854000D01*
X179248850Y-110013789D01*
X179338214Y-110236177D01*
X179463882Y-110440274D01*
X179622223Y-110620186D01*
X179808704Y-110770758D01*
X180017947Y-110887649D01*
X180243924Y-110967493D01*
X180480166Y-111008000D01*
X181246000Y-111008000D01*
X181246000Y-110315412D01*
X181266002Y-110247291D01*
X181319658Y-110200798D01*
X181388444Y-110190490D01*
X181460677Y-110200000D01*
X181460684Y-110200000D01*
X181539316Y-110200000D01*
X181539323Y-110200000D01*
X181611555Y-110190490D01*
X181681702Y-110201429D01*
X181734801Y-110248557D01*
X181754000Y-110315412D01*
X181754000Y-111008000D01*
X182459815Y-111008000D01*
X182638809Y-110992765D01*
X182638822Y-110992763D01*
X182870750Y-110932374D01*
X183089155Y-110833648D01*
X183089157Y-110833647D01*
X183287730Y-110699435D01*
X183287731Y-110699434D01*
X183460770Y-110533591D01*
X183603287Y-110340894D01*
X183711193Y-110126876D01*
X183711195Y-110126870D01*
X183781374Y-109897709D01*
X183786972Y-109854000D01*
X182215413Y-109854000D01*
X182147292Y-109833998D01*
X182100799Y-109780342D01*
X182090491Y-109711554D01*
X182105177Y-109600001D01*
X182105177Y-109599998D01*
X182090491Y-109488446D01*
X182101430Y-109418297D01*
X182148559Y-109365199D01*
X182215413Y-109346000D01*
X183785587Y-109346000D01*
X183751149Y-109186210D01*
X183661785Y-108963822D01*
X183536117Y-108759725D01*
X183377776Y-108579813D01*
X183191295Y-108429241D01*
X182982052Y-108312350D01*
X182756075Y-108232506D01*
X182519834Y-108192000D01*
X181754000Y-108192000D01*
X181754000Y-108884587D01*
X181733998Y-108952708D01*
X181680342Y-108999201D01*
X181611555Y-109009509D01*
X181539327Y-109000000D01*
X181539323Y-109000000D01*
X181460677Y-109000000D01*
X181460672Y-109000000D01*
X181388445Y-109009509D01*
X181318296Y-108998569D01*
X181265198Y-108951441D01*
X181246000Y-108884587D01*
X181246000Y-108192000D01*
X180540185Y-108192000D01*
X180361190Y-108207234D01*
X180361177Y-108207236D01*
X180129249Y-108267625D01*
X179910844Y-108366351D01*
X179910842Y-108366352D01*
X179712269Y-108500564D01*
X179712268Y-108500565D01*
X179539229Y-108666408D01*
X179396712Y-108859105D01*
X179288806Y-109073123D01*
X179288804Y-109073129D01*
X179218625Y-109302290D01*
X179213028Y-109346000D01*
X177008000Y-109346000D01*
X177008000Y-108651414D01*
X177007999Y-108651402D01*
X177001494Y-108590906D01*
X176950444Y-108454035D01*
X176950444Y-108454034D01*
X176862904Y-108337095D01*
X176745965Y-108249555D01*
X176609093Y-108198505D01*
X176548597Y-108192000D01*
X175904000Y-108192000D01*
X175396000Y-108192000D01*
X174751402Y-108192000D01*
X174690906Y-108198505D01*
X174554035Y-108249555D01*
X174525924Y-108270599D01*
X174459404Y-108295409D01*
X174390030Y-108280317D01*
X174374907Y-108270598D01*
X174374492Y-108270287D01*
X174346204Y-108249111D01*
X174346202Y-108249110D01*
X174346201Y-108249109D01*
X174209204Y-108198011D01*
X174209196Y-108198009D01*
X174148649Y-108191500D01*
X174148638Y-108191500D01*
X172351362Y-108191500D01*
X172351350Y-108191500D01*
X172290803Y-108198009D01*
X172290795Y-108198011D01*
X172153796Y-108249110D01*
X172153793Y-108249112D01*
X172125506Y-108270287D01*
X172058985Y-108295096D01*
X171989612Y-108280003D01*
X171974494Y-108270287D01*
X171946206Y-108249112D01*
X171946203Y-108249110D01*
X171809204Y-108198011D01*
X171809196Y-108198009D01*
X171748649Y-108191500D01*
X171748638Y-108191500D01*
X171466375Y-108191500D01*
X171398254Y-108171498D01*
X171379633Y-108156889D01*
X171378382Y-108155701D01*
X171036862Y-107814181D01*
X170681901Y-107459220D01*
X170669936Y-107445375D01*
X170667509Y-107442115D01*
X170655469Y-107425942D01*
X170655467Y-107425940D01*
X170615024Y-107392003D01*
X170610970Y-107388289D01*
X170605107Y-107382425D01*
X170579104Y-107361864D01*
X170575525Y-107358861D01*
X170519640Y-107311968D01*
X170519638Y-107311967D01*
X170519636Y-107311965D01*
X170513506Y-107307933D01*
X170513541Y-107307878D01*
X170507187Y-107303829D01*
X170507153Y-107303886D01*
X170500906Y-107300033D01*
X170430540Y-107267220D01*
X170424554Y-107264214D01*
X170390470Y-107247097D01*
X170338574Y-107198652D01*
X170321106Y-107129838D01*
X170343615Y-107062504D01*
X170398954Y-107018028D01*
X170447020Y-107008500D01*
X171748632Y-107008500D01*
X171748638Y-107008500D01*
X171748645Y-107008499D01*
X171748649Y-107008499D01*
X171809196Y-107001990D01*
X171809199Y-107001989D01*
X171809201Y-107001989D01*
X171946204Y-106950889D01*
X171974492Y-106929712D01*
X172041008Y-106904902D01*
X172110382Y-106919992D01*
X172125509Y-106929714D01*
X172153791Y-106950886D01*
X172153793Y-106950887D01*
X172153796Y-106950889D01*
X172164577Y-106954910D01*
X172290795Y-107001988D01*
X172290803Y-107001990D01*
X172351350Y-107008499D01*
X172351355Y-107008499D01*
X172351362Y-107008500D01*
X172351368Y-107008500D01*
X174148632Y-107008500D01*
X174148638Y-107008500D01*
X174148645Y-107008499D01*
X174148649Y-107008499D01*
X174209196Y-107001990D01*
X174209199Y-107001989D01*
X174209201Y-107001989D01*
X174346204Y-106950889D01*
X174374492Y-106929712D01*
X174441008Y-106904902D01*
X174510382Y-106919992D01*
X174525509Y-106929714D01*
X174553791Y-106950886D01*
X174553793Y-106950887D01*
X174553796Y-106950889D01*
X174564577Y-106954910D01*
X174690795Y-107001988D01*
X174690803Y-107001990D01*
X174751350Y-107008499D01*
X174751355Y-107008499D01*
X174751362Y-107008500D01*
X174751368Y-107008500D01*
X176548632Y-107008500D01*
X176548638Y-107008500D01*
X176548645Y-107008499D01*
X176548649Y-107008499D01*
X176609196Y-107001990D01*
X176609199Y-107001989D01*
X176609201Y-107001989D01*
X176746204Y-106950889D01*
X176754698Y-106944531D01*
X176863261Y-106863261D01*
X176950887Y-106746207D01*
X176950887Y-106746206D01*
X176950889Y-106746204D01*
X177001989Y-106609201D01*
X177003273Y-106597266D01*
X177008499Y-106548649D01*
X177008500Y-106548632D01*
X177008500Y-103151367D01*
X177008499Y-103151350D01*
X177001990Y-103090803D01*
X177001988Y-103090795D01*
X176968737Y-103001649D01*
X176950889Y-102953796D01*
X176950888Y-102953794D01*
X176950887Y-102953792D01*
X176863261Y-102836738D01*
X176746207Y-102749112D01*
X176746202Y-102749110D01*
X176609204Y-102698011D01*
X176609196Y-102698009D01*
X176548649Y-102691500D01*
X176548638Y-102691500D01*
X174751362Y-102691500D01*
X174751358Y-102691500D01*
X174751341Y-102691501D01*
X174745322Y-102692148D01*
X174681988Y-102680715D01*
X174633612Y-102719279D01*
X174630045Y-102720671D01*
X174553794Y-102749111D01*
X174553793Y-102749112D01*
X174525506Y-102770287D01*
X174458985Y-102795096D01*
X174389612Y-102780003D01*
X174374494Y-102770287D01*
X174346206Y-102749112D01*
X174346203Y-102749110D01*
X174288409Y-102727554D01*
X174231573Y-102685007D01*
X174206763Y-102618487D01*
X174221855Y-102549113D01*
X174272057Y-102498911D01*
X174332442Y-102483499D01*
X174512212Y-102483499D01*
X174573206Y-102477268D01*
X174635911Y-102488925D01*
X174683658Y-102450456D01*
X174692209Y-102447272D01*
X174779920Y-102418209D01*
X174928346Y-102326658D01*
X174942745Y-102312259D01*
X174959600Y-102295405D01*
X175021912Y-102261379D01*
X175048695Y-102258500D01*
X176933628Y-102258500D01*
X177001749Y-102278502D01*
X177022723Y-102295404D01*
X177304595Y-102577275D01*
X177338620Y-102639588D01*
X177341500Y-102666371D01*
X177341500Y-105385559D01*
X177340170Y-105403819D01*
X177336659Y-105427786D01*
X177336659Y-105427794D01*
X177341260Y-105480372D01*
X177341500Y-105485866D01*
X177341500Y-105494182D01*
X177345347Y-105527094D01*
X177352112Y-105604419D01*
X177353596Y-105611606D01*
X177353531Y-105611619D01*
X177355165Y-105618989D01*
X177355229Y-105618975D01*
X177356921Y-105626116D01*
X177383473Y-105699064D01*
X177407885Y-105772736D01*
X177410987Y-105779388D01*
X177410926Y-105779416D01*
X177414211Y-105786202D01*
X177414270Y-105786173D01*
X177417560Y-105792724D01*
X177417564Y-105792731D01*
X177417565Y-105792732D01*
X177443332Y-105831908D01*
X177460233Y-105857605D01*
X177500967Y-105923648D01*
X177505522Y-105929408D01*
X177505468Y-105929450D01*
X177510228Y-105935292D01*
X177510279Y-105935250D01*
X177514993Y-105940868D01*
X177514998Y-105940873D01*
X177514999Y-105940874D01*
X177571482Y-105994163D01*
X178168098Y-106590779D01*
X178180065Y-106604627D01*
X178183472Y-106609204D01*
X178194531Y-106624058D01*
X178206975Y-106634500D01*
X178234975Y-106657994D01*
X178239021Y-106661702D01*
X178244900Y-106667581D01*
X178270895Y-106688135D01*
X178330360Y-106738032D01*
X178330366Y-106738035D01*
X178336495Y-106742067D01*
X178336458Y-106742122D01*
X178342811Y-106746169D01*
X178342847Y-106746113D01*
X178349092Y-106749965D01*
X178349095Y-106749967D01*
X178419452Y-106782775D01*
X178488812Y-106817609D01*
X178488813Y-106817609D01*
X178488817Y-106817611D01*
X178495713Y-106820121D01*
X178495689Y-106820185D01*
X178502805Y-106822659D01*
X178502827Y-106822595D01*
X178509791Y-106824903D01*
X178585849Y-106840607D01*
X178619866Y-106848669D01*
X178661344Y-106858500D01*
X178661350Y-106858500D01*
X178668633Y-106859352D01*
X178668625Y-106859419D01*
X178676122Y-106860185D01*
X178676128Y-106860119D01*
X178683435Y-106860757D01*
X178683442Y-106860759D01*
X178761080Y-106858500D01*
X179095910Y-106858500D01*
X179164031Y-106878502D01*
X179210524Y-106932158D01*
X179215507Y-106944849D01*
X179257885Y-107072738D01*
X179338599Y-107203596D01*
X179350970Y-107223652D01*
X179350975Y-107223658D01*
X179476341Y-107349024D01*
X179476347Y-107349029D01*
X179476348Y-107349030D01*
X179627262Y-107442115D01*
X179795574Y-107497887D01*
X179899455Y-107508500D01*
X183100544Y-107508499D01*
X183204426Y-107497887D01*
X183372738Y-107442115D01*
X183523652Y-107349030D01*
X183649030Y-107223652D01*
X183742115Y-107072738D01*
X183797887Y-106904426D01*
X183808500Y-106800545D01*
X183808499Y-105399456D01*
X183797887Y-105295574D01*
X183742115Y-105127262D01*
X183649030Y-104976348D01*
X183649029Y-104976347D01*
X183649024Y-104976341D01*
X183523658Y-104850975D01*
X183523652Y-104850970D01*
X183523652Y-104850969D01*
X183372738Y-104757885D01*
X183288581Y-104729998D01*
X183204427Y-104702113D01*
X183204420Y-104702112D01*
X183100553Y-104691500D01*
X179899455Y-104691500D01*
X179795574Y-104702112D01*
X179627261Y-104757885D01*
X179476347Y-104850970D01*
X179476341Y-104850975D01*
X179350975Y-104976341D01*
X179350970Y-104976347D01*
X179275534Y-105098649D01*
X179257885Y-105127262D01*
X179220887Y-105238919D01*
X179220607Y-105239763D01*
X179180193Y-105298135D01*
X179114637Y-105325391D01*
X179044752Y-105312878D01*
X179011907Y-105289226D01*
X178895405Y-105172724D01*
X178861379Y-105110412D01*
X178858500Y-105083629D01*
X178858500Y-102364441D01*
X178859830Y-102346182D01*
X178862560Y-102327541D01*
X178863341Y-102322211D01*
X178859517Y-102278502D01*
X178858740Y-102269614D01*
X178858500Y-102264121D01*
X178858500Y-102255819D01*
X178854652Y-102222905D01*
X178852450Y-102197738D01*
X178847887Y-102145574D01*
X178847885Y-102145570D01*
X178846403Y-102138388D01*
X178846469Y-102138374D01*
X178844837Y-102131012D01*
X178844772Y-102131028D01*
X178843080Y-102123890D01*
X178816526Y-102050934D01*
X178809399Y-102029426D01*
X178792114Y-101977262D01*
X178792109Y-101977255D01*
X178789012Y-101970611D01*
X178789074Y-101970581D01*
X178785788Y-101963795D01*
X178785728Y-101963826D01*
X178782433Y-101957265D01*
X178739766Y-101892394D01*
X178699031Y-101826351D01*
X178699030Y-101826349D01*
X178699027Y-101826346D01*
X178694478Y-101820592D01*
X178694531Y-101820549D01*
X178689766Y-101814700D01*
X178689715Y-101814744D01*
X178684998Y-101809122D01*
X178628518Y-101755837D01*
X178294179Y-101421498D01*
X177881901Y-101009220D01*
X177869936Y-100995375D01*
X177855469Y-100975942D01*
X177855467Y-100975940D01*
X177815024Y-100942003D01*
X177810970Y-100938289D01*
X177805107Y-100932425D01*
X177779104Y-100911864D01*
X177756853Y-100893193D01*
X177719640Y-100861968D01*
X177719638Y-100861967D01*
X177719636Y-100861965D01*
X177713506Y-100857933D01*
X177713541Y-100857878D01*
X177707187Y-100853829D01*
X177707153Y-100853886D01*
X177700906Y-100850033D01*
X177630540Y-100817220D01*
X177561188Y-100782391D01*
X177561186Y-100782390D01*
X177561183Y-100782389D01*
X177554289Y-100779880D01*
X177554311Y-100779817D01*
X177547189Y-100777341D01*
X177547169Y-100777404D01*
X177540209Y-100775097D01*
X177464150Y-100759392D01*
X177388652Y-100741499D01*
X177381367Y-100740648D01*
X177381374Y-100740580D01*
X177373877Y-100739814D01*
X177373872Y-100739881D01*
X177366559Y-100739241D01*
X177366558Y-100739241D01*
X177288920Y-100741500D01*
X177150959Y-100741500D01*
X177082838Y-100721498D01*
X177036345Y-100667842D01*
X177026241Y-100597568D01*
X177055735Y-100532988D01*
X177111327Y-100495895D01*
X177122738Y-100492114D01*
X177122741Y-100492112D01*
X177129389Y-100489012D01*
X177129418Y-100489074D01*
X177136203Y-100485789D01*
X177136173Y-100485729D01*
X177142728Y-100482436D01*
X177142732Y-100482435D01*
X177207605Y-100439766D01*
X177273651Y-100399030D01*
X177273660Y-100399020D01*
X177279408Y-100394477D01*
X177279450Y-100394531D01*
X177285289Y-100389775D01*
X177285246Y-100389723D01*
X177290865Y-100385006D01*
X177290874Y-100385001D01*
X177344163Y-100328517D01*
X178472679Y-99200000D01*
X180194390Y-99200000D01*
X180214803Y-99485424D01*
X180275631Y-99765046D01*
X180375632Y-100033160D01*
X180375637Y-100033170D01*
X180512768Y-100284307D01*
X180512772Y-100284312D01*
X180512774Y-100284315D01*
X180673567Y-100499110D01*
X180684262Y-100513396D01*
X180684270Y-100513405D01*
X180886594Y-100715729D01*
X180886603Y-100715737D01*
X180886605Y-100715739D01*
X181115685Y-100887226D01*
X181115687Y-100887227D01*
X181115692Y-100887231D01*
X181366829Y-101024362D01*
X181366839Y-101024367D01*
X181634954Y-101124369D01*
X181914572Y-101185196D01*
X182128552Y-101200500D01*
X182128558Y-101200500D01*
X182271442Y-101200500D01*
X182271448Y-101200500D01*
X182485428Y-101185196D01*
X182765046Y-101124369D01*
X183033161Y-101024367D01*
X183086256Y-100995375D01*
X183284307Y-100887231D01*
X183284309Y-100887229D01*
X183284315Y-100887226D01*
X183513395Y-100715739D01*
X183715739Y-100513395D01*
X183887226Y-100284315D01*
X183887229Y-100284309D01*
X183887231Y-100284307D01*
X184024362Y-100033170D01*
X184024367Y-100033161D01*
X184124369Y-99765046D01*
X184185196Y-99485428D01*
X184205610Y-99200000D01*
X184185196Y-98914572D01*
X184124369Y-98634954D01*
X184024367Y-98366839D01*
X184017859Y-98354920D01*
X183887231Y-98115692D01*
X183887227Y-98115687D01*
X183841049Y-98054000D01*
X183715739Y-97886605D01*
X183715737Y-97886603D01*
X183715729Y-97886594D01*
X183513405Y-97684270D01*
X183513396Y-97684262D01*
X183439713Y-97629104D01*
X183284315Y-97512774D01*
X183284313Y-97512773D01*
X183284312Y-97512772D01*
X183284307Y-97512768D01*
X183033170Y-97375637D01*
X183033160Y-97375632D01*
X182765046Y-97275631D01*
X182485424Y-97214803D01*
X182351775Y-97205245D01*
X182271448Y-97199500D01*
X182128552Y-97199500D01*
X182052954Y-97204906D01*
X181914575Y-97214803D01*
X181634953Y-97275631D01*
X181366839Y-97375632D01*
X181366829Y-97375637D01*
X181115692Y-97512768D01*
X181115687Y-97512772D01*
X180886603Y-97684262D01*
X180886594Y-97684270D01*
X180684270Y-97886594D01*
X180684262Y-97886603D01*
X180512772Y-98115687D01*
X180512768Y-98115692D01*
X180375637Y-98366829D01*
X180375632Y-98366839D01*
X180275631Y-98634953D01*
X180214803Y-98914575D01*
X180194390Y-99200000D01*
X178472679Y-99200000D01*
X178590784Y-99081895D01*
X178604617Y-99069941D01*
X178624058Y-99055469D01*
X178658001Y-99015015D01*
X178661700Y-99010979D01*
X178667581Y-99005100D01*
X178681644Y-98987314D01*
X178688135Y-98979105D01*
X178715792Y-98946144D01*
X178738032Y-98919640D01*
X178738033Y-98919636D01*
X178738036Y-98919634D01*
X178742070Y-98913502D01*
X178742127Y-98913539D01*
X178746171Y-98907191D01*
X178746112Y-98907155D01*
X178749961Y-98900912D01*
X178749967Y-98900905D01*
X178782775Y-98830547D01*
X178817609Y-98761188D01*
X178817610Y-98761182D01*
X178820119Y-98754291D01*
X178820184Y-98754314D01*
X178822658Y-98747197D01*
X178822594Y-98747176D01*
X178824903Y-98740208D01*
X178840607Y-98664150D01*
X178849586Y-98626264D01*
X178858500Y-98588656D01*
X178858500Y-98588649D01*
X178859352Y-98581368D01*
X178859419Y-98581375D01*
X178860185Y-98573877D01*
X178860119Y-98573872D01*
X178860757Y-98566565D01*
X178860759Y-98566558D01*
X178858500Y-98488920D01*
X178858500Y-94166371D01*
X178878502Y-94098250D01*
X178895400Y-94077280D01*
X179040781Y-93931898D01*
X179054620Y-93919938D01*
X179074058Y-93905469D01*
X179108001Y-93865015D01*
X179111700Y-93860979D01*
X179117580Y-93855101D01*
X179138136Y-93829103D01*
X179188032Y-93769640D01*
X179188035Y-93769637D01*
X179192066Y-93763508D01*
X179192122Y-93763545D01*
X179196171Y-93757190D01*
X179196113Y-93757155D01*
X179199966Y-93750908D01*
X179232773Y-93680553D01*
X179255901Y-93634500D01*
X179267609Y-93611188D01*
X179267609Y-93611184D01*
X179270119Y-93604291D01*
X179270183Y-93604314D01*
X179272658Y-93597193D01*
X179272593Y-93597172D01*
X179274898Y-93590213D01*
X179274902Y-93590206D01*
X179281181Y-93559794D01*
X179290599Y-93514182D01*
X179308500Y-93438656D01*
X179309352Y-93431368D01*
X179309418Y-93431375D01*
X179310184Y-93423876D01*
X179310118Y-93423871D01*
X179310756Y-93416566D01*
X179310758Y-93416558D01*
X179308500Y-93338939D01*
X179308500Y-93297604D01*
X179328502Y-93229483D01*
X179382158Y-93182990D01*
X179452432Y-93172886D01*
X179517012Y-93202380D01*
X179529085Y-93214360D01*
X179622220Y-93320184D01*
X179808704Y-93470758D01*
X180017947Y-93587649D01*
X180243924Y-93667493D01*
X180480166Y-93708000D01*
X181246000Y-93708000D01*
X181246000Y-93015412D01*
X181266002Y-92947291D01*
X181319658Y-92900798D01*
X181388444Y-92890490D01*
X181460677Y-92900000D01*
X181460684Y-92900000D01*
X181539316Y-92900000D01*
X181539323Y-92900000D01*
X181611555Y-92890490D01*
X181681702Y-92901429D01*
X181734801Y-92948557D01*
X181754000Y-93015412D01*
X181754000Y-93708000D01*
X182459815Y-93708000D01*
X182638809Y-93692765D01*
X182638822Y-93692763D01*
X182870750Y-93632374D01*
X183089155Y-93533648D01*
X183089157Y-93533647D01*
X183287730Y-93399435D01*
X183287731Y-93399434D01*
X183460770Y-93233591D01*
X183603287Y-93040894D01*
X183711193Y-92826876D01*
X183711195Y-92826870D01*
X183781374Y-92597709D01*
X183786972Y-92554000D01*
X182215413Y-92554000D01*
X182147292Y-92533998D01*
X182100799Y-92480342D01*
X182090491Y-92411554D01*
X182105177Y-92300001D01*
X182105177Y-92299998D01*
X182090491Y-92188446D01*
X182101430Y-92118297D01*
X182148559Y-92065199D01*
X182215413Y-92046000D01*
X183785587Y-92046000D01*
X183751149Y-91886210D01*
X183661785Y-91663822D01*
X183536117Y-91459725D01*
X183377776Y-91279813D01*
X183191295Y-91129241D01*
X182982052Y-91012350D01*
X182756075Y-90932506D01*
X182519834Y-90892000D01*
X181754000Y-90892000D01*
X181754000Y-91584587D01*
X181733998Y-91652708D01*
X181680342Y-91699201D01*
X181611555Y-91709509D01*
X181539327Y-91700000D01*
X181539323Y-91700000D01*
X181460677Y-91700000D01*
X181460672Y-91700000D01*
X181388445Y-91709509D01*
X181318296Y-91698569D01*
X181265198Y-91651441D01*
X181246000Y-91584587D01*
X181246000Y-90892000D01*
X180540185Y-90892000D01*
X180361190Y-90907234D01*
X180361177Y-90907236D01*
X180129249Y-90967625D01*
X179910844Y-91066351D01*
X179910842Y-91066352D01*
X179712269Y-91200564D01*
X179712268Y-91200565D01*
X179539229Y-91366409D01*
X179539228Y-91366410D01*
X179535801Y-91371044D01*
X179479211Y-91413917D01*
X179408426Y-91419390D01*
X179345919Y-91385724D01*
X179311536Y-91323608D01*
X179308500Y-91296117D01*
X179308500Y-90171258D01*
X179328502Y-90103137D01*
X179382158Y-90056644D01*
X179452432Y-90046540D01*
X179500643Y-90064015D01*
X179627262Y-90142115D01*
X179795574Y-90197887D01*
X179899455Y-90208500D01*
X183100544Y-90208499D01*
X183204426Y-90197887D01*
X183372738Y-90142115D01*
X183523652Y-90049030D01*
X183649030Y-89923652D01*
X183742115Y-89772738D01*
X183797887Y-89604426D01*
X183808500Y-89500545D01*
X183808499Y-88099456D01*
X183805636Y-88071434D01*
X183797887Y-87995574D01*
X183769976Y-87911344D01*
X183742115Y-87827262D01*
X183649030Y-87676348D01*
X183649029Y-87676347D01*
X183649024Y-87676341D01*
X183523658Y-87550975D01*
X183523652Y-87550970D01*
X183493153Y-87532158D01*
X183372738Y-87457885D01*
X183288581Y-87429998D01*
X183204427Y-87402113D01*
X183204420Y-87402112D01*
X183100553Y-87391500D01*
X183100545Y-87391500D01*
X180685371Y-87391500D01*
X180617250Y-87371498D01*
X180570757Y-87317842D01*
X180560653Y-87247568D01*
X180590147Y-87182988D01*
X180596275Y-87176405D01*
X180732044Y-87040636D01*
X181178284Y-86594395D01*
X181192117Y-86582441D01*
X181211558Y-86567969D01*
X181245501Y-86527515D01*
X181249200Y-86523479D01*
X181255081Y-86517600D01*
X181265047Y-86504994D01*
X181275635Y-86491605D01*
X181297981Y-86464972D01*
X181325532Y-86432140D01*
X181325533Y-86432136D01*
X181325536Y-86432134D01*
X181329570Y-86426002D01*
X181329627Y-86426039D01*
X181333671Y-86419691D01*
X181333612Y-86419655D01*
X181337461Y-86413412D01*
X181337467Y-86413405D01*
X181370275Y-86343047D01*
X181405109Y-86273688D01*
X181405110Y-86273682D01*
X181407619Y-86266791D01*
X181407684Y-86266814D01*
X181410158Y-86259697D01*
X181410094Y-86259676D01*
X181412403Y-86252708D01*
X181428107Y-86176650D01*
X181442719Y-86114999D01*
X181446000Y-86101156D01*
X181446000Y-86101149D01*
X181446852Y-86093868D01*
X181446919Y-86093875D01*
X181447685Y-86086377D01*
X181447619Y-86086372D01*
X181448257Y-86079065D01*
X181448259Y-86079058D01*
X181445999Y-86001420D01*
X181445999Y-85536190D01*
X181466001Y-85468073D01*
X181482899Y-85447104D01*
X181510906Y-85419097D01*
X181573216Y-85385073D01*
X181644031Y-85390138D01*
X181689094Y-85419099D01*
X181796647Y-85526652D01*
X181796653Y-85526657D01*
X181796654Y-85526658D01*
X181945080Y-85618209D01*
X182110619Y-85673062D01*
X182212787Y-85683500D01*
X182812212Y-85683499D01*
X182914381Y-85673062D01*
X183079920Y-85618209D01*
X183228346Y-85526658D01*
X183351658Y-85403346D01*
X183443209Y-85254920D01*
X183498062Y-85089381D01*
X183508500Y-84987213D01*
X183508499Y-84412788D01*
X183498062Y-84310619D01*
X183443209Y-84145080D01*
X183351658Y-83996654D01*
X183351657Y-83996653D01*
X183351652Y-83996647D01*
X183270405Y-83915400D01*
X183236379Y-83853088D01*
X183233500Y-83826305D01*
X183233500Y-83721219D01*
X183253502Y-83653098D01*
X183293352Y-83613979D01*
X183398652Y-83549030D01*
X183524030Y-83423652D01*
X183617115Y-83272738D01*
X183672887Y-83104426D01*
X183683500Y-83000545D01*
X183683499Y-81999456D01*
X183672887Y-81895574D01*
X183617115Y-81727262D01*
X183524030Y-81576348D01*
X183524027Y-81576345D01*
X183524024Y-81576341D01*
X183398658Y-81450975D01*
X183398652Y-81450970D01*
X183398651Y-81450970D01*
X183247738Y-81357885D01*
X183163581Y-81329998D01*
X183079427Y-81302113D01*
X183079420Y-81302112D01*
X182975553Y-81291500D01*
X182224455Y-81291500D01*
X182120574Y-81302112D01*
X181952261Y-81357885D01*
X181801347Y-81450970D01*
X181801341Y-81450975D01*
X181675971Y-81576345D01*
X181673511Y-81579457D01*
X181671281Y-81581035D01*
X181670780Y-81581537D01*
X181670694Y-81581451D01*
X181615568Y-81620483D01*
X181544643Y-81623671D01*
X181483254Y-81588008D01*
X181475837Y-81579446D01*
X181473632Y-81576657D01*
X181348345Y-81451370D01*
X181348339Y-81451365D01*
X181197525Y-81358342D01*
X181029321Y-81302606D01*
X181029318Y-81302605D01*
X180925516Y-81292000D01*
X180804000Y-81292000D01*
X180804000Y-82628000D01*
X180783998Y-82696121D01*
X180730342Y-82742614D01*
X180678000Y-82754000D01*
X179467000Y-82754000D01*
X179467000Y-83000516D01*
X179477605Y-83104318D01*
X179477606Y-83104321D01*
X179533342Y-83272525D01*
X179626365Y-83423339D01*
X179626370Y-83423345D01*
X179751654Y-83548629D01*
X179751660Y-83548634D01*
X179902478Y-83641659D01*
X179935884Y-83652729D01*
X179994256Y-83693143D01*
X180021511Y-83758699D01*
X180008998Y-83828584D01*
X179974406Y-83871165D01*
X179971652Y-83873342D01*
X179848347Y-83996647D01*
X179848342Y-83996653D01*
X179756791Y-84145080D01*
X179701937Y-84310622D01*
X179691500Y-84412778D01*
X179691500Y-84987212D01*
X179701937Y-85089380D01*
X179756791Y-85254919D01*
X179756791Y-85254920D01*
X179848342Y-85403346D01*
X179892096Y-85447100D01*
X179926120Y-85509410D01*
X179929000Y-85536194D01*
X179929000Y-85646128D01*
X179908998Y-85714249D01*
X179892096Y-85735222D01*
X179722722Y-85904596D01*
X179660413Y-85938620D01*
X179633629Y-85941500D01*
X178814441Y-85941500D01*
X178796182Y-85940170D01*
X178772212Y-85936659D01*
X178772211Y-85936659D01*
X178765773Y-85937222D01*
X178719615Y-85941260D01*
X178714122Y-85941500D01*
X178705817Y-85941500D01*
X178672904Y-85945347D01*
X178595574Y-85952112D01*
X178588389Y-85953596D01*
X178588376Y-85953533D01*
X178581003Y-85955168D01*
X178581018Y-85955231D01*
X178573881Y-85956922D01*
X178518088Y-85977229D01*
X178500934Y-85983473D01*
X178464097Y-85995679D01*
X178427261Y-86007886D01*
X178420612Y-86010987D01*
X178420583Y-86010926D01*
X178413792Y-86014214D01*
X178413822Y-86014273D01*
X178407269Y-86017563D01*
X178342394Y-86060232D01*
X178276351Y-86100968D01*
X178270588Y-86105525D01*
X178270547Y-86105473D01*
X178264704Y-86110233D01*
X178264746Y-86110283D01*
X178259128Y-86114996D01*
X178205836Y-86171482D01*
X177323095Y-87054222D01*
X177260783Y-87088248D01*
X177189968Y-87083183D01*
X177133132Y-87040636D01*
X177108321Y-86974116D01*
X177108000Y-86965127D01*
X177108000Y-85551414D01*
X177107999Y-85551402D01*
X177101494Y-85490906D01*
X177050444Y-85354035D01*
X177050444Y-85354034D01*
X176962904Y-85237095D01*
X176845965Y-85149555D01*
X176709093Y-85098505D01*
X176648597Y-85092000D01*
X175704000Y-85092000D01*
X175704000Y-89608000D01*
X176565500Y-89608000D01*
X176633621Y-89628002D01*
X176680114Y-89681658D01*
X176691500Y-89734000D01*
X176691500Y-90365500D01*
X176671498Y-90433621D01*
X176617842Y-90480114D01*
X176565500Y-90491500D01*
X174251350Y-90491500D01*
X174190803Y-90498009D01*
X174190795Y-90498011D01*
X174053797Y-90549110D01*
X174053792Y-90549112D01*
X173936738Y-90636738D01*
X173849112Y-90753792D01*
X173849110Y-90753797D01*
X173798011Y-90890795D01*
X173798009Y-90890803D01*
X173791500Y-90951350D01*
X173791500Y-91865500D01*
X173771498Y-91933621D01*
X173717842Y-91980114D01*
X173665500Y-91991500D01*
X170834499Y-91991500D01*
X170766378Y-91971498D01*
X170719885Y-91917842D01*
X170708499Y-91865500D01*
X170708499Y-91099455D01*
X170697887Y-90995574D01*
X170683233Y-90951350D01*
X170642115Y-90827262D01*
X170549030Y-90676348D01*
X170549029Y-90676347D01*
X170549024Y-90676341D01*
X170423658Y-90550975D01*
X170423652Y-90550970D01*
X170337792Y-90498011D01*
X170272738Y-90457885D01*
X170188581Y-90429998D01*
X170104427Y-90402113D01*
X170104420Y-90402112D01*
X170000553Y-90391500D01*
X168799455Y-90391500D01*
X168695574Y-90402112D01*
X168527261Y-90457885D01*
X168376347Y-90550970D01*
X168376341Y-90550975D01*
X168250975Y-90676341D01*
X168250970Y-90676347D01*
X168157885Y-90827262D01*
X168102113Y-90995572D01*
X168102112Y-90995579D01*
X168091500Y-91099446D01*
X168091500Y-91765500D01*
X168071498Y-91833621D01*
X168017842Y-91880114D01*
X167965500Y-91891500D01*
X163260827Y-91891500D01*
X163192706Y-91871498D01*
X163146213Y-91817842D01*
X163136109Y-91747568D01*
X163165603Y-91682988D01*
X163171732Y-91676405D01*
X163174063Y-91674073D01*
X163174065Y-91674070D01*
X163174068Y-91674068D01*
X163300095Y-91520504D01*
X163393741Y-91345304D01*
X163451408Y-91155201D01*
X163466000Y-91007047D01*
X163465999Y-89907954D01*
X163462826Y-89875740D01*
X163451409Y-89759805D01*
X163451408Y-89759803D01*
X163451408Y-89759799D01*
X163393741Y-89569696D01*
X163300095Y-89394496D01*
X163174068Y-89240932D01*
X163020504Y-89114905D01*
X162845304Y-89021259D01*
X162655201Y-88963592D01*
X162655200Y-88963591D01*
X162655194Y-88963590D01*
X162526403Y-88950906D01*
X162507047Y-88949000D01*
X162507045Y-88949000D01*
X161407965Y-88949000D01*
X161407945Y-88949001D01*
X161259805Y-88963590D01*
X161069695Y-89021259D01*
X160894496Y-89114905D01*
X160787037Y-89203094D01*
X160721690Y-89230847D01*
X160651712Y-89218865D01*
X160627170Y-89203093D01*
X160520224Y-89115324D01*
X160345114Y-89021725D01*
X160345099Y-89021719D01*
X160155106Y-88964085D01*
X160155094Y-88964083D01*
X160007026Y-88949500D01*
X159626000Y-88949500D01*
X159557879Y-88929498D01*
X159511386Y-88875842D01*
X159500000Y-88823500D01*
X159500000Y-88052190D01*
X159520002Y-87984069D01*
X159536899Y-87963100D01*
X160212313Y-87287686D01*
X160274622Y-87253664D01*
X160303285Y-87250798D01*
X167967890Y-87365685D01*
X168035702Y-87386706D01*
X168081385Y-87441052D01*
X168092000Y-87491671D01*
X168092000Y-88800516D01*
X168102605Y-88904318D01*
X168102606Y-88904321D01*
X168158342Y-89072525D01*
X168251365Y-89223339D01*
X168251370Y-89223345D01*
X168376654Y-89348629D01*
X168376660Y-89348634D01*
X168527474Y-89441657D01*
X168695678Y-89497393D01*
X168695681Y-89497394D01*
X168799483Y-89507999D01*
X168799483Y-89508000D01*
X169146000Y-89508000D01*
X169146000Y-87504000D01*
X169654000Y-87504000D01*
X169654000Y-89508000D01*
X170000517Y-89508000D01*
X170000516Y-89507999D01*
X170104318Y-89497394D01*
X170104321Y-89497393D01*
X170272525Y-89441657D01*
X170423339Y-89348634D01*
X170423345Y-89348629D01*
X170548629Y-89223345D01*
X170548634Y-89223339D01*
X170641657Y-89072525D01*
X170697393Y-88904321D01*
X170697394Y-88904318D01*
X170707999Y-88800516D01*
X170708000Y-88800516D01*
X170708000Y-87604000D01*
X173792000Y-87604000D01*
X173792000Y-89148597D01*
X173798505Y-89209093D01*
X173849555Y-89345964D01*
X173849555Y-89345965D01*
X173937095Y-89462904D01*
X174054034Y-89550444D01*
X174190906Y-89601494D01*
X174251402Y-89607999D01*
X174251415Y-89608000D01*
X175196000Y-89608000D01*
X175196000Y-87604000D01*
X173792000Y-87604000D01*
X170708000Y-87604000D01*
X170708000Y-87504000D01*
X169654000Y-87504000D01*
X169146000Y-87504000D01*
X169146000Y-87096000D01*
X173792000Y-87096000D01*
X175196000Y-87096000D01*
X175196000Y-85092000D01*
X174251402Y-85092000D01*
X174190906Y-85098505D01*
X174054035Y-85149555D01*
X174054034Y-85149555D01*
X173937095Y-85237095D01*
X173849555Y-85354034D01*
X173849555Y-85354035D01*
X173798505Y-85490906D01*
X173792000Y-85551402D01*
X173792000Y-87096000D01*
X169146000Y-87096000D01*
X169146000Y-84992000D01*
X169654000Y-84992000D01*
X169654000Y-86996000D01*
X170708000Y-86996000D01*
X170708000Y-85699483D01*
X170697394Y-85595681D01*
X170697393Y-85595678D01*
X170641657Y-85427474D01*
X170548634Y-85276660D01*
X170548629Y-85276654D01*
X170423345Y-85151370D01*
X170423339Y-85151365D01*
X170272525Y-85058342D01*
X170104321Y-85002606D01*
X170104318Y-85002605D01*
X170000516Y-84992000D01*
X169654000Y-84992000D01*
X169146000Y-84992000D01*
X168799487Y-84992000D01*
X168794794Y-84992479D01*
X168724995Y-84979497D01*
X168673294Y-84930840D01*
X168656000Y-84867130D01*
X168656000Y-81700000D01*
X170044390Y-81700000D01*
X170064803Y-81985424D01*
X170125631Y-82265046D01*
X170225632Y-82533160D01*
X170225637Y-82533170D01*
X170362768Y-82784307D01*
X170362772Y-82784312D01*
X170534262Y-83013396D01*
X170534270Y-83013405D01*
X170736594Y-83215729D01*
X170736603Y-83215737D01*
X170736605Y-83215739D01*
X170965685Y-83387226D01*
X170965687Y-83387227D01*
X170965692Y-83387231D01*
X171216829Y-83524362D01*
X171216839Y-83524367D01*
X171484954Y-83624369D01*
X171764572Y-83685196D01*
X171978552Y-83700500D01*
X171978558Y-83700500D01*
X172121442Y-83700500D01*
X172121448Y-83700500D01*
X172335428Y-83685196D01*
X172615046Y-83624369D01*
X172883161Y-83524367D01*
X172913144Y-83507994D01*
X173134307Y-83387231D01*
X173134309Y-83387229D01*
X173134315Y-83387226D01*
X173363395Y-83215739D01*
X173565739Y-83013395D01*
X173737226Y-82784315D01*
X173737229Y-82784309D01*
X173737231Y-82784307D01*
X173874362Y-82533170D01*
X173874367Y-82533161D01*
X173974369Y-82265046D01*
X173978512Y-82246000D01*
X179467000Y-82246000D01*
X180296000Y-82246000D01*
X180296000Y-81292000D01*
X180174483Y-81292000D01*
X180070681Y-81302605D01*
X180070678Y-81302606D01*
X179902474Y-81358342D01*
X179751660Y-81451365D01*
X179751654Y-81451370D01*
X179626370Y-81576654D01*
X179626365Y-81576660D01*
X179533342Y-81727474D01*
X179477606Y-81895678D01*
X179477605Y-81895681D01*
X179467000Y-81999483D01*
X179467000Y-82246000D01*
X173978512Y-82246000D01*
X174035196Y-81985428D01*
X174055610Y-81700000D01*
X174035196Y-81414572D01*
X173974369Y-81134954D01*
X173874367Y-80866839D01*
X173874362Y-80866829D01*
X173737231Y-80615692D01*
X173737227Y-80615687D01*
X173737226Y-80615685D01*
X173565739Y-80386605D01*
X173565737Y-80386603D01*
X173565729Y-80386594D01*
X173363405Y-80184270D01*
X173363396Y-80184262D01*
X173134312Y-80012772D01*
X173134307Y-80012768D01*
X172883170Y-79875637D01*
X172883160Y-79875632D01*
X172615046Y-79775631D01*
X172335424Y-79714803D01*
X172201775Y-79705245D01*
X172121448Y-79699500D01*
X171978552Y-79699500D01*
X171902954Y-79704906D01*
X171764575Y-79714803D01*
X171484953Y-79775631D01*
X171216839Y-79875632D01*
X171216829Y-79875637D01*
X170965692Y-80012768D01*
X170965687Y-80012772D01*
X170736603Y-80184262D01*
X170736594Y-80184270D01*
X170534270Y-80386594D01*
X170534262Y-80386603D01*
X170362772Y-80615687D01*
X170362768Y-80615692D01*
X170225637Y-80866829D01*
X170225632Y-80866839D01*
X170125631Y-81134953D01*
X170064803Y-81414575D01*
X170044390Y-81700000D01*
X168656000Y-81700000D01*
X168656000Y-77426500D01*
X168676002Y-77358379D01*
X168729658Y-77311886D01*
X168782000Y-77300500D01*
X184748098Y-77300500D01*
X184751899Y-77300614D01*
G37*
%TD.AperFunction*%
%TA.AperFunction,Conductor*%
G36*
X164433621Y-101166002D02*
G01*
X164480114Y-101219658D01*
X164491500Y-101272000D01*
X164491500Y-102633000D01*
X164625517Y-102633000D01*
X164625516Y-102632999D01*
X164729318Y-102622394D01*
X164729321Y-102622393D01*
X164897525Y-102566657D01*
X165048339Y-102473634D01*
X165048345Y-102473629D01*
X165173629Y-102348345D01*
X165173634Y-102348339D01*
X165266657Y-102197525D01*
X165314306Y-102053729D01*
X165354720Y-101995358D01*
X165420277Y-101968102D01*
X165490162Y-101980615D01*
X165523006Y-102004267D01*
X165643189Y-102124450D01*
X165643196Y-102124455D01*
X165786394Y-102209143D01*
X165786397Y-102209143D01*
X165786399Y-102209145D01*
X165840397Y-102224832D01*
X165900231Y-102263045D01*
X165929909Y-102327541D01*
X165931181Y-102341866D01*
X165931826Y-102362387D01*
X165931827Y-102362393D01*
X165937477Y-102381839D01*
X165941486Y-102401197D01*
X165944025Y-102421293D01*
X165944026Y-102421299D01*
X165961393Y-102465162D01*
X165963316Y-102470779D01*
X165976482Y-102516093D01*
X165986794Y-102533531D01*
X165995488Y-102551279D01*
X166002944Y-102570109D01*
X166002950Y-102570120D01*
X166030677Y-102608283D01*
X166033937Y-102613246D01*
X166057960Y-102653865D01*
X166072279Y-102668184D01*
X166085117Y-102683214D01*
X166094656Y-102696343D01*
X166095868Y-102698011D01*
X166097026Y-102699604D01*
X166097030Y-102699609D01*
X166133380Y-102729680D01*
X166137773Y-102733677D01*
X166542757Y-103138662D01*
X166552719Y-103151096D01*
X166552946Y-103150909D01*
X166558000Y-103157018D01*
X166609079Y-103204984D01*
X166630223Y-103226129D01*
X166630227Y-103226132D01*
X166630230Y-103226135D01*
X166635782Y-103230442D01*
X166640269Y-103234273D01*
X166658123Y-103251039D01*
X166674677Y-103266585D01*
X166674679Y-103266586D01*
X166692428Y-103276343D01*
X166708953Y-103287198D01*
X166724959Y-103299614D01*
X166764225Y-103316605D01*
X166768262Y-103318352D01*
X166773583Y-103320958D01*
X166814940Y-103343695D01*
X166814948Y-103343697D01*
X166834558Y-103348732D01*
X166853267Y-103355137D01*
X166871855Y-103363181D01*
X166918477Y-103370564D01*
X166924262Y-103371763D01*
X166969970Y-103383500D01*
X166969979Y-103383500D01*
X166977833Y-103384493D01*
X166977512Y-103387027D01*
X167033621Y-103403502D01*
X167080114Y-103457158D01*
X167091500Y-103509500D01*
X167091500Y-106548649D01*
X167098009Y-106609196D01*
X167098011Y-106609204D01*
X167149110Y-106746202D01*
X167149112Y-106746207D01*
X167236738Y-106863261D01*
X167353794Y-106950888D01*
X167361160Y-106954910D01*
X167411365Y-107005109D01*
X167426459Y-107074483D01*
X167401652Y-107141004D01*
X167344818Y-107183554D01*
X167300780Y-107191500D01*
X166314441Y-107191500D01*
X166296182Y-107190170D01*
X166272212Y-107186659D01*
X166272211Y-107186659D01*
X166265773Y-107187222D01*
X166219615Y-107191260D01*
X166214122Y-107191500D01*
X166205817Y-107191500D01*
X166172904Y-107195347D01*
X166095574Y-107202112D01*
X166088389Y-107203596D01*
X166088376Y-107203533D01*
X166081003Y-107205168D01*
X166081018Y-107205231D01*
X166073881Y-107206922D01*
X166027901Y-107223658D01*
X166000934Y-107233473D01*
X165964098Y-107245679D01*
X165927261Y-107257886D01*
X165920612Y-107260987D01*
X165920583Y-107260926D01*
X165913792Y-107264214D01*
X165913822Y-107264273D01*
X165907269Y-107267563D01*
X165842394Y-107310232D01*
X165776351Y-107350968D01*
X165770588Y-107355525D01*
X165770547Y-107355473D01*
X165764704Y-107360233D01*
X165764746Y-107360283D01*
X165759128Y-107364996D01*
X165705836Y-107421482D01*
X165273594Y-107853723D01*
X165211282Y-107887748D01*
X165140466Y-107882683D01*
X165083631Y-107840136D01*
X165058820Y-107773616D01*
X165058499Y-107764649D01*
X165058499Y-107312788D01*
X165057997Y-107307878D01*
X165048062Y-107210619D01*
X165004899Y-107080360D01*
X164993209Y-107045080D01*
X164901658Y-106896654D01*
X164901657Y-106896653D01*
X164901652Y-106896647D01*
X164778600Y-106773595D01*
X164744574Y-106711283D01*
X164749639Y-106640468D01*
X164792186Y-106583632D01*
X164858706Y-106558821D01*
X164867695Y-106558500D01*
X164866506Y-106558500D01*
X164891387Y-106556541D01*
X164903831Y-106555562D01*
X165063601Y-106509145D01*
X165063603Y-106509143D01*
X165063605Y-106509143D01*
X165135203Y-106466798D01*
X165206807Y-106424453D01*
X165324453Y-106306807D01*
X165409145Y-106163601D01*
X165455562Y-106003831D01*
X165458500Y-105966502D01*
X165458500Y-105533498D01*
X165455562Y-105496169D01*
X165409145Y-105336399D01*
X165409143Y-105336397D01*
X165409143Y-105336394D01*
X165324455Y-105193196D01*
X165324450Y-105193189D01*
X165206810Y-105075549D01*
X165206803Y-105075544D01*
X165063605Y-104990856D01*
X164903829Y-104944437D01*
X164866506Y-104941500D01*
X164866502Y-104941500D01*
X163708498Y-104941500D01*
X163708494Y-104941500D01*
X163671170Y-104944437D01*
X163671167Y-104944438D01*
X163526398Y-104986497D01*
X163491246Y-104991500D01*
X163309500Y-104991500D01*
X163241379Y-104971498D01*
X163194886Y-104917842D01*
X163183500Y-104865500D01*
X163183500Y-104635546D01*
X163203502Y-104567425D01*
X163257158Y-104520932D01*
X163327432Y-104510828D01*
X163373639Y-104527092D01*
X163511598Y-104608681D01*
X163671251Y-104655065D01*
X163671249Y-104655065D01*
X163708539Y-104658000D01*
X164033500Y-104657999D01*
X164033500Y-104104000D01*
X164541500Y-104104000D01*
X164541500Y-104657999D01*
X164866458Y-104657999D01*
X164903750Y-104655065D01*
X165063400Y-104608681D01*
X165206501Y-104524051D01*
X165206503Y-104524050D01*
X165324050Y-104406503D01*
X165324051Y-104406501D01*
X165408681Y-104263401D01*
X165454993Y-104104000D01*
X164541500Y-104104000D01*
X164033500Y-104104000D01*
X163120006Y-104104000D01*
X163117241Y-104107683D01*
X163060345Y-104150148D01*
X162989522Y-104155112D01*
X162939941Y-104127992D01*
X162938070Y-104130405D01*
X162931803Y-104125544D01*
X162788605Y-104040856D01*
X162628829Y-103994437D01*
X162591506Y-103991500D01*
X162591502Y-103991500D01*
X162385371Y-103991500D01*
X162317250Y-103971498D01*
X162270757Y-103917842D01*
X162260653Y-103847568D01*
X162290147Y-103782988D01*
X162296275Y-103776405D01*
X162376478Y-103696202D01*
X162476680Y-103596000D01*
X163120007Y-103596000D01*
X164033500Y-103596000D01*
X164033500Y-103042000D01*
X164541500Y-103042000D01*
X164541500Y-103596000D01*
X165454992Y-103596000D01*
X165408681Y-103436598D01*
X165324051Y-103293498D01*
X165324050Y-103293496D01*
X165206503Y-103175949D01*
X165206501Y-103175948D01*
X165063401Y-103091318D01*
X164903748Y-103044934D01*
X164903750Y-103044934D01*
X164866461Y-103042000D01*
X164541500Y-103042000D01*
X164033500Y-103042000D01*
X163708542Y-103042001D01*
X163708543Y-103042001D01*
X163671249Y-103044934D01*
X163511599Y-103091318D01*
X163368498Y-103175948D01*
X163368496Y-103175949D01*
X163250949Y-103293496D01*
X163250948Y-103293498D01*
X163166318Y-103436598D01*
X163120007Y-103596000D01*
X162476680Y-103596000D01*
X162653284Y-103419395D01*
X162667117Y-103407441D01*
X162686558Y-103392969D01*
X162720501Y-103352515D01*
X162724200Y-103348479D01*
X162730081Y-103342600D01*
X162747187Y-103320965D01*
X162750635Y-103316605D01*
X162784421Y-103276340D01*
X162800532Y-103257140D01*
X162800533Y-103257136D01*
X162800536Y-103257134D01*
X162804570Y-103251002D01*
X162804627Y-103251039D01*
X162808671Y-103244691D01*
X162808612Y-103244655D01*
X162812461Y-103238412D01*
X162812467Y-103238405D01*
X162845275Y-103168047D01*
X162880109Y-103098688D01*
X162880110Y-103098682D01*
X162882619Y-103091791D01*
X162882684Y-103091814D01*
X162885158Y-103084697D01*
X162885094Y-103084676D01*
X162887403Y-103077708D01*
X162903107Y-103001650D01*
X162913334Y-102958500D01*
X162921000Y-102926156D01*
X162921000Y-102926149D01*
X162921852Y-102918868D01*
X162921919Y-102918875D01*
X162922685Y-102911377D01*
X162922619Y-102911372D01*
X162923257Y-102904065D01*
X162923259Y-102904058D01*
X162921000Y-102826420D01*
X162921000Y-102576661D01*
X162941002Y-102508541D01*
X162968857Y-102477820D01*
X162973642Y-102474035D01*
X162973652Y-102474030D01*
X163099030Y-102348652D01*
X163099037Y-102348639D01*
X163101478Y-102345554D01*
X163103709Y-102343973D01*
X163104220Y-102343463D01*
X163104307Y-102343550D01*
X163159416Y-102304521D01*
X163230340Y-102301324D01*
X163291734Y-102336980D01*
X163299161Y-102345551D01*
X163301369Y-102348344D01*
X163426654Y-102473629D01*
X163426660Y-102473634D01*
X163577474Y-102566657D01*
X163745678Y-102622393D01*
X163745681Y-102622394D01*
X163849483Y-102632999D01*
X163849483Y-102633000D01*
X163983500Y-102633000D01*
X163983500Y-101272000D01*
X164003502Y-101203879D01*
X164057158Y-101157386D01*
X164109500Y-101146000D01*
X164365500Y-101146000D01*
X164433621Y-101166002D01*
G37*
%TD.AperFunction*%
%TA.AperFunction,Conductor*%
G36*
X167743674Y-98589783D02*
G01*
X167788742Y-98618746D01*
X167796654Y-98626658D01*
X167890137Y-98684319D01*
X167937614Y-98737104D01*
X167949017Y-98807179D01*
X167920725Y-98872295D01*
X167913085Y-98880654D01*
X167800542Y-98993197D01*
X167799556Y-98994469D01*
X167798530Y-98995209D01*
X167794942Y-98998798D01*
X167794363Y-98998219D01*
X167741998Y-99036034D01*
X167671106Y-99039881D01*
X167609387Y-99004791D01*
X167600444Y-98994469D01*
X167599454Y-98993193D01*
X167486551Y-98880290D01*
X167452525Y-98817978D01*
X167457590Y-98747163D01*
X167500137Y-98690327D01*
X167509500Y-98683954D01*
X167603030Y-98626264D01*
X167603032Y-98626263D01*
X167610547Y-98618748D01*
X167672858Y-98584721D01*
X167743674Y-98589783D01*
G37*
%TD.AperFunction*%
%TA.AperFunction,Conductor*%
G36*
X165633621Y-96553502D02*
G01*
X165680114Y-96607158D01*
X165691500Y-96659500D01*
X165691500Y-96718649D01*
X165698009Y-96779196D01*
X165698011Y-96779204D01*
X165749110Y-96916202D01*
X165749112Y-96916207D01*
X165836736Y-97033258D01*
X165836737Y-97033259D01*
X165836739Y-97033261D01*
X165848057Y-97041733D01*
X165890602Y-97098568D01*
X165895668Y-97169384D01*
X165879789Y-97208746D01*
X165857250Y-97245287D01*
X165802431Y-97410723D01*
X165802430Y-97410726D01*
X165792000Y-97512815D01*
X165792000Y-97546000D01*
X166965500Y-97546000D01*
X167033621Y-97566002D01*
X167080114Y-97619658D01*
X167091500Y-97672000D01*
X167091500Y-97928000D01*
X167071498Y-97996121D01*
X167017842Y-98042614D01*
X166965500Y-98054000D01*
X165792000Y-98054000D01*
X165792000Y-98087184D01*
X165802430Y-98189273D01*
X165802431Y-98189276D01*
X165857248Y-98354707D01*
X165948737Y-98503033D01*
X165948742Y-98503039D01*
X165984565Y-98538862D01*
X166018591Y-98601174D01*
X166013526Y-98671989D01*
X165970979Y-98728825D01*
X165930623Y-98748954D01*
X165786394Y-98790856D01*
X165643196Y-98875544D01*
X165643189Y-98875549D01*
X165639144Y-98879595D01*
X165576832Y-98913621D01*
X165550049Y-98916500D01*
X165159500Y-98916500D01*
X165091379Y-98896498D01*
X165044886Y-98842842D01*
X165033500Y-98790500D01*
X165033500Y-96714595D01*
X165053502Y-96646474D01*
X165070405Y-96625499D01*
X165125501Y-96570404D01*
X165187814Y-96536379D01*
X165214596Y-96533500D01*
X165565500Y-96533500D01*
X165633621Y-96553502D01*
G37*
%TD.AperFunction*%
%TA.AperFunction,Conductor*%
G36*
X173733621Y-93528502D02*
G01*
X173780114Y-93582158D01*
X173791500Y-93634500D01*
X173791500Y-94548649D01*
X173798009Y-94609196D01*
X173798011Y-94609204D01*
X173849110Y-94746202D01*
X173849113Y-94746208D01*
X173858098Y-94758210D01*
X173882910Y-94824730D01*
X173882839Y-94833629D01*
X174860114Y-95810904D01*
X174894140Y-95873216D01*
X174889075Y-95944031D01*
X174860114Y-95989094D01*
X173883649Y-96965558D01*
X173886630Y-96999622D01*
X173872642Y-97069227D01*
X173823244Y-97120220D01*
X173800743Y-97130209D01*
X173645083Y-97181789D01*
X173496653Y-97273342D01*
X173496647Y-97273347D01*
X173389095Y-97380900D01*
X173326783Y-97414926D01*
X173255968Y-97409861D01*
X173210905Y-97380900D01*
X173103346Y-97273341D01*
X173097588Y-97268788D01*
X173098887Y-97267144D01*
X173058373Y-97222099D01*
X173046000Y-97167647D01*
X173046000Y-96746288D01*
X173066002Y-96678167D01*
X173068772Y-96674039D01*
X173161443Y-96541692D01*
X173206081Y-96445964D01*
X173252996Y-96392681D01*
X173321273Y-96373219D01*
X173389233Y-96393760D01*
X173434469Y-96445964D01*
X173478990Y-96541438D01*
X173524440Y-96606349D01*
X174230790Y-95900000D01*
X174230790Y-95899999D01*
X173524439Y-95193649D01*
X173478992Y-95258558D01*
X173434469Y-95354036D01*
X173387551Y-95407320D01*
X173319274Y-95426780D01*
X173251314Y-95406237D01*
X173206080Y-95354033D01*
X173199745Y-95340448D01*
X173161443Y-95258308D01*
X173033129Y-95075057D01*
X172874943Y-94916871D01*
X172856888Y-94904229D01*
X172691692Y-94788557D01*
X172488946Y-94694015D01*
X172488940Y-94694013D01*
X172382219Y-94665417D01*
X172272857Y-94636113D01*
X172050000Y-94616616D01*
X172049999Y-94616616D01*
X171827143Y-94636113D01*
X171645953Y-94684663D01*
X171574977Y-94682973D01*
X171516181Y-94643179D01*
X171504223Y-94625956D01*
X171439041Y-94513058D01*
X171439034Y-94513048D01*
X171311255Y-94371135D01*
X171156752Y-94258882D01*
X170982288Y-94181206D01*
X170808303Y-94144224D01*
X170745829Y-94110495D01*
X170711508Y-94048346D01*
X170708500Y-94020977D01*
X170708500Y-93634500D01*
X170728502Y-93566379D01*
X170782158Y-93519886D01*
X170834500Y-93508500D01*
X173665500Y-93508500D01*
X173733621Y-93528502D01*
G37*
%TD.AperFunction*%
%TD*%
M02*
