M48
; DRILL file {KiCad 7.0.7-7.0.7~ubuntu22.04.1} date Fri 12 Jan 2024 06:41:45 PM +0530
; FORMAT={-:-/ absolute / inch / decimal}
; #@! TF.CreationDate,2024-01-12T18:41:45+05:30
; #@! TF.GenerationSoftware,Kicad,Pcbnew,7.0.7-7.0.7~ubuntu22.04.1
; #@! TF.FileFunction,Plated,1,2,PTH
FMAT,2
INCH
; #@! TA.AperFunction,Plated,PTH,ViaDrill
T1C0.0157
; #@! TA.AperFunction,Plated,PTH,ComponentDrill
T2C0.0315
; #@! TA.AperFunction,Plated,PTH,ComponentDrill
T3C0.0374
; #@! TA.AperFunction,Plated,PTH,ComponentDrill
T4C0.0394
; #@! TA.AperFunction,Plated,PTH,ComponentDrill
T5C0.0472
; #@! TA.AperFunction,Plated,PTH,ComponentDrill
T6C0.0591
; #@! TA.AperFunction,Plated,PTH,ComponentDrill
T7C0.0630
%
G90
G05
T1
X6.4587Y-4.2972
X6.4744Y-3.9193
X6.6909Y-3.8819
X6.694Y-4.0184
X6.7205Y-3.7421
X6.7244Y-3.8228
X6.7264Y-3.9508
X6.7264Y-3.9961
X6.8346Y-3.7441
T2
X4.1732Y-4.3287
X4.189Y-3.4239
X4.4843Y-3.4882
X4.5669Y-4.3287
X4.6969Y-3.4449
X4.6969Y-3.8386
X4.8992Y-3.4055
X4.8992Y-3.7205
X5.1748Y-3.4055
X5.1748Y-3.7205
T3
X5.4314Y-3.5613
X5.6282Y-3.5613
X6.2779Y-3.5613
X6.3763Y-3.5613
T4
X4.2244Y-3.7323
X4.4244Y-3.7323
T5
X4.1453Y-4.0413
X4.9453Y-4.0413
X7.1457Y-3.4961
X7.1457Y-3.6339
X7.1457Y-4.1772
X7.1457Y-4.315
T6
X5.0906Y-4.0236
X5.0906Y-4.3189
X5.2874Y-4.0236
X5.2874Y-4.3189
X5.4843Y-4.0236
X5.4843Y-4.3189
X6.0748Y-4.0236
X6.0748Y-4.3189
T7
X3.6575Y-3.385
X3.6575Y-3.685
X3.6575Y-3.985
X3.6575Y-4.285
T0
M30
