<?xml version="1.0" encoding="UTF-8" standalone="no"?>
<svg
   version="1.1"
   width="98.151718mm"
   height="36.299999mm"
   viewBox="0 0 98.151719 36.299999"
   id="svg1178"
   sodipodi:docname="electronic-limit-sw-brd-top.svg"
   inkscape:version="1.3.2 (1:1.3.2+202404261509+091e20ef0f)"
   xmlns:inkscape="http://www.inkscape.org/namespaces/inkscape"
   xmlns:sodipodi="http://sodipodi.sourceforge.net/DTD/sodipodi-0.dtd"
   xmlns="http://www.w3.org/2000/svg"
   xmlns:svg="http://www.w3.org/2000/svg"
   xmlns:rdf="http://www.w3.org/1999/02/22-rdf-syntax-ns#"
   xmlns:cc="http://creativecommons.org/ns#"
   xmlns:dc="http://purl.org/dc/elements/1.1/">
  <defs
     id="defs1178" />
  <sodipodi:namedview
     id="namedview1178"
     pagecolor="#ffffff"
     bordercolor="#000000"
     borderopacity="0.25"
     inkscape:showpageshadow="2"
     inkscape:pageopacity="0.0"
     inkscape:pagecheckerboard="0"
     inkscape:deskcolor="#d1d1d1"
     inkscape:document-units="mm"
     inkscape:zoom="1.9562987"
     inkscape:cx="231.04856"
     inkscape:cy="82.298271"
     inkscape:window-width="1854"
     inkscape:window-height="1011"
     inkscape:window-x="0"
     inkscape:window-y="0"
     inkscape:window-maximized="1"
     inkscape:current-layer="svg1178" />
  <title
     id="title1">SVG Image created as electronic-limit-sw-brd.svg date 2024/06/21 10:39:36 </title>
  <desc
     id="desc1">Image generated by PCBNEW </desc>
  <g
     style="fill:none;fill-opacity:1;stroke:#000000;stroke-opacity:1"
     id="g39"
     transform="translate(-88.89828,-77.25)">
    <circle
       cx="118.3"
       cy="82.050003"
       r="1.75"
       id="circle38"
       style="fill:none;stroke:#000000;stroke-opacity:1" />
  </g>
  <g
     style="fill:none;fill-opacity:1;stroke:#000000;stroke-opacity:1"
     id="g40"
     transform="translate(-88.89828,-77.25)">
    <circle
       cx="182.2"
       cy="99.199997"
       r="1.75"
       id="circle39"
       style="stroke:#000000;stroke-opacity:1;fill:none" />
  </g>
  <path
     style="fill:#000000;fill-opacity:1;fill-rule:evenodd;stroke:none"
     d="m 94.15172,27.95 0.0957,0.019 0.0811,0.0542 0.0542,0.0811 0.019,0.0957 v 1.3 l -0.019,0.0957 -0.0542,0.0811 -0.0811,0.0542 -0.0957,0.019 h -3.1 l -0.0957,-0.019 -0.0811,-0.0542 -0.0542,-0.0811 -0.019,-0.0957 v -1.3 l 0.019,-0.0957 0.0542,-0.0811 0.0811,-0.0542 0.0957,-0.019 z"
     id="path47" />
  <path
     d="m 93.50172,32.35 h -1.8"
     id="path48"
     style="fill:none;stroke:#000000;stroke-width:1.8;stroke-linecap:round;stroke-linejoin:round;stroke-opacity:1" />
  <path
     style="fill:#000000;fill-opacity:1;fill-rule:evenodd;stroke:none;stroke-width:1.8;stroke-linecap:round;stroke-linejoin:round;stroke-opacity:1"
     d="m 3.1017202,33.39 -0.1408,-0.0111 -0.1817,-0.0487 -0.1677,-0.0854 -0.1462,-0.1184 -0.1184,-0.1462 -0.0854,-0.1677 -0.0487,-0.1817 -0.0111,-0.1408 v -1.8 l 0.0111,-0.1408 0.0487,-0.1817 0.0854,-0.1677 0.1184,-0.1462 0.1462,-0.1184 0.1677,-0.0854 0.1817,-0.0487 0.1408,-0.0111 h 1.8 l 0.1408,0.0111 0.1817,0.0487 0.1677,0.0854 0.1462,0.1184 0.1184,0.1462 0.0854,0.1677 0.0487,0.1817 0.0111,0.1408 v 1.8 l -0.0111,0.1408 -0.0487,0.1817 -0.0854,0.1677 -0.1184,0.1462 -0.1462,0.1184 -0.1677,0.0854 -0.1817,0.0487 -0.1408,0.0111 z"
     id="path53" />
  <path
     style="fill:#000000;fill-opacity:1;fill-rule:evenodd;stroke:none;stroke-width:1.8;stroke-linecap:round;stroke-linejoin:round;stroke-opacity:1"
     d="m 3.1017202,25.77 -0.1408,-0.0111 -0.1817,-0.0487 -0.1677,-0.0854 -0.1462,-0.1184 -0.1184,-0.1462 -0.0854,-0.1677 -0.0487,-0.1817 -0.0111,-0.1408 v -1.8 l 0.0111,-0.1408 0.0487,-0.1817 0.0854,-0.1677 0.1184,-0.1462 0.1462,-0.1184 0.1677,-0.0854 0.1817,-0.0487 0.1408,-0.0111 h 1.8 l 0.1408,0.0111 0.1817,0.0487 0.1677,0.0854 0.1462,0.1184 0.1184,0.1462 0.0854,0.1677 0.0487,0.1817 0.0111,0.1408 v 1.8 l -0.0111,0.1408 -0.0487,0.1817 -0.0854,0.1677 -0.1184,0.1462 -0.1462,0.1184 -0.1677,0.0854 -0.1817,0.0487 -0.1408,0.0111 z"
     id="path54" />
  <path
     style="fill:#000000;fill-opacity:1;fill-rule:evenodd;stroke:none;stroke-width:1.8;stroke-linecap:round;stroke-linejoin:round;stroke-opacity:1"
     d="m 3.1017202,18.15 -0.1408,-0.0111 -0.1817,-0.0487 -0.1677,-0.0854 -0.1462,-0.1184 -0.1184,-0.1462 -0.0854,-0.1677 -0.0487,-0.1817 -0.0111,-0.1408 v -1.8 l 0.0111,-0.1408 0.0487,-0.1817 0.0854,-0.1677 0.1184,-0.1462 0.1462,-0.1184 0.1677,-0.0854 0.1817,-0.0487 0.1408,-0.0111 h 1.8 l 0.1408,0.0111 0.1817,0.0487 0.1677,0.0854 0.1462,0.1184 0.1184,0.1462 0.0854,0.1677 0.0487,0.1817 0.0111,0.1408 v 1.8 l -0.0111,0.1408 -0.0487,0.1817 -0.0854,0.1677 -0.1184,0.1462 -0.1462,0.1184 -0.1677,0.0854 -0.1817,0.0487 -0.1408,0.0111 z"
     id="path55" />
  <path
     style="fill:#000000;fill-opacity:1;fill-rule:evenodd;stroke:none;stroke-width:1.8;stroke-linecap:round;stroke-linejoin:round;stroke-opacity:1"
     d="m 3.1017202,10.53 -0.1408,-0.0111 -0.1817,-0.0487 -0.1677,-0.0854 -0.1462,-0.1184 -0.1184,-0.1462 -0.0854,-0.1677 -0.0487,-0.1817 -0.0111,-0.1408 v -1.8 l 0.0111,-0.1408 0.0487,-0.1817 0.0854,-0.1677 0.1184,-0.1462 0.1462,-0.1184 0.1677,-0.0854 0.1817,-0.0487 0.1408,-0.0111 h 1.8 l 0.1408,0.0111 0.1817,0.0487 0.1677,0.0854 0.1462,0.1184 0.1184,0.1462 0.0854,0.1677 0.0487,0.1817 0.0111,0.1408 v 1.8 l -0.0111,0.1408 -0.0487,0.1817 -0.0854,0.1677 -0.1184,0.1462 -0.1462,0.1184 -0.1677,0.0854 -0.1817,0.0487 -0.1408,0.0111 z"
     id="path56" />
  <circle
     cx="32.951717"
     cy="32.050003"
     r="1.75"
     id="circle56"
     style="fill:none;fill-opacity:1;stroke:#000000;stroke-opacity:1" />
  <path
     style="fill:#000000;fill-opacity:1;fill-rule:evenodd;stroke:none;stroke-opacity:1"
     d="m 94.15172,10.65 0.0957,0.019 0.0811,0.0542 0.0542,0.0811 0.019,0.0957 v 1.3 l -0.019,0.0957 -0.0542,0.0811 -0.0811,0.0542 -0.0957,0.019 h -3.1 l -0.0957,-0.019 -0.0811,-0.0542 -0.0542,-0.0811 -0.019,-0.0957 v -1.3 l 0.019,-0.0957 0.0542,-0.0811 0.0811,-0.0542 0.0957,-0.019 z"
     id="path57" />
  <g
     style="fill:none;stroke:#000000;stroke-width:1.8;stroke-linecap:round;stroke-linejoin:round;stroke-opacity:1"
     id="g58"
     transform="translate(-88.89828,-77.25)">
    <path
       d="m 182.4,92.3 h -1.8"
       id="path58" />
  </g>
  <circle
     cx="83.151726"
     cy="4.4499969"
     r="1.75"
     id="circle58"
     style="fill:none;fill-opacity:1;stroke:#000000;stroke-opacity:1" />
  <path
     style="fill:#000000;fill-opacity:1;fill-rule:evenodd;stroke:none"
     d="m 91.07672,4.8 0.019,-0.0957 0.0542,-0.0811 0.0811,-0.0542 0.0957,-0.019 h 0.65 l 0.0957,0.019 0.0811,0.0542 0.0542,0.0811 0.019,0.0957 v 0.9 l -0.019,0.0957 -0.0542,0.0811 -0.0811,0.0542 -0.0957,0.019 h -0.65 L 91.23102,5.931 91.14992,5.8768 91.09572,5.7957 91.07672,5.7 Z"
     id="path59" />
  <path
     style="fill:#000000;fill-opacity:1;fill-rule:evenodd;stroke:none"
     d="m 93.12672,4.8 0.019,-0.0957 0.0542,-0.0811 0.0811,-0.0542 0.0957,-0.019 h 0.65 l 0.0957,0.019 0.0811,0.0542 0.0542,0.0811 0.019,0.0957 v 0.9 l -0.019,0.0957 -0.0542,0.0811 -0.0811,0.0542 -0.0957,0.019 h -0.65 L 93.28102,5.931 93.19992,5.8768 93.14572,5.7957 93.12672,5.7 Z"
     id="path60" />
  <g
     style="fill:none;stroke:#000000;stroke-width:1;stroke-linecap:round;stroke-linejoin:round;stroke-opacity:1"
     id="g77"
     transform="translate(-88.89828,-77.25)">
    <path
       d="m 91.1,77.8 a 1.9325,1.9325 0 0 0 -1.7,2"
       id="path70" />
    <path
       d="M 186.5,79.6 V 85"
       id="path71" />
    <path
       d="M 89.4,79.8 V 82"
       id="path72" />
    <path
       d="m 186.5,96.2 v 5.4"
       id="path73" />
    <path
       d="m 89.4999,111.3013 a 1.7368,1.7368 0 0 0 1.9001,1.7"
       id="path74" />
    <path
       d="m 91.2,113 h 93.5"
       id="path75" />
    <path
       d="m 91.1,77.8 h 93.5"
       id="path76" />
    <path
       d="M 186.5187,79.4692 A 1.8959,1.8959 0 0 0 184.6,77.8"
       id="path77" />
  </g>
  <g
     style="fill:none;stroke:#000000;stroke-width:0.15;stroke-linecap:round;stroke-linejoin:round;stroke-opacity:1"
     id="g209"
     transform="translate(-88.89828,-77.25)">
    <g
       transform="rotate(-90,90,101.25)"
       id="g133">
      <text
         x="90"
         y="101.75"
         textLength="5.1071"
         font-size="1.3333px"
         lengthAdjust="spacingAndGlyphs"
         text-anchor="middle"
         opacity="0"
         id="text132">CNT-L</text>
    </g>
    <g
       class="stroked-text"
       id="g155">
      <desc
         id="desc133">CNT-L</desc>
      <path
         d="m 90.3596,102.869 0.0476,0.0477"
         id="path133" />
      <path
         d="m 90.4072,102.9167 0.0476,0.1428"
         id="path134" />
      <path
         d="m 90.4548,103.0595 v 0.0953"
         id="path135" />
      <path
         d="m 90.4548,103.1548 -0.0476,0.1428"
         id="path136" />
      <path
         d="m 90.4072,103.2976 -0.0952,0.0953"
         id="path137" />
      <path
         d="m 90.312,103.3929 -0.0953,0.0476"
         id="path138" />
      <path
         d="m 90.2167,103.4405 -0.1905,0.0476"
         id="path139" />
      <path
         d="M 90.0262,103.4881 H 89.8834"
         id="path140" />
      <path
         d="m 89.8834,103.4881 -0.1905,-0.0476"
         id="path141" />
      <path
         d="m 89.6929,103.4405 -0.0952,-0.0476"
         id="path142" />
      <path
         d="m 89.5977,103.3929 -0.0953,-0.0953"
         id="path143" />
      <path
         d="m 89.5024,103.2976 -0.0476,-0.1428"
         id="path144" />
      <path
         d="m 89.4548,103.1548 v -0.0953"
         id="path145" />
      <path
         d="m 89.4548,103.0595 0.0476,-0.1428"
         id="path146" />
      <path
         d="m 89.5024,102.9167 0.0477,-0.0477"
         id="path147" />
      <path
         d="m 90.4548,102.4405 h -1"
         id="path148" />
      <path
         d="m 89.4548,102.4405 1,-0.5715"
         id="path149" />
      <path
         d="m 90.4548,101.869 h -1"
         id="path150" />
      <path
         d="m 89.4548,101.5357 v -0.5714"
         id="path151" />
      <path
         d="m 90.4548,101.25 h -1"
         id="path152" />
      <path
         d="M 90.0739,100.631 V 99.869"
         id="path153" />
      <path
         d="m 90.4548,98.9167 v 0.4762"
         id="path154" />
      <path
         d="m 90.4548,99.3929 h -1"
         id="path155" />
    </g>
    <g
       transform="rotate(-90,90,93.5)"
       id="g156">
      <text
         x="90"
         y="94"
         textLength="1.2976"
         font-size="1.3333px"
         lengthAdjust="spacingAndGlyphs"
         text-anchor="middle"
         opacity="0"
         id="text155">N</text>
    </g>
    <g
       class="stroked-text"
       id="g158">
      <desc
         id="desc156">N</desc>
      <path
         d="m 90.4548,93.7857 h -1"
         id="path156" />
      <path
         d="m 89.4548,93.7857 1,-0.5714"
         id="path157" />
      <path
         d="m 90.4548,93.2143 h -1"
         id="path158" />
    </g>
    <g
       transform="rotate(-90,90,86)"
       id="g159">
      <text
         x="90"
         y="86.5"
         textLength="1.2976"
         font-size="1.3333px"
         lengthAdjust="spacingAndGlyphs"
         text-anchor="middle"
         opacity="0"
         id="text158">N</text>
    </g>
    <g
       class="stroked-text"
       id="g161">
      <desc
         id="desc159">N</desc>
      <path
         d="m 90.4548,86.2857 h -1"
         id="path159" />
      <path
         d="m 89.4548,86.2857 1,-0.5714"
         id="path160" />
      <path
         d="m 90.4548,85.7143 h -1"
         id="path161" />
    </g>
    <g
       transform="rotate(-90,90,109)"
       id="g162">
      <text
         x="90"
         y="109.5"
         textLength="1.0595"
         font-size="1.3333px"
         lengthAdjust="spacingAndGlyphs"
         text-anchor="middle"
         opacity="0"
         id="text161">L</text>
    </g>
    <g
       class="stroked-text"
       id="g163">
      <desc
         id="desc162">L</desc>
      <path
         d="m 90.4548,108.6905 v 0.4762"
         id="path162" />
      <path
         d="m 90.4548,109.1667 h -1"
         id="path163" />
    </g>
    <g
       transform="rotate(-90,184.75,82.75)"
       id="g164">
      <text
         x="184.75"
         y="83.25"
         textLength="5.3452001"
         font-size="1.3333px"
         lengthAdjust="spacingAndGlyphs"
         text-anchor="middle"
         opacity="0"
         id="text163">POWER</text>
    </g>
    <g
       class="stroked-text"
       id="g208">
      <desc
         id="desc164">POWER</desc>
      <path
         d="m 185.2048,85.0595 h -1"
         id="path164" />
      <path
         d="M 184.2048,85.0595 V 84.6786"
         id="path165" />
      <path
         d="m 184.2048,84.6786 0.0476,-0.0953"
         id="path166" />
      <path
         d="m 184.2524,84.5833 0.0477,-0.0476"
         id="path167" />
      <path
         d="m 184.3001,84.5357 0.0952,-0.0476"
         id="path168" />
      <path
         d="m 184.3953,84.4881 h 0.1429"
         id="path169" />
      <path
         d="m 184.5382,84.4881 0.0952,0.0476"
         id="path170" />
      <path
         d="m 184.6334,84.5357 0.0476,0.0476"
         id="path171" />
      <path
         d="m 184.681,84.5833 0.0476,0.0953"
         id="path172" />
      <path
         d="m 184.7286,84.6786 v 0.3809"
         id="path173" />
      <path
         d="M 184.2048,83.869 V 83.6786"
         id="path174" />
      <path
         d="m 184.2048,83.6786 0.0476,-0.0953"
         id="path175" />
      <path
         d="m 184.2524,83.5833 0.0953,-0.0952"
         id="path176" />
      <path
         d="m 184.3477,83.4881 0.1905,-0.0476"
         id="path177" />
      <path
         d="m 184.5382,83.4405 h 0.3333"
         id="path178" />
      <path
         d="m 184.8715,83.4405 0.1905,0.0476"
         id="path179" />
      <path
         d="m 185.062,83.4881 0.0952,0.0952"
         id="path180" />
      <path
         d="m 185.1572,83.5833 0.0476,0.0953"
         id="path181" />
      <path
         d="M 185.2048,83.6786 V 83.869"
         id="path182" />
      <path
         d="m 185.2048,83.869 -0.0476,0.0953"
         id="path183" />
      <path
         d="m 185.1572,83.9643 -0.0952,0.0952"
         id="path184" />
      <path
         d="m 185.062,84.0595 -0.1905,0.0476"
         id="path185" />
      <path
         d="m 184.8715,84.1071 h -0.3333"
         id="path186" />
      <path
         d="m 184.5382,84.1071 -0.1905,-0.0476"
         id="path187" />
      <path
         d="m 184.3477,84.0595 -0.0953,-0.0952"
         id="path188" />
      <path
         d="M 184.2524,83.9643 184.2048,83.869"
         id="path189" />
      <path
         d="m 184.2048,83.1071 1,-0.2381"
         id="path190" />
      <path
         d="m 185.2048,82.869 -0.7143,-0.1904"
         id="path191" />
      <path
         d="m 184.4905,82.6786 0.7143,-0.1905"
         id="path192" />
      <path
         d="m 185.2048,82.4881 -1,-0.2381"
         id="path193" />
      <path
         d="M 184.681,81.869 V 81.5357"
         id="path194" />
      <path
         d="M 185.2048,81.3929 V 81.869"
         id="path195" />
      <path
         d="m 185.2048,81.869 h -1"
         id="path196" />
      <path
         d="M 184.2048,81.869 V 81.3929"
         id="path197" />
      <path
         d="m 185.2048,80.3929 -0.4762,0.3333"
         id="path198" />
      <path
         d="m 185.2048,80.9643 h -1"
         id="path199" />
      <path
         d="m 184.2048,80.9643 v -0.381"
         id="path200" />
      <path
         d="m 184.2048,80.5833 0.0476,-0.0952"
         id="path201" />
      <path
         d="m 184.2524,80.4881 0.0477,-0.0476"
         id="path202" />
      <path
         d="m 184.3001,80.4405 0.0952,-0.0476"
         id="path203" />
      <path
         d="m 184.3953,80.3929 h 0.1429"
         id="path204" />
      <path
         d="m 184.5382,80.3929 0.0952,0.0476"
         id="path205" />
      <path
         d="m 184.6334,80.4405 0.0476,0.0476"
         id="path206" />
      <path
         d="m 184.681,80.4881 0.0476,0.0952"
         id="path207" />
      <path
         d="m 184.7286,80.5833 v 0.381"
         id="path208" />
    </g>
  </g>
  <path
     d="m 27.72172,35.37 h -11.24"
     id="path943"
     style="fill:none;stroke:#000000;stroke-width:0.12;stroke-linecap:round;stroke-linejoin:round;stroke-opacity:1" />
  <path
     d="M 96.96172,34.91 V 26.29"
     id="path967"
     style="fill:none;stroke:#000000;stroke-width:0.12;stroke-linecap:round;stroke-linejoin:round;stroke-opacity:1" />
  <path
     d="m 96.10172,25.9 h 1.25"
     id="path975"
     style="fill:none;stroke:#000000;stroke-width:0.12;stroke-linecap:round;stroke-linejoin:round;stroke-opacity:1" />
  <path
     d="m 97.35172,25.9 v 2"
     id="path976"
     style="fill:none;stroke:#000000;stroke-width:0.12;stroke-linecap:round;stroke-linejoin:round;stroke-opacity:1" />
  <path
     d="m 89.49172,26.29 v 8.62"
     id="path978"
     style="fill:none;stroke:#000000;stroke-width:0.12;stroke-linecap:round;stroke-linejoin:round;stroke-opacity:1" />
  <path
     d="m 89.49172,34.91 h 7.47"
     id="path981"
     style="fill:none;stroke:#000000;stroke-width:0.12;stroke-linecap:round;stroke-linejoin:round;stroke-opacity:1" />
  <path
     d="m 96.96172,26.29 h -7.47"
     id="path987"
     style="fill:none;stroke:#000000;stroke-width:0.12;stroke-linecap:round;stroke-linejoin:round;stroke-opacity:1" />
  <path
     d="M 6.0017202,12.59 H 10.50172"
     id="path999"
     style="fill:none;stroke:#000000;stroke-width:0.12;stroke-linecap:round;stroke-linejoin:round;stroke-opacity:1" />
  <path
     d="M 6.0017202,20.09 H 10.50172"
     id="path1000"
     style="fill:none;stroke:#000000;stroke-width:0.12;stroke-linecap:round;stroke-linejoin:round;stroke-opacity:1" />
  <path
     d="M 6.0017202,28.09 H 10.50172"
     id="path1001"
     style="fill:none;stroke:#000000;stroke-width:0.12;stroke-linecap:round;stroke-linejoin:round;stroke-opacity:1" />
  <path
     style="fill:none;stroke:#000000;stroke-width:0.12;stroke-linecap:round;stroke-linejoin:round;stroke-opacity:1"
     d="M 2.0017202,35.34 H 14.00172 V 4.84 H 2.0017202 Z"
     id="path1002" />
  <path
     d="m 97.35172,8.6 v 2"
     id="path1005"
     style="fill:none;stroke:#000000;stroke-width:0.12;stroke-linecap:round;stroke-linejoin:round;stroke-opacity:1" />
  <path
     d="m 96.96172,8.99 h -7.47"
     id="path1012"
     style="fill:none;stroke:#000000;stroke-width:0.12;stroke-linecap:round;stroke-linejoin:round;stroke-opacity:1" />
  <path
     d="m 89.49172,8.99 v 8.62"
     id="path1014"
     style="fill:none;stroke:#000000;stroke-width:0.12;stroke-linecap:round;stroke-linejoin:round;stroke-opacity:1" />
  <path
     d="M 96.96172,17.61 V 8.99"
     id="path1016"
     style="fill:none;stroke:#000000;stroke-width:0.12;stroke-linecap:round;stroke-linejoin:round;stroke-opacity:1" />
  <path
     d="m 89.49172,17.61 h 7.47"
     id="path1019"
     style="fill:none;stroke:#000000;stroke-width:0.12;stroke-linecap:round;stroke-linejoin:round;stroke-opacity:1" />
  <path
     d="m 96.10172,8.6 h 1.25"
     id="path1032"
     style="fill:none;stroke:#000000;stroke-width:0.12;stroke-linecap:round;stroke-linejoin:round;stroke-opacity:1" />
  <path
     d="m 93.67672,4.29 h -2.86"
     id="path1037"
     style="fill:none;stroke:#000000;stroke-width:0.12;stroke-linecap:round;stroke-linejoin:round;stroke-opacity:1" />
  <path
     d="m 90.81672,6.21 h 2.86"
     id="path1038"
     style="fill:none;stroke:#000000;stroke-width:0.12;stroke-linecap:round;stroke-linejoin:round;stroke-opacity:1" />
  <path
     d="M 90.81672,4.29 V 6.21"
     id="path1039"
     style="fill:none;stroke:#000000;stroke-width:0.12;stroke-linecap:round;stroke-linejoin:round;stroke-opacity:1" />
  <path
     d="M 2.3517202,0.05 H 95.85172"
     id="path1163"
     style="fill:none;stroke:#000000;stroke-width:0.1;stroke-linecap:round;stroke-linejoin:round;stroke-opacity:1" />
  <path
     d="M 95.85172,36.25 H 2.3517202"
     id="path1168"
     style="fill:none;stroke:#000000;stroke-width:0.1;stroke-linecap:round;stroke-linejoin:round;stroke-opacity:1" />
  <path
     d="M 0.10172019,34 V 2.3"
     id="path1170"
     style="fill:none;stroke:#000000;stroke-width:0.1;stroke-linecap:round;stroke-linejoin:round;stroke-opacity:1" />
  <path
     d="m 98.10172,2.3 a 2.25,2.25 0 0 0 -2.25,-2.25"
     id="path1173"
     style="fill:none;stroke:#000000;stroke-width:0.1;stroke-linecap:round;stroke-linejoin:round;stroke-opacity:1" />
  <path
     d="M 98.10172,2.3 V 34"
     id="path1174"
     style="fill:none;stroke:#000000;stroke-width:0.1;stroke-linecap:round;stroke-linejoin:round;stroke-opacity:1" />
  <path
     d="M 0.10172019,34 A 2.25,2.25 0 0 0 2.3517202,36.25"
     id="path1176"
     style="fill:none;stroke:#000000;stroke-width:0.1;stroke-linecap:round;stroke-linejoin:round;stroke-opacity:1" />
  <path
     d="M 2.3517202,0.05 A 2.25,2.25 0 0 0 0.10172019,2.3"
     id="path1177"
     style="fill:none;stroke:#000000;stroke-width:0.1;stroke-linecap:round;stroke-linejoin:round;stroke-opacity:1" />
  <path
     d="m 95.85172,36.25 a 2.25,2.25 0 0 0 2.25,-2.25"
     id="path1178"
     style="fill:none;stroke:#000000;stroke-width:0.1;stroke-linecap:round;stroke-linejoin:round;stroke-opacity:1" />
  <g
     id="g1181"
     transform="translate(-88.89828,-77.25)">
    <circle
       style="fill:#ffffff;stroke:#000000;stroke-width:0.450001"
       id="path1179"
       cx="98.371536"
       cy="85.980003"
       r="2.1969669" />
    <path
       style="fill:#ffffff;stroke:#000000;stroke-width:0.450001"
       d="m 96.905636,87.496231 3.165994,-3.032456"
       id="path1180" />
  </g>
  <g
     id="g1182"
     transform="translate(-88.89828,-69.640003)">
    <circle
       style="fill:#ffffff;stroke:#000000;stroke-width:0.450001"
       id="circle1181"
       cx="98.371536"
       cy="85.980003"
       r="2.1969669" />
    <path
       style="fill:#ffffff;stroke:#000000;stroke-width:0.450001"
       d="m 96.905636,87.496231 3.165994,-3.032456"
       id="path1181" />
  </g>
  <g
     id="g1183"
     transform="translate(-89.149049,-62.030007)">
    <circle
       style="fill:#ffffff;stroke:#000000;stroke-width:0.450001"
       id="circle1182"
       cx="98.371536"
       cy="85.980003"
       r="2.1969669" />
    <path
       style="fill:#ffffff;stroke:#000000;stroke-width:0.450001"
       d="m 96.905636,87.496231 3.165994,-3.032456"
       id="path1182" />
  </g>
  <g
     id="g1184"
     transform="translate(-89.031952,-54.420011)">
    <circle
       style="fill:#ffffff;stroke:#000000;stroke-width:0.450001"
       id="circle1183"
       cx="98.371536"
       cy="85.980003"
       r="2.1969669" />
    <path
       style="fill:#ffffff;stroke:#000000;stroke-width:0.450001"
       d="m 96.905636,87.496231 3.165994,-3.032456"
       id="path1183" />
  </g>
  <text
     xml:space="preserve"
     style="font-size:1.76389px;font-family:OCRA;-inkscape-font-specification:OCRA;fill:#000000;fill-opacity:1;stroke:#000000;stroke-width:0.450001"
     x="8.1803255"
     y="4.0429153"
     id="text1184"><tspan
       sodipodi:role="line"
       id="tspan1184"
       style="font-style:normal;font-variant:normal;font-weight:normal;font-stretch:normal;font-size:1.76389px;font-family:'OCR B';-inkscape-font-specification:'OCR B';fill:#000000;fill-opacity:1;stroke:none;stroke-width:0.45"
       x="8.1803255"
       y="4.0429153">J4</tspan></text>
  <text
     xml:space="preserve"
     style="font-size:1.76389px;font-family:OCRA;-inkscape-font-specification:OCRA;fill:#000000;fill-opacity:1;stroke:#000000;stroke-width:0.450001"
     x="85.967216"
     y="17.272095"
     id="text1185"><tspan
       sodipodi:role="line"
       id="tspan1185"
       style="font-style:normal;font-variant:normal;font-weight:normal;font-stretch:normal;font-size:1.76389px;font-family:'OCR B';-inkscape-font-specification:'OCR B';fill:#000000;fill-opacity:1;stroke:none;stroke-width:0.45"
       x="85.967216"
       y="17.272095">J2</tspan></text>
  <text
     xml:space="preserve"
     style="font-size:1.76389px;font-family:OCRA;-inkscape-font-specification:OCRA;fill:#000000;fill-opacity:1;stroke:#000000;stroke-width:0.450001"
     x="85.967216"
     y="28.384598"
     id="text1186"><tspan
       sodipodi:role="line"
       id="tspan1186"
       style="font-style:normal;font-variant:normal;font-weight:normal;font-stretch:normal;font-size:1.76389px;font-family:'OCR B';-inkscape-font-specification:'OCR B';fill:#000000;fill-opacity:1;stroke:none;stroke-width:0.45"
       x="85.967216"
       y="28.384598">J1</tspan></text>
  <metadata
     id="metadata1186">
    <rdf:RDF>
      <cc:Work
         rdf:about="">
        <dc:title>SVG Image created as electronic-limit-sw-brd.svg date 2024/06/21 10:39:36 </dc:title>
      </cc:Work>
    </rdf:RDF>
  </metadata>
</svg>
